<?xml version="1.0" encoding="utf-8"?>
<!-- Generator: Adobe Illustrator 27.5.0, SVG Export Plug-In . SVG Version: 6.00 Build 0)  -->
<svg version="1.1" xmlns="http://www.w3.org/2000/svg" xmlns:xlink="http://www.w3.org/1999/xlink" x="0px" y="0px"
	 viewBox="0 0 750 500" style="enable-background:new 0 0 750 500;" xml:space="preserve">

<g id="OBJECTS">
	<g>
		<g>
			<g>
				<g>
					<path style="fill:#A0C0FC;" d="M633.863,343.941h-525.11c-3.568,0-6.461-2.893-6.461-6.461V84.143h538.032V337.48
						C640.324,341.048,637.432,343.941,633.863,343.941z"/>
					<path style="fill:#4C60FA;" d="M640.324,84.209H102.292v-7.393c0-9.924,8.045-17.97,17.97-17.97h502.092
						c9.924,0,17.97,8.045,17.97,17.97V84.209z"/>
					<g>
						<circle style="fill:#E79C88;" cx="136.02" cy="71.93" r="4.38"/>
						<circle style="fill:#FFFFFF;" cx="155.547" cy="71.93" r="4.38"/>
						<path style="fill:#FFFFFF;" d="M179.454,71.93c0,2.419-1.961,4.38-4.38,4.38c-2.419,0-4.38-1.961-4.38-4.38
							s1.961-4.38,4.38-4.38C177.493,67.55,179.454,69.511,179.454,71.93z"/>
					</g>
				</g>
			</g>
			<g>
				<linearGradient id="SVGID_1_" gradientUnits="userSpaceOnUse" x1="200.3268" y1="193.4195" x2="559.1172" y2="193.4195">
					<stop  offset="0.0022" style="stop-color:#8DE2FD"/>
					<stop  offset="1" style="stop-color:#4C60FA"/>
				</linearGradient>
				<path style="fill:url(#SVGID_1_);" d="M557.671,104.851c-1.327-1.615-3.361-2.473-5.449-2.299l-34.76,2.939
					c-2.373,0.2-4.436,1.711-5.344,3.913c-0.907,2.202-0.509,4.727,1.034,6.541l7.358,8.657l-52.626,39.366l-19.541-21.36
					c-2.621-2.865-6.975-3.304-10.116-1.022l-110.989,80.67l-29.876-21.06c-2.796-1.972-6.563-1.84-9.216,0.32l-85.008,69.245
					c-3.268,2.661-3.759,7.468-1.097,10.735c1.509,1.852,3.705,2.812,5.921,2.812c1.694,0,3.399-0.561,4.815-1.715l80.521-65.59
					l29.612,20.873c2.669,1.881,6.24,1.855,8.883-0.065l109.893-79.873l19.606,21.429c2.648,2.894,7.059,3.31,10.201,0.96
					l58.922-44.076l8.097,9.527c1.222,1.438,3.002,2.241,4.845,2.241c0.445,0,0.895-0.047,1.341-0.143
					c2.291-0.494,4.125-2.209,4.771-4.463l9.401-32.774C559.447,108.632,558.999,106.466,557.671,104.851z"/>
				<rect x="261.015" y="259.781" style="fill:#7C9AFB;" width="28.925" height="49.37"/>
				<rect x="303.464" y="273.777" style="fill:#7C9AFB;" width="28.926" height="35.374"/>
				<rect x="345.914" y="246.419" style="fill:#7C9AFB;" width="28.926" height="62.732"/>
				<rect x="388.364" y="235.865" style="fill:#7C9AFB;" width="28.926" height="73.285"/>
				<rect x="430.814" y="207.86" style="fill:#7C9AFB;" width="28.926" height="101.29"/>
				<rect x="473.264" y="236.408" style="fill:#7C9AFB;" width="28.926" height="72.743"/>
				<polyline style="fill:none;stroke:#FFFFFF;stroke-width:1.4286;stroke-miterlimit:10;" points="189.806,113.183 
					189.806,308.957 571.061,308.957 				"/>
			</g>
		</g>
		<g>
			<g>
				<g>
					<circle style="fill:none;stroke:#FFFFFF;stroke-width:1.5;stroke-miterlimit:10;" cx="692.938" cy="108.212" r="19.537"/>
					
						<polyline style="fill:none;stroke:#FFFFFF;stroke-width:1.5;stroke-linecap:round;stroke-linejoin:round;stroke-miterlimit:10;" points="
						684.677,109.212 691.475,114.194 700.232,101.823 					"/>
				</g>
				<g>
					
						<ellipse transform="matrix(0.7071 -0.7071 0.7071 0.7071 -239.3849 144.0515)" style="fill:none;stroke:#FFFFFF;stroke-width:1.5;stroke-miterlimit:10;" cx="54.193" cy="360.989" rx="19.537" ry="19.537"/>
					
						<line style="fill:none;stroke:#FFFFFF;stroke-width:1.5;stroke-linecap:round;stroke-linejoin:round;stroke-miterlimit:10;" x1="48.667" y1="354.793" x2="59.72" y2="365.846"/>
					
						<line style="fill:none;stroke:#FFFFFF;stroke-width:1.5;stroke-linecap:round;stroke-linejoin:round;stroke-miterlimit:10;" x1="59.72" y1="354.793" x2="48.667" y2="365.846"/>
				</g>
				
					<rect x="673.401" y="288.325" style="fill:none;stroke:#FFFFFF;stroke-width:1.5;stroke-linecap:round;stroke-linejoin:round;stroke-miterlimit:10;" width="14.774" height="14.774"/>
				
					<rect x="349.007" y="385.757" style="fill:none;stroke:#FFFFFF;stroke-width:1.5;stroke-linecap:round;stroke-linejoin:round;stroke-miterlimit:10;" width="14.774" height="14.774"/>
				<path style="fill:none;stroke:#FFFFFF;stroke-width:1.5;stroke-linecap:round;stroke-linejoin:round;stroke-miterlimit:10;" d="
					M579.947,167.601L579.947,167.601c-4.08,0-7.387-3.307-7.387-7.387l0,0c0-4.08,3.307-7.387,7.387-7.387h0
					c4.08,0,7.387,3.307,7.387,7.387l0,0C587.334,164.294,584.026,167.601,579.947,167.601z"/>
				
					<rect x="40.323" y="214.91" style="fill:none;stroke:#FFFFFF;stroke-width:1.5;stroke-linecap:round;stroke-linejoin:round;stroke-miterlimit:10;" width="14.774" height="14.774"/>
				<g>
					<circle style="fill:#FFFFFF;" cx="234.993" cy="121.749" r="4.463"/>
					<circle style="fill:#FFFFFF;" cx="247.922" cy="121.749" r="4.463"/>
					<circle style="fill:#FFFFFF;" cx="260.85" cy="121.749" r="4.463"/>
					<g>
						<path style="fill:#FFFFFF;" d="M273.779,118.786c1.634,0,2.963,1.329,2.963,2.963c0,1.634-1.329,2.963-2.963,2.963
							s-2.963-1.329-2.963-2.963C270.816,120.115,272.146,118.786,273.779,118.786 M273.779,117.286
							c-2.465,0-4.463,1.998-4.463,4.463c0,2.465,1.998,4.463,4.463,4.463c2.465,0,4.463-1.998,4.463-4.463
							C278.242,119.284,276.244,117.286,273.779,117.286L273.779,117.286z"/>
					</g>
				</g>
			</g>
			<g>
				<g>
					<path style="fill:#E79C88;" d="M117.321,275.311c-0.096,10.027-8.301,18.078-18.328,17.982
						c-10.027-0.096-18.077-8.302-17.982-18.328c0.095-10.027,8.301-18.078,18.328-17.982
						C109.366,257.079,117.417,265.284,117.321,275.311z"/>
					
						<polyline style="fill:none;stroke:#FFFFFF;stroke-width:1.5;stroke-linecap:round;stroke-linejoin:round;stroke-miterlimit:10;" points="
						92.374,274.206 97.633,279.403 105.959,269.901 					"/>
				</g>
				<g>
					<g>
						<path style="fill:#4C60FA;" d="M54.071,146.012h80.787c1.88,0,3.404-1.524,3.404-3.404v-22.459
							c0-1.88-1.524-3.404-3.404-3.404H54.07c-1.88,0-3.404,1.524-3.404,3.404v22.459C50.667,144.488,52.191,146.012,54.071,146.012
							z"/>
						<g>
							
								<line style="fill:none;stroke:#FFFFFF;stroke-width:1.0971;stroke-miterlimit:10;" x1="67.821" y1="128.11" x2="125.2" y2="128.11"/>
							
								<line style="fill:none;stroke:#FFFFFF;stroke-width:1.0971;stroke-miterlimit:10;" x1="67.821" y1="134.647" x2="84.71" y2="134.647"/>
						</g>
					</g>
					<polygon style="fill:#4C60FA;" points="127.833,142.117 127.833,155.353 110.961,142.117 					"/>
				</g>
				<g>
					<g>
						<path style="fill:#E79C88;" d="M402.786,125.775h-90.785c-3.61,0-6.537-2.927-6.537-6.537v-76.05
							c0-3.61,2.927-6.537,6.537-6.537h90.785c3.61,0,6.537,2.927,6.537,6.537v76.05
							C409.323,122.848,406.396,125.775,402.786,125.775z"/>
					</g>
					<g>
						<g>
							
								<rect x="327.612" y="58.291" style="fill:none;stroke:#FFFFFF;stroke-width:1.5865;stroke-linecap:round;stroke-linejoin:round;stroke-miterlimit:10;" width="10.576" height="10.576"/>
							
								<line style="fill:none;stroke:#FFFFFF;stroke-width:1.5865;stroke-linecap:round;stroke-linejoin:round;stroke-miterlimit:10;" x1="345.846" y1="63.578" x2="366.348" y2="63.578"/>
						</g>
						<g>
							
								<rect x="327.612" y="75.925" style="fill:none;stroke:#FFFFFF;stroke-width:1.5865;stroke-linecap:round;stroke-linejoin:round;stroke-miterlimit:10;" width="10.576" height="10.576"/>
							
								<line style="fill:none;stroke:#FFFFFF;stroke-width:1.5865;stroke-linecap:round;stroke-linejoin:round;stroke-miterlimit:10;" x1="345.846" y1="81.213" x2="387.186" y2="81.213"/>
						</g>
						<g>
							
								<rect x="327.612" y="93.56" style="fill:none;stroke:#FFFFFF;stroke-width:1.5865;stroke-linecap:round;stroke-linejoin:round;stroke-miterlimit:10;" width="10.576" height="10.576"/>
							
								<line style="fill:none;stroke:#FFFFFF;stroke-width:1.5865;stroke-linecap:round;stroke-linejoin:round;stroke-miterlimit:10;" x1="345.846" y1="98.848" x2="387.186" y2="98.848"/>
						</g>
					</g>
				</g>
				<g>
					<g>
						
							<ellipse transform="matrix(0.9272 -0.3746 0.3746 0.9272 -30.3082 256.4183)" style="fill:#4C60FA;" cx="644.386" cy="206.166" rx="35.072" ry="35.073"/>
					</g>
					<g>
						<g>
							<rect x="629.457" y="205.468" style="fill:#FFFFFF;" width="6.779" height="11.618"/>
							<rect x="639.836" y="190.894" style="fill:#FFFFFF;" width="6.779" height="26.192"/>
							<rect x="650.213" y="196.324" style="fill:#FFFFFF;" width="6.779" height="20.762"/>
						</g>
						
							<line style="fill:none;stroke:#FFFFFF;stroke-width:0.9887;stroke-linecap:round;stroke-linejoin:round;stroke-miterlimit:10;" x1="622.471" y1="217.086" x2="666.301" y2="217.086"/>
					</g>
				</g>
			</g>
			<g>
				
					<line style="fill:none;stroke:#E79C88;stroke-width:2;stroke-linecap:round;stroke-linejoin:round;stroke-miterlimit:10;" x1="37.323" y1="75.55" x2="70.719" y2="75.55"/>
				
					<line style="fill:none;stroke:#E79C88;stroke-width:2;stroke-linecap:round;stroke-linejoin:round;stroke-miterlimit:10;" x1="668.329" y1="353.526" x2="708.725" y2="353.526"/>
				
					<line style="fill:none;stroke:#A0C0FC;stroke-width:2;stroke-linecap:round;stroke-linejoin:round;stroke-miterlimit:10;" x1="483.023" y1="31.393" x2="559.87" y2="31.393"/>
				
					<line style="fill:none;stroke:#A0C0FC;stroke-width:2;stroke-linecap:round;stroke-linejoin:round;stroke-miterlimit:10;" x1="261.602" y1="390.749" x2="317.927" y2="390.749"/>
			</g>
		</g>
	</g>
	<g>
		<g>
			<g>
				<g>
					<polygon style="fill:#E9A79A;" points="186.699,443.101 188.613,402.165 204.54,402.165 200.275,442.318 					"/>
					<g>
						<g>
							<g>
								<defs>
									<path id="XMLID_12_" d="M185.841,436.882c3.636,1.63,7.917,2.363,12.929-0.096c0,0,1.993-6.121,7.544-2.562
										c0,0,6.413,7.172,15.943,9.104c13.214,2.679,13.807,8.831,13.807,8.831h-56.008c0,0,1.972-8.353,2.855-13.628
										C183.139,437.168,184.58,436.317,185.841,436.882z"/>
								</defs>
								<use xlink:href="#XMLID_12_"  style="overflow:visible;"/>
								<clipPath id="XMLID_00000156558327019922297930000012371695292792178592_">
									<use xlink:href="#XMLID_12_"  style="overflow:visible;"/>
								</clipPath>
							</g>
							<rect x="180.056" y="452.159" style="fill:#FFFFFF;" width="56.008" height="6.121"/>
						</g>
						
							<path style="fill:none;stroke:#FFFFFF;stroke-width:0.7858;stroke-linecap:round;stroke-linejoin:round;stroke-miterlimit:10;" d="
							M217,441.662c0,0-2.123-0.028-3.786,2.879"/>
						
							<path style="fill:none;stroke:#FFFFFF;stroke-width:0.7858;stroke-linecap:round;stroke-linejoin:round;stroke-miterlimit:10;" d="
							M214.305,440.223c0,0-2.123-0.028-3.786,2.879"/>
						
							<path style="fill:none;stroke:#FFFFFF;stroke-width:0.7858;stroke-linecap:round;stroke-linejoin:round;stroke-miterlimit:10;" d="
							M211.553,438.513c0,0-2.123-0.028-3.786,2.879"/>
					</g>
				</g>
				<g>
					<polygon style="fill:#E9A79A;" points="142.231,443.101 147.696,402.165 163.623,402.165 155.808,442.318 					"/>
					<g>
						<g>
							<g>
								<defs>
									<path id="XMLID_11_" d="M141.696,436.882c3.636,1.63,7.917,2.363,12.929-0.096c0,0,1.993-6.121,7.544-2.562
										c0,0,6.413,7.172,15.942,9.104c13.214,2.679,13.807,8.831,13.807,8.831h-56.008c0,0,1.972-8.353,2.855-13.628
										C138.994,437.168,140.435,436.317,141.696,436.882z"/>
								</defs>
								<use xlink:href="#XMLID_11_"  style="overflow:visible;"/>
								<clipPath id="XMLID_00000084499739974016604160000002154046194816883364_">
									<use xlink:href="#XMLID_11_"  style="overflow:visible;"/>
								</clipPath>
							</g>
							<rect x="135.912" y="452.159" style="fill:#FFFFFF;" width="56.008" height="6.121"/>
						</g>
						
							<path style="fill:none;stroke:#FFFFFF;stroke-width:0.7858;stroke-linecap:round;stroke-linejoin:round;stroke-miterlimit:10;" d="
							M172.855,441.662c0,0-2.123-0.028-3.786,2.879"/>
						
							<path style="fill:none;stroke:#FFFFFF;stroke-width:0.7858;stroke-linecap:round;stroke-linejoin:round;stroke-miterlimit:10;" d="
							M170.16,440.223c0,0-2.123-0.028-3.786,2.879"/>
						
							<path style="fill:none;stroke:#FFFFFF;stroke-width:0.7858;stroke-linecap:round;stroke-linejoin:round;stroke-miterlimit:10;" d="
							M167.409,438.513c0,0-2.123-0.028-3.786,2.879"/>
					</g>
				</g>
				<g>
					<path style="fill:#1A246E;" d="M213.32,236.457c0,0,1.767,5.437,2.51,30.692c0.153,5.191,0.02,12.401-0.325,17.582
						l-7.446,144.09l-27.205-0.105l7.033-146.661l-22.707,146.589l-26.459-0.677l24.267-184.284l26.012-2.395L213.32,236.457z"/>
					
						<line style="fill:none;stroke:#000000;stroke-width:0.4982;stroke-linecap:round;stroke-linejoin:round;stroke-miterlimit:10;" x1="187.886" y1="282.055" x2="202.556" y2="279.542"/>
				</g>
			</g>
			<g>
				<g>
					<g>
						<path style="fill:#E9A79A;" d="M204.078,184.541c0,0,21.744,18.297,42.524,27.66c2.502,1.127,8.48-0.299,10.425-2.233h0
							c2.935-2.918,2.505-7.783-0.897-10.141L217.999,170.4L204.078,184.541z"/>
						<g>
							<g>
								<path style="fill:#FFFFFF;" d="M203.193,161.913c0,0,15.17,0,31.515,19.875l-13.746,19.874l-25.851-12.29L203.193,161.913z"
									/>
							</g>
						</g>
					</g>
					<g>
						<g>
							<g>
								<path style="fill:#E9A79A;" d="M257.883,208.922l25.907-43.096l-8.694-5.612l-32.821,40.318
									c-2.612,2.327,0.612,8.561,3.672,11.265l0,0C247.615,213.313,254.461,214.275,257.883,208.922z"/>
							</g>
						</g>
						<g>
							<g>
								<g>
									<path style="fill:#E9A79A;" d="M275.096,160.214l0.79-6.786c0.169-1.21,1.03-2.209,2.202-2.554l7.207-2.124
										c1.046-0.308,2.167,0.147,2.702,1.097v0c0.642,1.14,0.224,2.586-0.928,3.207l-3.454,1.865c0,0,4.766,3.824,0.131,8.907
										L275.096,160.214z"/>
									<path style="fill:#E9A79A;" d="M278.088,150.874l9.451-12.784c0.635-0.859,1.873-0.982,2.664-0.264l0,0
										c0.607,0.551,0.767,1.441,0.389,2.168l-5.96,11.482L278.088,150.874z"/>
									<path style="fill:#E9A79A;" d="M285.658,147.777l3.612-1.212c0.762-0.192,1.569-0.014,2.181,0.479l0.829,0.669
										c0.942,0.76,1.205,2.087,0.623,3.148l-4.639,8.188l-5.906-4.387L285.658,147.777z"/>
									<path style="fill:#E9A79A;" d="M292.233,148.993l1.343,0.006c0.643,0.003,1.26,0.257,1.718,0.71l1.106,1.093
										c0.47,0.464,0.733,1.098,0.73,1.759l0,0c-0.002,0.532-0.177,1.049-0.498,1.474l-5.932,7.835l-5.098-3.83L292.233,148.993z"
										/>
									<path style="fill:#E9A79A;" d="M294.378,152.113l1.344,0.006c0.643,0.003,1.26,0.257,1.718,0.71l1.107,1.093
										c0.47,0.464,0.733,1.098,0.73,1.759l0,0c-0.002,0.532-0.177,1.049-0.498,1.474l-2.083,2.751
										c-2.128,2.811-6.128,3.372-8.947,1.254l0,0L294.378,152.113z"/>
									<path style="fill:#E9A79A;" d="M293.848,161.505l-2.769,3.036c-2.637,2.891-7.119,3.096-10.01,0.459l-5.973-4.786
										l4.661-6.699l5.864,0.024l5.099,3.563L293.848,161.505z"/>
								</g>
								
									<path style="fill:none;stroke:#000000;stroke-width:0.512;stroke-linecap:round;stroke-linejoin:round;stroke-miterlimit:10;" d="
									M278.583,150.791l7.839-2.569c1.123-0.338,2.309,0.294,2.654,1.415l0,0c0.26,0.845-0.028,1.763-0.725,2.308l-4.736,2.974
									c0,0,4.25,2.097,0.757,6.923"/>
							</g>
						</g>
					</g>
				</g>
				<g>
					<path style="fill:#FFFFFF;" d="M184.744,159.772c-6.837,0.583-13.578,2.084-19.949,4.632c-1.56,0.624-3.098,1.308-4.505,2.044
						c-4.427,2.317-1.253,7.322-0.696,12.433l1.646,70.951c0,0,30.538,13.291,54.858-0.665l2.212-68.009
						c0.489-7.122-2.421-16.593-9.132-18.242c-8.469-2.081-17.325-3.185-21.21-3.419L184.744,159.772z"/>
					<g>
						<path style="fill:#E9A79A;" d="M200.59,161.125c0,0-5.021-1.373-12.622-1.627c0,0-6.485-0.207-12.638,1.689l19.812,11.151
							C199.953,165.452,200.59,161.125,200.59,161.125z"/>
						
							<line style="fill:none;stroke:#171717;stroke-width:0.6784;stroke-linecap:round;stroke-linejoin:round;stroke-miterlimit:10;" x1="217.67" y1="200.098" x2="218.071" y2="184.648"/>
					</g>
				</g>
				<g>
					<g>
						<polygon style="fill:#E9A79A;" points="129.206,198.963 155.424,239.003 148.363,247.014 119.421,217.599 						"/>
						<path style="fill:#E9A79A;" d="M179.515,240.826L168.3,234.91l1.101-2.553c0.401-0.929,0.153-2.022-0.606-2.668
							c-0.783-0.667-1.907-0.686-2.71-0.045l-11.045,8.997l-6.676,8.374c6.058,5.381,10.017,5.315,12.299,4.272
							c0.266,0.092,0.529,0.193,0.8,0.273l9.321,2.773c0.862,0.386,1.865,0.009,2.288-0.86c0.307-0.631,0.415-1.642-1.379-2.587
							l1.794,0.945c0.912,0.409,1.971-0.005,2.397-0.936c0.401-0.823-0.091-1.909-1.144-2.621l1.373,0.559
							c0.994,0.446,2.165-0.062,2.538-1.156c0.322-0.946-0.161-1.992-1.024-2.445l-1.982-1.04l2.353,0.591
							c1.084,0.397,2.292-0.204,2.647-1.382C180.949,242.392,180.424,241.306,179.515,240.826z"/>
						
							<line style="fill:none;stroke:#171717;stroke-width:0.4406;stroke-linecap:round;stroke-linejoin:round;stroke-miterlimit:10;" x1="176.239" y1="244.484" x2="169.609" y2="241.238"/>
						
							<line style="fill:none;stroke:#171717;stroke-width:0.4406;stroke-linecap:round;stroke-linejoin:round;stroke-miterlimit:10;" x1="174.456" y1="248.153" x2="168.064" y2="245.391"/>
						
							<line style="fill:none;stroke:#171717;stroke-width:0.4406;stroke-linecap:round;stroke-linejoin:round;stroke-miterlimit:10;" x1="172.285" y1="251.128" x2="166.869" y2="248.913"/>
					</g>
					<g>
						<path style="fill:#E9A79A;" d="M165.979,187.925l-33.34,29.829c-3.112,3.263-8.023,3.764-11.687,1.191l0,0
							c-4.619-3.243-5.413-9.971-1.683-14.273l31.351-31.775c3.747-4.322,10.095-4.856,14.464-1.216h0
							C169.967,175.75,170.383,183.307,165.979,187.925z"/>
						<g>
							<path style="fill:#FFFFFF;" d="M166.712,163.67c0,0-13.39,2.707-30.011,23.335l15.878,17.883l20.047-14.891L166.712,163.67z"
								/>
							
								<line style="fill:none;stroke:#171717;stroke-width:0.6784;stroke-linecap:round;stroke-linejoin:round;stroke-miterlimit:10;" x1="160.069" y1="199.324" x2="170.881" y2="191.293"/>
						</g>
					</g>
				</g>
			</g>
			<g>
				<path d="M209.467,117.009c-0.984,9.925-9.547,21.153-20.288,21.131c-10.74-0.021-17.335-8.561-20.209-18.112
					c-4.437-14.747,8.856-22.11,23.627-19.449C199.254,101.779,210.537,106.216,209.467,117.009z"/>
				<polygon style="fill:#E9A79A;" points="183.789,134.469 180.928,163.883 196.138,163.974 195.327,137.599 				"/>
				<polygon points="195.865,155.108 185.924,143.285 195.352,139.461 				"/>
				<path style="fill:#E9A79A;" d="M186.179,106.091c3.295-0.893,6.79-1.089,10.13-0.379c4.523,0.962,10.319,3.819,11.028,12.095
					c1.182,13.793-0.519,24.907-7.335,28.013c-5.233,2.385-9.038,1.453-15.049-2.066c-2.237-1.309-4.365-6.85-4.967-9.492
					l-2.568-7.381C177.418,126.882,170.433,110.359,186.179,106.091z"/>
				<path d="M180.159,130.887c0,0,6.689-20.942-3.079-21.515l-5.392,10.424l2.833,8.735L180.159,130.887z"/>
				<g>
					<path style="fill:#E9A79A;" d="M181.845,135.359c-0.401-1.891-1.126-3.708-2.227-5.356c-1.51-2.26-3.671-4.348-6.389-2.678
						c-4.629,2.843,1.061,10.266,6.138,10.361C180.861,137.715,182.097,136.549,181.845,135.359L181.845,135.359z"/>
				</g>
				<path d="M179.197,109.919c0.007,0.007,33.69,6.347,33.158-6.129c-0.499-11.713-17.762-7.435-22.471-2.996l-13.185,6.793
					L179.197,109.919z"/>
				<g>
					<g>
						
							<polyline style="fill:none;stroke:#000000;stroke-width:0.3882;stroke-linecap:round;stroke-linejoin:round;stroke-miterlimit:10;" points="
							199.878,129.82 201.123,132.715 199.52,133.972 						"/>
					</g>
					<path d="M201.658,118.816c0,0-0.563,1.93,1.498,2.315c1.565,0.292,2.559,0.449,3.433,0.887
						c0.496,0.248,1.078,0.042,1.378-0.485l0,0c0.242-0.426,0.254-0.975,0.017-1.399c-0.48-0.859-1.509-2.192-3.41-2.578
						C202.135,117.059,201.658,118.816,201.658,118.816z"/>
					<path d="M194.951,118.661c0,0,0.672,1.937-2.226,2.297c-2.201,0.273-4.836,1.179-6.081,1.606
						c-0.707,0.243-1.507,0.029-1.894-0.502l0,0c-0.313-0.429-0.297-0.978,0.058-1.399c0.72-0.854,3.473-2.934,6.148-3.297
						C194.389,116.898,194.951,118.661,194.951,118.661z"/>
					<g>
						<g>
							<defs>
								<path id="XMLID_3_" d="M195.523,128.038c0,0-1.358-5.307-8.352-1.464C187.171,126.574,189.972,132.095,195.523,128.038z"/>
							</defs>
							<use xlink:href="#XMLID_3_"  style="overflow:visible;fill:#FFFFFF;"/>
							<clipPath id="XMLID_00000082335715470584597510000002207428251120030396_">
								<use xlink:href="#XMLID_3_"  style="overflow:visible;"/>
							</clipPath>
							<path style="clip-path:url(#XMLID_00000082335715470584597510000002207428251120030396_);" d="M194.155,127.298
								c0.16,1.369-0.787,2.604-2.115,2.759c-1.328,0.155-2.533-0.829-2.693-2.198s0.787-2.604,2.115-2.759
								C192.79,124.945,193.995,125.929,194.155,127.298z"/>
						</g>
						<g>
							<path d="M187.079,126.45c0.664-0.494,1.416-0.865,2.205-1.108c0.793-0.237,1.598-0.398,2.452-0.381
								c0.832,0.033,1.688,0.223,2.43,0.685c0.734,0.478,1.311,1.193,1.517,2.114c0.038,0.171-0.069,0.34-0.24,0.378
								c-0.171,0.038-0.34-0.069-0.379-0.24c-0.001-0.004-0.002-0.007-0.002-0.011l-0.006-0.035
								c-0.122-0.666-0.585-1.341-1.19-1.752c-0.617-0.417-1.382-0.626-2.154-0.684c-0.758-0.042-1.566,0.088-2.32,0.292
								c-0.76,0.209-1.485,0.54-2.131,0.99c-0.069,0.05-0.165,0.035-0.215-0.034C186.998,126.596,187.014,126.501,187.079,126.45z"
								/>
						</g>
					</g>
					<g>
						<g>
							<defs>
								<path id="XMLID_2_" d="M201.284,128.007c0,0,2.091-5.253,5.912-1.61C207.196,126.398,205.685,131.559,201.284,128.007z"/>
							</defs>
							<use xlink:href="#XMLID_2_"  style="overflow:visible;fill:#FFFFFF;"/>
							<clipPath id="XMLID_00000147208581515333535680000004919680438157685906_">
								<use xlink:href="#XMLID_2_"  style="overflow:visible;"/>
							</clipPath>
							<path style="clip-path:url(#XMLID_00000147208581515333535680000004919680438157685906_);" d="M202.641,126.979
								c-0.211,1.255,0.424,2.408,1.417,2.575c0.994,0.167,1.97-0.715,2.182-1.97c0.211-1.255-0.424-2.408-1.417-2.575
								C203.828,124.841,202.852,125.724,202.641,126.979z"/>
						</g>
						<g>
							<path d="M207.088,126.47c-0.291-0.412-0.673-0.756-1.123-0.951c-0.443-0.195-0.973-0.238-1.417-0.128l-0.026,0.005
								c-0.652,0.112-1.264,0.409-1.747,0.862c-0.483,0.441-0.875,1.024-1.112,1.614l-0.008,0.02
								c-0.055,0.137-0.211,0.203-0.348,0.148c-0.137-0.055-0.203-0.211-0.148-0.348c0.001-0.003,0.003-0.007,0.004-0.009
								c0.311-0.696,0.747-1.283,1.31-1.769c0.557-0.486,1.266-0.8,1.997-0.895l-0.025,0.005c0.578-0.118,1.144-0.036,1.653,0.204
								c0.505,0.242,0.912,0.645,1.206,1.098c0.039,0.06,0.022,0.14-0.038,0.179C207.207,126.543,207.128,126.526,207.088,126.47z"
								/>
						</g>
					</g>
					
						<path style="fill:none;stroke:#000000;stroke-width:0.3882;stroke-linecap:round;stroke-linejoin:round;stroke-miterlimit:10;" d="
						M193.781,135.929c0,0,2.367,2.461,6.541,1.014"/>
				</g>
			</g>
		</g>
		<g>
			<g>
				<g>
					<g>
						<g>
							<rect x="474.47" y="432.43" style="fill:#E2C64A;" width="105.084" height="13.338"/>
							<rect x="485.339" y="432.43" style="fill:#D9AD44;" width="19.986" height="13.338"/>
							<rect x="552.391" y="432.43" style="fill:#E9D47C;" width="14.656" height="13.338"/>
						</g>
						<g>
							<rect x="474.47" y="405.755" style="fill:#E2C64A;" width="105.084" height="13.338"/>
							<rect x="485.339" y="405.755" style="fill:#D9AD44;" width="19.986" height="13.338"/>
							<rect x="552.391" y="405.755" style="fill:#E9D47C;" width="14.656" height="13.338"/>
						</g>
						<g>
							<rect x="474.47" y="365.742" style="fill:#E2C64A;" width="105.084" height="13.338"/>
							<rect x="485.339" y="365.742" style="fill:#D9AD44;" width="19.986" height="13.338"/>
							<rect x="552.391" y="365.742" style="fill:#E9D47C;" width="14.656" height="13.338"/>
						</g>
						<g>
							<rect x="486.979" y="445.768" style="fill:#E2C64A;" width="105.085" height="13.338"/>
							<rect x="497.847" y="445.768" style="fill:#D9AD44;" width="19.986" height="13.338"/>
							<rect x="564.899" y="445.768" style="fill:#E9D47C;" width="14.655" height="13.338"/>
						</g>
						<g>
							<rect x="486.979" y="392.417" style="fill:#E2C64A;" width="105.085" height="13.338"/>
							<rect x="497.847" y="392.417" style="fill:#D9AD44;" width="19.986" height="13.338"/>
							<rect x="564.899" y="392.417" style="fill:#E9D47C;" width="14.655" height="13.338"/>
						</g>
						<g>
							<rect x="486.979" y="379.08" style="fill:#E2C64A;" width="105.085" height="13.338"/>
							<rect x="497.847" y="379.08" style="fill:#D9AD44;" width="19.986" height="13.338"/>
							<rect x="564.899" y="379.08" style="fill:#E9D47C;" width="14.655" height="13.338"/>
						</g>
						<g>
							<rect x="486.979" y="419.093" style="fill:#E2C64A;" width="105.085" height="13.338"/>
							<rect x="497.847" y="419.093" style="fill:#D9AD44;" width="19.986" height="13.338"/>
							<rect x="564.899" y="419.093" style="fill:#E9D47C;" width="14.655" height="13.338"/>
						</g>
						
							<line style="fill:none;stroke:#D19734;stroke-width:0.8444;stroke-miterlimit:10;" x1="579.555" y1="445.768" x2="486.979" y2="445.768"/>
						
							<line style="fill:none;stroke:#D19734;stroke-width:0.8444;stroke-miterlimit:10;" x1="579.555" y1="432.43" x2="486.979" y2="432.43"/>
						
							<line style="fill:none;stroke:#D19734;stroke-width:0.8444;stroke-miterlimit:10;" x1="579.555" y1="419.093" x2="486.979" y2="419.093"/>
						
							<line style="fill:none;stroke:#D19734;stroke-width:0.8444;stroke-miterlimit:10;" x1="579.555" y1="405.755" x2="486.979" y2="405.755"/>
						
							<line style="fill:none;stroke:#D19734;stroke-width:0.8444;stroke-miterlimit:10;" x1="592.063" y1="392.417" x2="486.979" y2="392.417"/>
						
							<line style="fill:none;stroke:#D19734;stroke-width:0.8444;stroke-miterlimit:10;" x1="592.063" y1="379.08" x2="486.979" y2="379.08"/>
					</g>
				</g>
				<g>
					
						<ellipse transform="matrix(0.9888 -0.1495 0.1495 0.9888 -54.8635 98.4848)" style="fill:#D19734;" cx="627.846" cy="414.282" rx="44.523" ry="44.523"/>
					<g>
						<g>
							
								<ellipse transform="matrix(0.1059 -0.9944 0.9944 0.1059 145.4827 986.9559)" style="fill:#E2C64A;" cx="621.56" cy="412.579" rx="44.523" ry="44.523"/>
							<g>
								
									<ellipse transform="matrix(0.9395 -0.3424 0.3424 0.9395 -103.7038 237.791)" style="fill:#DAB03C;" cx="621.56" cy="412.579" rx="35.709" ry="35.71"/>
							</g>
							<path style="fill:#D19734;" d="M589.139,405.862c5.157-19.036,24.77-30.286,43.805-25.129
								c7.128,1.931,13.163,5.889,17.655,11.085c-4.623-6.477-11.42-11.462-19.701-13.706c-19.036-5.158-38.648,6.093-43.805,25.129
								c-2.921,10.78-0.576,21.742,5.461,30.162c-2.491-4.43-4.044-9.39-4.472-14.556
								C587.646,414.608,587.958,410.221,589.139,405.862z"/>
						</g>
						<g>
							<path style="fill:#D19734;" d="M612.998,435.879l1.34-4.947c-5.519-1.768-7.796-4.43-5.973-11.16
								c0.464-1.715,0.988-3.14,1.488-4.231l7.047,1.909c-0.2,0.491-0.436,1.108-0.66,1.934c-0.791,2.921-1.048,4.623,1.81,5.397
								c2.793,0.757,3.386-0.173,4.401-3.919c0.499-1.841,0.671-2.476-0.105-3.64c-1.561-2.536-6.407-5.28-8.402-7.729
								c-1.809-2.126-1.732-4.422-0.132-10.327c1.841-6.794,4.492-8.529,11.054-7.092l1.065-3.931l4,1.084l-1.065,3.931
								c5.9,1.871,7.428,4.534,5.793,10.566c-0.464,1.714-0.919,2.886-1.304,3.804l-6.984-1.892c0.218-0.554,0.39-1.189,0.648-2.142
								c0.722-2.667,0.703-4.103-1.963-4.826c-2.286-0.619-3.127-0.029-3.987,3.146c-0.895,3.301-0.79,3.671,1.11,5.208
								c2.057,1.716,4.153,3.034,5.927,4.537c2.478,2.171,4.211,3.322,2.439,9.862c-2.494,9.206-5.069,11.917-12.191,10.532
								l-1.357,5.01L612.998,435.879z"/>
						</g>
					</g>
				</g>
			</g>
			<g>
				<g>
					<g>
						<g>
							<g>
								<path d="M459.668,448.496l-10.347,5.571c-1.097,0.59-1.771,1.96-1.444,3.266c0.258,1.033,1.13,1.828,3.419,1.895
									c5.088,0.149,34.481-3.336,34.481-3.336l0.496,3.23l11.194-0.206c0,0-1.777-14.942-4.942-16.923L459.668,448.496z"/>
								<path style="fill:#C67B5B;" d="M479.002,439.433l-19.334,9.064c0,0,7.184,5.158,15.074,1.837s17.783-8.34,17.783-8.34
									l-1.399-3.889L479.002,439.433z"/>
							</g>
							<polygon style="fill:#C67B5B;" points="492.526,441.993 479.516,394.747 461.315,395.495 478.532,444.801 							"/>
						</g>
						<g>
							<polygon style="fill:#3149D7;" points="440.637,356.47 465.559,431.886 496.605,425.478 471.052,344.299 							"/>
							<path style="fill:#3149D7;" d="M555.203,316.26c0,0,27.718,39.571-6.941,50.605l-93.418-0.484
								c-6.334-0.033-11.989-3.978-14.206-9.911l0,0c-3.312-8.863,2.163-18.572,11.461-20.324l83.192-11.204l-2.622-8.798
								L555.203,316.26z"/>
						</g>
					</g>
					<g>
						<path style="fill:#4C60FA;" d="M565.787,316.315c0,0,21.832,31.168,2.516,45.894c-4.147,3.162-9.302,4.711-14.517,4.684
							l-88.358-0.457c-6.334-0.033-11.989-3.978-14.206-9.911l0,0c-3.312-8.863,2.24-20.063,11.538-21.815l63.269-8.521
							l4.052-10.059L565.787,316.315z"/>
						<g>
							<g>
								<g>
									<path d="M401.96,448.198l-10.347,5.571c-1.097,0.59-1.771,1.96-1.444,3.266c0.258,1.033,1.129,1.828,3.419,1.895
										c5.088,0.149,33.1-3.344,33.1-3.344l-0.027,2.894l10.524,0.124c0,0,0.797-14.929-2.367-16.91L401.96,448.198z"/>
									<path style="fill:#C67B5B;" d="M421.293,439.134l-19.334,9.064c0,0,7.184,5.158,15.074,1.837
										c7.891-3.32,17.783-8.34,17.783-8.34l-1.399-3.889L421.293,439.134z"/>
								</g>
								<polygon style="fill:#C67B5B;" points="434.817,441.695 457.688,394.634 436.911,395.369 420.038,443.571 								"/>
							</g>
							<polygon style="fill:#4C60FA;" points="451.565,344.466 418.506,429.3 448.097,439.994 481.313,358.804 							"/>
						</g>
					</g>
				</g>
				<g>
					<g>
						<g>
							<g>
								<path style="fill:#C67B5B;" d="M516.163,259.092l-1.868,57.114c-0.086,5.221,4.291,9.411,9.503,9.097l0,0
									c4.591-0.276,8.229-3.982,8.419-8.578l3.283-56.793L516.163,259.092z"/>
								<path style="fill:#E79C88;" d="M512.329,280.492c0,0-2.733-30.455,13.126-31.487c17.972-1.169,12.285,36.063,12.4,33.414
									L512.329,280.492z"/>
							</g>
							<polygon style="fill:#C67B5B;" points="480.289,321.686 521.361,309.649 523.799,325.303 483.058,329.213 							"/>
						</g>
						<g>
							<path style="fill:#E79C88;" d="M545.185,243.78l20.468,3.29c0,0,3.894-0.569,7.099,10.637
								c2.733,9.557-7.334,58.182-7.334,58.182H529.71l-9.453-30.734c-0.854-2.438-1.394-4.976-1.568-7.553
								c-0.368-5.454,0.305-11.056,2.49-15.969l2.017-12.259l12.25-4.566L545.185,243.78z"/>
							<path style="fill:#C67B5B;" d="M552.613,244.974l-7.428-1.194l-10.563,1.307l-4.629,1.754c0,0-4.359,6.649,2.857,7.481
								C541.617,255.332,548.459,251.986,552.613,244.974z"/>
						</g>
						<g>
							<g>
								<path style="fill:#C67B5B;" d="M556.495,257.911l5.563,56.871c0.508,5.197,5.333,8.862,10.476,7.957l0,0
									c4.53-0.797,7.723-4.892,7.389-9.48l-4.12-56.714L556.495,257.911z"/>
								<path style="fill:#E79C88;" d="M556.042,279.524c0,0-5.832-31.448,7.592-32.463c17.959-1.357,18.175,34.119,17.987,31.474
									L556.042,279.524z"/>
							</g>
							<g>
								<polygon style="fill:#C67B5B;" points="528.895,324.094 568.332,307.465 572.533,322.74 532.502,331.258 								"/>
								<path style="fill:#C67B5B;" d="M528.895,324.094c0,0-7.059-9.542-20.261,3.463l4.431,3.701h19.437l2.463-6.585
									L528.895,324.094z"/>
							</g>
						</g>
					</g>
					<g>
						<path d="M522.778,330.89h36.315c2.246,0,4.066,1.821,4.066,4.066l0,0h-40.381V330.89z"/>
						<path d="M526.106,334.957h-61.971l-13.68-42.93c-0.668-2.464,1.187-4.89,3.74-4.89h53.94c1.75,0,3.282,1.172,3.74,2.861
							L526.106,334.957z"/>
						<path style="fill:#2F313A;" d="M522.778,334.957h-64.253l-13.68-42.93c-0.668-2.464,1.187-4.89,3.74-4.89h56.222
							c1.75,0,3.282,1.172,3.74,2.861L522.778,334.957z"/>
						<path style="fill:#D1E3FD;" d="M485.688,310.836c0,2.488-2.017,4.504-4.504,4.504c-2.488,0-4.505-2.017-4.505-4.504
							c0-2.488,2.017-4.504,4.505-4.504C483.671,306.332,485.688,308.348,485.688,310.836z"/>
					</g>
				</g>
				<g>
					<path d="M544.5,224.502c0.59,6.58,6.402,11.437,12.982,10.847c6.58-0.59,11.437-6.402,10.847-12.982
						c-0.59-6.58-6.402-11.437-12.982-10.847C548.767,212.109,543.911,217.922,544.5,224.502z"/>
					<path d="M549.035,192.899c0,0,3.351-2.218,7.514,2.74s4.586,16.085-2.757,18.775L549.035,192.899z"/>
					<path d="M549.035,192.899c0,0-5.083-11.972-20.445-8.455c-15.362,3.517-24.71,18.617-10.775,26.653L549.035,192.899z"/>
					<path d="M517.831,208.268c0.756,10.04,8.972,17.586,19.784,16.772c10.811-0.814,18.963-9.614,18.206-19.654
						c-0.756-10.04-10.134-17.519-20.945-16.704S517.074,198.228,517.831,208.268z"/>
					<polygon style="fill:#C67B5B;" points="540.139,220.035 548.208,245.358 539.264,252.739 534.185,249.198 531.348,224.468 
											"/>
					<polygon points="533.453,242.853 540.798,228.587 531.595,226.331 					"/>
					<path style="fill:#C67B5B;" d="M538.27,192.553c-3.383-0.656-6.917-0.595-10.226,0.367c-4.483,1.302-10.106,4.607-10.21,12.991
						c-0.172,13.973,2.289,24.235,9.38,26.859c5.444,2.015,9.206,0.795,14.998-3.191c2.155-1.483,3.961-6.416,4.371-9.12l2.041-7.62
						C548.624,212.837,554.437,195.688,538.27,192.553z"/>
					<path d="M546.45,217.104c0,0-10.295-18.234-0.556-24.279c0,0,4.409-0.663,6.843,7.871
						C556.643,214.385,546.45,217.104,546.45,217.104z"/>
					<g>
						<path style="fill:#C67B5B;" d="M544.721,220.897c0.264-1.933,0.86-3.816,1.846-5.556c1.353-2.387,3.375-4.648,6.234-3.168
							c4.87,2.521-0.311,10.414-5.415,10.885C545.886,223.196,544.555,222.113,544.721,220.897L544.721,220.897z"/>
						<path style="fill:#FFFFFF;" d="M545.235,223.54c0.104,1.162,1.131,2.02,2.293,1.916c1.162-0.104,2.02-1.131,1.916-2.293
							s-1.131-2.02-2.293-1.916C545.989,221.351,545.131,222.378,545.235,223.54z"/>
					</g>
					<path d="M548.988,195.9c0,0-20.805,17.407-33.601,7.529c0,0-4.797-11.402,14.601-15.055
						C549.387,184.72,548.988,195.9,548.988,195.9z"/>
					<g>
						<g>
							
								<polyline style="fill:none;stroke:#000000;stroke-width:0.3808;stroke-linecap:round;stroke-linejoin:round;stroke-miterlimit:10;" points="
								526.546,220.035 525.325,222.874 526.897,224.107 							"/>
						</g>
						<path d="M523.955,209.842c0,0,0.479,1.642-1.275,1.97c-1.331,0.249-2.177,0.382-2.921,0.755
							c-0.422,0.211-0.917,0.036-1.173-0.413l0,0c-0.206-0.362-0.216-0.83-0.015-1.19c0.408-0.731,1.284-1.865,2.901-2.193
							C523.549,208.347,523.955,209.842,523.955,209.842z"/>
						<path d="M531.851,209.557c0,0-0.572,1.648,1.894,1.954c1.872,0.233,4.115,1.003,5.174,1.366
							c0.602,0.206,1.282,0.025,1.612-0.427l0,0c0.266-0.365,0.253-0.832-0.05-1.191c-0.612-0.726-2.955-2.497-5.231-2.806
							C532.329,208.057,531.851,209.557,531.851,209.557z"/>
						<g>
							<g>
								<defs>
									<path id="XMLID_5_" d="M530.818,217.74c0,0,1.332-5.206,8.193-1.437C539.011,216.303,536.263,221.718,530.818,217.74z"/>
								</defs>
								<use xlink:href="#XMLID_5_"  style="overflow:visible;fill:#FFFFFF;"/>
								<clipPath id="XMLID_00000170984155270373204750000017963926687216751801_">
									<use xlink:href="#XMLID_5_"  style="overflow:visible;"/>
								</clipPath>
								<path style="clip-path:url(#XMLID_00000170984155270373204750000017963926687216751801_);" d="M532.16,217.013
									c-0.156,1.343,0.772,2.554,2.074,2.706c1.302,0.152,2.485-0.814,2.641-2.156c0.156-1.343-0.772-2.554-2.074-2.706
									C533.499,214.705,532.317,215.671,532.16,217.013z"/>
							</g>
							<g>
								<path d="M538.922,216.424c-0.634-0.441-1.345-0.766-2.091-0.971c-0.74-0.199-1.532-0.327-2.276-0.286
									c-0.757,0.057-1.507,0.262-2.113,0.671c-0.594,0.403-1.048,1.065-1.167,1.718l-0.006,0.033
									c-0.031,0.169-0.193,0.281-0.362,0.25c-0.169-0.031-0.281-0.193-0.25-0.362c0.001-0.004,0.002-0.008,0.002-0.012
									c0.202-0.904,0.768-1.605,1.488-2.074c0.729-0.453,1.568-0.64,2.384-0.672c0.838-0.016,1.627,0.142,2.406,0.374
									c0.774,0.238,1.511,0.602,2.163,1.087c0.067,0.05,0.081,0.144,0.031,0.211C539.083,216.458,538.988,216.471,538.922,216.424
									z"/>
							</g>
						</g>
						<g>
							<g>
								<defs>
									<path id="XMLID_4_" d="M525.167,217.709c0,0-2.051-5.153-5.799-1.579C519.368,216.13,520.85,221.193,525.167,217.709z"/>
								</defs>
								<use xlink:href="#XMLID_4_"  style="overflow:visible;fill:#FFFFFF;"/>
								<clipPath id="XMLID_00000070800445147653520870000011723632606211649937_">
									<use xlink:href="#XMLID_4_"  style="overflow:visible;"/>
								</clipPath>
								<path style="clip-path:url(#XMLID_00000070800445147653520870000011723632606211649937_);" d="M523.836,216.7
									c0.207,1.231-0.415,2.362-1.39,2.526c-0.975,0.164-1.933-0.701-2.14-1.933c-0.207-1.231,0.415-2.362,1.39-2.526
									C522.671,214.604,523.63,215.469,523.836,216.7z"/>
							</g>
							<g>
								<path d="M519.263,216.059c0.288-0.445,0.687-0.84,1.183-1.077c0.499-0.235,1.054-0.316,1.621-0.2l-0.025-0.005
									c0.717,0.094,1.413,0.401,1.959,0.878c0.552,0.476,0.98,1.053,1.285,1.735c0.059,0.132,0,0.288-0.133,0.347
									c-0.132,0.059-0.288,0-0.347-0.133c-0.001-0.003-0.002-0.005-0.003-0.008l-0.008-0.02c-0.233-0.578-0.617-1.15-1.091-1.583
									c-0.473-0.444-1.073-0.735-1.713-0.845l-0.025-0.005c-0.436-0.107-0.956-0.065-1.39,0.126
									c-0.442,0.191-0.816,0.528-1.102,0.933c-0.04,0.058-0.119,0.072-0.177,0.032
									C519.24,216.193,519.226,216.116,519.263,216.059z"/>
							</g>
						</g>
						
							<path style="fill:none;stroke:#000000;stroke-width:0.3808;stroke-linecap:round;stroke-linejoin:round;stroke-miterlimit:10;" d="
							M532.842,225.351c0,0-1.536,2.349-5.629,0.929"/>
					</g>
				</g>
			</g>
		</g>
		
			<line style="fill:none;stroke:#A0C0FC;stroke-width:2;stroke-linecap:round;stroke-linejoin:round;stroke-miterlimit:10;" x1="75.038" y1="459.097" x2="683.277" y2="459.097"/>
	</g>
</g>
</svg>
