<?xml version="1.0" encoding="utf-8"?>
<!-- Generator: Adobe Illustrator 27.5.0, SVG Export Plug-In . SVG Version: 6.00 Build 0)  -->
<svg version="1.1" xmlns="http://www.w3.org/2000/svg" xmlns:xlink="http://www.w3.org/1999/xlink" x="0px" y="0px"
	 viewBox="0 0 3710 3710" style="enable-background:new 0 0 3710 3710;" xml:space="preserve">
<g id="Illustration">
	<g>
		<linearGradient id="SVGID_1_" gradientUnits="userSpaceOnUse" x1="3404.7385" y1="3528.5837" x2="1417.7927" y2="1383.9436">
			<stop  offset="0" style="stop-color:#DAE3FE"/>
			<stop  offset="1" style="stop-color:#E9EFFD"/>
		</linearGradient>
		<path style="fill:url(#SVGID_1_);" d="M3127.845,2306.434c-273.021,638.154-993.708,912.257-1558.377,865.522
			c-154.178-12.76-464.387-38.435-706.601-267.489c-465.155-439.883-393.517-1359.36,51.77-1900.698
			c57.344-69.713,454.268-536.783,1072.801-530.531c452.856,4.578,770.712,260.39,809.361,292.259
			c48.825,40.259,156.514,135.929,253.568,287.702C3278.41,1409.814,3298.455,1907.651,3127.845,2306.434z"/>
		<g>
			<path style="fill:#BDD0FB;" d="M442.971,609.177c-3.639-10.829,11.247-19.649,21.51-12.808
				c104.215,69.46,358.968,282.836,339.495,699.279c-24.432,522.489,117.604,698.993,283.208,799.255
				c0,0-217.715-34.043-369.404-212.435C345.35,1444.475,507.673,801.719,442.971,609.177z"/>
			
				<linearGradient id="SVGID_00000078027371444878587830000013517172483955579314_" gradientUnits="userSpaceOnUse" x1="531.6563" y1="1411.3513" x2="1013.8496" y2="1411.3513">
				<stop  offset="0" style="stop-color:#DAE3FE"/>
				<stop  offset="1" style="stop-color:#E9EFFD"/>
			</linearGradient>
			<path style="fill:url(#SVGID_00000078027371444878587830000013517172483955579314_);" d="M531.774,763.333
				c17.497,56.271,33.693,112.841,47.459,169.901c14.112,56.978,26.211,114.348,36.215,172.011
				c9.747,57.698,18.236,115.574,23.863,173.744c5.929,58.138,8.959,116.5,11.764,175.112c3.182,58.555,6.002,117.568,15.82,176.345
				c9.735,58.663,27.75,117.071,57.653,170.604c7.471,13.34,15.256,26.607,23.879,39.324c8.35,12.867,17.371,25.402,26.652,37.785
				c18.711,24.689,39.381,48.3,62.023,70.427c45.425,44.158,98.775,82.106,156.528,113.041c6.079,3.256,14.191,1.555,18.12-3.799
				c3.858-5.256,2.246-12.081-3.568-15.409l-0.041-0.024c-13.79-7.874-27.454-15.878-40.643-24.392
				c-6.677-4.165-13.119-8.582-19.657-12.89c-6.335-4.522-12.882-8.827-19.043-13.518c-25.015-18.386-48.461-38.308-70.041-59.672
				c-43.361-42.492-79.43-90.99-108.102-142.085c-14.002-25.704-25.764-52.307-35.094-79.66
				c-9.307-27.361-16.179-55.442-21.194-83.927c-10.04-57.002-13.389-115.379-17.058-173.899
				c-3.757-58.527-7.999-117.307-15.032-175.778c-3.425-29.242-7.459-58.413-12.096-87.493c-2.221-14.553-4.769-29.058-7.286-43.566
				c-2.679-14.483-5.45-28.949-8.357-43.39c-11.754-57.743-25.549-115.098-41.43-171.947
				c-16.198-56.775-34.143-113.117-54.584-168.706c-0.585-1.589-2.559-2.432-4.411-1.882
				C532.314,760.125,531.295,761.783,531.774,763.333z"/>
		</g>
		<g>
			<g>
				<path style="fill:#91B3FA;" d="M939.963,1587.965c-8.078,15.4-29.259,17.544-40.435,4.221
					c-61.669-73.512-217.233-297.126-154.555-622.389c52.928-274.67,55.527-428.637,51.863-498.614
					c-0.775-14.797,17.791-21.983,27.202-10.538C927.871,586.917,1232.691,1029.946,939.963,1587.965z"/>
				<path style="fill:#BDD0FB;" d="M916.615,1584.917c-0.388,0.188-0.799,0.34-1.232,0.453c-3.626,0.954-7.339-1.212-8.294-4.837
					c-1.082-4.111-107.538-415.486-51.196-800.72c0.543-3.707,3.99-6.275,7.702-5.736c3.711,0.544,6.278,3.99,5.736,7.702
					c-55.932,382.43,49.815,791.215,50.889,795.298C921.062,1580.271,919.482,1583.532,916.615,1584.917z"/>
			</g>
		</g>
		<g>
			
				<linearGradient id="SVGID_00000096759969454078583460000012078761961996384927_" gradientUnits="userSpaceOnUse" x1="-944.9237" y1="2804.9827" x2="-380.1876" y2="1110.7695" gradientTransform="matrix(-1 0 0 1 1155.7772 0)">
				<stop  offset="0" style="stop-color:#09005D"/>
				<stop  offset="1" style="stop-color:#1A0F91"/>
			</linearGradient>
			<path style="fill:url(#SVGID_00000096759969454078583460000012078761961996384927_);" d="M642.506,2866.444
				c0,24.297,19.898,44.176,44.218,44.176h2391.143c24.32,0,44.218-19.879,44.218-44.176l19.896-1374.124
				c0-24.296-28.625-71.73-81.087-68.165l-2336.889-60.467c-30.515-0.789-60.019,10.955-81.627,32.494
				c-21.609,21.538-33.432,50.986-32.711,81.473L642.506,2866.444z"/>
			
				<linearGradient id="SVGID_00000075163975350021168600000011118955377431900813_" gradientUnits="userSpaceOnUse" x1="447.812" y1="436.6144" x2="4066.6826" y2="4856.6567">
				<stop  offset="0" style="stop-color:#FE7062"/>
				<stop  offset="1" style="stop-color:#FF928E"/>
			</linearGradient>
			<path style="fill:url(#SVGID_00000075163975350021168600000011118955377431900813_);" d="M686.161,2824.063
				c0,23.008,18.825,41.833,41.833,41.833h2292.209c23.008,0,41.833-18.826,41.833-41.833l18.776-1247.442
				c-2.211-75.068-68.025-102.048-107.92-100.455l-2239.696-60.087c-21.438-0.575-42.165,7.684-57.349,22.829
				c-15.184,15.145-23.534,35.871-22.997,57.31L686.161,2824.063z"/>
			<g>
				
					<linearGradient id="SVGID_00000036231611636678652860000002951397126076714684_" gradientUnits="userSpaceOnUse" x1="3416.7205" y1="1572.0428" x2="3732.4377" y2="1069.6116">
					<stop  offset="0" style="stop-color:#FEBBBA"/>
					<stop  offset="1" style="stop-color:#FF928E"/>
				</linearGradient>
				<path style="fill:url(#SVGID_00000036231611636678652860000002951397126076714684_);" d="M3037.268,2231.44
					c-0.031,0-0.061,0-0.092,0c-3.387-0.049-6.092-2.833-6.04-6.223l1.484-101.165c0.049-3.354,2.784-6.04,6.125-6.04
					c0.031,0,0.061,0,0.092,0c3.387,0.049,6.092,2.833,6.04,6.223l-1.484,101.165
					C3043.345,2228.754,3040.609,2231.44,3037.268,2231.44z"/>
				
					<linearGradient id="SVGID_00000178894460208498548750000001225815445948376227_" gradientUnits="userSpaceOnUse" x1="2930.9563" y1="1266.7988" x2="3246.6733" y2="764.368">
					<stop  offset="0" style="stop-color:#FEBBBA"/>
					<stop  offset="1" style="stop-color:#FF928E"/>
				</linearGradient>
				<path style="fill:url(#SVGID_00000178894460208498548750000001225815445948376227_);" d="M3040.909,1983.532
					c-0.031,0-0.061,0-0.092,0c-3.387-0.049-6.092-2.839-6.04-6.223l5.688-387.466c-0.107-23.015-7.092-41.391-20.766-54.493
					c-25.524-24.453-66.046-23.205-67.754-23.125l-715.856-19.197c-3.384-0.086-6.055-2.907-5.963-6.291
					c0.089-3.384,2.689-6.266,6.294-5.96l715.431,19.197c4.452-0.263,47.597-1.01,76.33,26.521
					c16.164,15.488,24.422,36.826,24.545,63.409l-5.691,387.589C3046.986,1980.846,3044.25,1983.532,3040.909,1983.532z"/>
			</g>
			
				<linearGradient id="SVGID_00000129903618534114488360000014599447821097899404_" gradientUnits="userSpaceOnUse" x1="1827.8323" y1="1755.314" x2="1861.8998" y2="3118.0098">
				<stop  offset="0" style="stop-color:#09005D"/>
				<stop  offset="1" style="stop-color:#1A0F91"/>
			</linearGradient>
			<path style="fill:url(#SVGID_00000129903618534114488360000014599447821097899404_);" d="M454.18,3024.688h2807.756
				c3.11,0,5.654-2.544,5.654-5.654v-109.428c0-3.11-2.544-5.654-5.654-5.654H454.18c-3.109,0-5.654,2.544-5.654,5.654v109.428
				C448.526,3022.144,451.07,3024.688,454.18,3024.688z"/>
		</g>
		<g>
			<g>
				
					<linearGradient id="SVGID_00000007393098747524416620000010223273272516610716_" gradientUnits="userSpaceOnUse" x1="3030.0823" y1="440.1588" x2="585.934" y2="3541.1694">
					<stop  offset="0" style="stop-color:#4042E2"/>
					<stop  offset="1" style="stop-color:#4F52FF"/>
				</linearGradient>
				<path style="fill:url(#SVGID_00000007393098747524416620000010223273272516610716_);" d="M1104.21,835.356h1652.849
					c45.067,0,81.37,51.674,80.553,114.659l-23.254,1792.407c-1.094,84.358-50.728,151.64-152.316,150.582l-1600.844-28.081
					c-2.885-0.774-38.35-51.003-38.324-112.675l0.769-1804.343C1023.67,885.735,1059.733,835.356,1104.21,835.356z"/>
				<path style="fill:#91B3FA;" d="M1140.661,883.895h1587.122c43.275,0,78.135,49.097,77.35,108.942l-22.329,1703.044
					c-1.051,80.153-48.711,144.08-106.666,143.074l-1537.186-26.681c-42.362-0.735-76.417-48.46-76.392-107.057l0.738-1714.384
					C1063.324,931.763,1097.953,883.895,1140.661,883.895z"/>
			</g>
			<g>
				<path style="fill:#7D97F4;" d="M2802.725,1139.023H1062.56V904.471c0-14.308,11.599-25.907,25.907-25.907h1689.809
					c13.503,0,24.449,10.946,24.449,24.449V1139.023z"/>
				<path style="fill:#BDD0FB;" d="M2608.866,1027.988l-902.797-8.562c-21.282-0.202-38.405-14.258-38.409-31.53l-0.006-30.1
					c-0.003-13.326,13.309-24.129,29.73-24.129h917.953c16.188,0,28.966,11.16,27.777,24.261l-4.335,47.771
					C2637.629,1018.374,2624.527,1028.136,2608.866,1027.988z"/>
				<path style="fill:#BDD0FB;" d="M2722.76,1294.678H1142.437c-10.485,0-18.984-8.467-18.984-18.911v-50.585
					c0-10.51,8.602-19.003,19.152-18.91l1580.323,13.919c10.419,0.092,18.816,8.531,18.816,18.91v36.666
					C2741.744,1286.211,2733.245,1294.678,2722.76,1294.678z"/>
				<path style="fill:#FFFFFF;" d="M1520.106,1020.974c-25.925,0-47.017-21.092-47.017-47.018c0-25.927,21.092-47.018,47.017-47.018
					c25.928,0,47.02,21.091,47.02,47.018C1567.126,999.883,1546.035,1020.974,1520.106,1020.974z M1520.106,933.727
					c-22.182,0-40.227,18.047-40.227,40.229s18.045,40.229,40.227,40.229c22.182,0,40.23-18.046,40.23-40.229
					S1542.289,933.727,1520.106,933.727z"/>
				<path style="fill:#FFFFFF;" d="M1369.12,1024.511c-25.928,0-47.02-21.091-47.02-47.018c0-25.927,21.092-47.018,47.02-47.018
					c25.929,0,47.02,21.092,47.02,47.018C1416.14,1003.42,1395.049,1024.511,1369.12,1024.511z M1369.12,937.264
					c-22.182,0-40.23,18.047-40.23,40.229c0,22.182,18.048,40.229,40.23,40.229s40.23-18.047,40.23-40.229
					C1409.351,955.311,1391.302,937.264,1369.12,937.264z"/>
				<path style="fill:#FFFFFF;" d="M1224.035,1024.511c-25.925,0-47.017-21.091-47.017-47.018c0-25.927,21.092-47.018,47.017-47.018
					c25.928,0,47.02,21.092,47.02,47.018C1271.055,1003.42,1249.964,1024.511,1224.035,1024.511z M1224.035,937.264
					c-22.182,0-40.227,18.047-40.227,40.229c0,22.182,18.045,40.229,40.227,40.229s40.23-18.047,40.23-40.229
					C1264.266,955.311,1246.218,937.264,1224.035,937.264z"/>
				<g>
					<path style="fill:#FFFFFF;" d="M2535.285,2298.557H1345.5c-2.485,0-4.5-2.015-4.5-4.5v-129.955c0-2.485,2.015-4.5,4.5-4.5
						h1189.785c2.485,0,4.5,2.015,4.5,4.5v129.955C2539.785,2296.542,2537.77,2298.557,2535.285,2298.557z"/>
					<path style="fill:#FFFFFF;" d="M2590.15,2319.323H1275.219c-4.174,0-7.558-3.384-7.558-7.558v-44.997
						c0-4.174,3.384-7.558,7.558-7.558H2590.15c4.174,0,7.558,3.384,7.558,7.558v44.997
						C2597.708,2315.94,2594.324,2319.323,2590.15,2319.323z"/>
					<path style="fill:#FFFFFF;" d="M2504.96,1629.52H1369.266c-17.072,0-21.549-23.595-5.665-29.85l567.847-223.582
						c3.64-1.433,7.689-1.433,11.329,0l567.847,223.582C2526.51,1605.925,2522.032,1629.52,2504.96,1629.52z"/>
					<g>
						<g>
							<g>
								<rect x="1406.821" y="1662.589" style="fill:#FFFFFF;" width="24.354" height="448.1"/>
								<rect x="1443.351" y="1662.589" style="fill:#FFFFFF;" width="24.353" height="448.1"/>
								<rect x="1479.881" y="1662.589" style="fill:#FFFFFF;" width="24.353" height="448.1"/>
							</g>
							<polygon style="fill:#FFFFFF;" points="1531.023,1638.236 1380.032,1638.236 1380.032,1644.792 1401.95,1655.283 
								1509.105,1655.283 1531.023,1644.792 							"/>
							<polygon style="fill:#FFFFFF;" points="1532.24,2149.655 1381.25,2149.655 1381.25,2126.051 1403.168,2115.56 
								1510.322,2115.56 1532.24,2126.051 							"/>
						</g>
						<g>
							<g>
								<rect x="1599.212" y="1662.589" style="fill:#FFFFFF;" width="24.353" height="448.1"/>
								<rect x="1635.742" y="1662.589" style="fill:#FFFFFF;" width="24.353" height="448.1"/>
								<rect x="1672.272" y="1662.589" style="fill:#FFFFFF;" width="24.353" height="448.1"/>
							</g>
							<polygon style="fill:#FFFFFF;" points="1723.413,1638.236 1572.423,1638.236 1572.423,1644.792 1594.341,1655.283 
								1701.495,1655.283 1723.413,1644.792 							"/>
							<polygon style="fill:#FFFFFF;" points="1724.631,2149.655 1573.641,2149.655 1573.641,2126.051 1595.559,2115.56 
								1702.713,2115.56 1724.631,2126.051 							"/>
						</g>
						<g>
							<g>
								<rect x="1791.602" y="1662.589" style="fill:#FFFFFF;" width="24.354" height="448.1"/>
								<rect x="1828.132" y="1662.589" style="fill:#FFFFFF;" width="24.354" height="448.1"/>
								<rect x="1864.662" y="1662.589" style="fill:#FFFFFF;" width="24.353" height="448.1"/>
							</g>
							<polygon style="fill:#FFFFFF;" points="1915.804,1638.236 1764.814,1638.236 1764.814,1644.792 1786.732,1655.283 
								1893.886,1655.283 1915.804,1644.792 							"/>
							<polygon style="fill:#FFFFFF;" points="1917.022,2149.655 1766.032,2149.655 1766.032,2126.051 1787.949,2115.56 
								1895.104,2115.56 1917.022,2126.051 							"/>
						</g>
						<g>
							<g>
								<rect x="1983.993" y="1662.589" style="fill:#FFFFFF;" width="24.353" height="448.1"/>
								<rect x="2020.523" y="1662.589" style="fill:#FFFFFF;" width="24.353" height="448.1"/>
								<rect x="2057.053" y="1662.589" style="fill:#FFFFFF;" width="24.353" height="448.1"/>
							</g>
							<polygon style="fill:#FFFFFF;" points="2108.195,1638.236 1957.205,1638.236 1957.205,1644.792 1979.123,1655.283 
								2086.277,1655.283 2108.195,1644.792 							"/>
							<polygon style="fill:#FFFFFF;" points="2109.413,2149.655 1958.422,2149.655 1958.422,2126.051 1980.34,2115.56 
								2087.495,2115.56 2109.413,2126.051 							"/>
						</g>
						<g>
							<g>
								<rect x="2176.384" y="1662.589" style="fill:#FFFFFF;" width="24.353" height="448.1"/>
								<rect x="2212.914" y="1662.589" style="fill:#FFFFFF;" width="24.354" height="448.1"/>
								<rect x="2249.444" y="1662.589" style="fill:#FFFFFF;" width="24.353" height="448.1"/>
							</g>
							<polygon style="fill:#FFFFFF;" points="2300.586,1638.236 2149.595,1638.236 2149.595,1644.792 2171.513,1655.283 
								2278.668,1655.283 2300.586,1644.792 							"/>
							<polygon style="fill:#FFFFFF;" points="2301.803,2149.655 2150.813,2149.655 2150.813,2126.051 2172.731,2115.56 
								2279.885,2115.56 2301.803,2126.051 							"/>
						</g>
						<g>
							<g>
								<rect x="2368.775" y="1662.589" style="fill:#FFFFFF;" width="24.353" height="448.1"/>
								<rect x="2405.305" y="1662.589" style="fill:#FFFFFF;" width="24.353" height="448.1"/>
								<rect x="2441.835" y="1662.589" style="fill:#FFFFFF;" width="24.353" height="448.1"/>
							</g>
							<polygon style="fill:#FFFFFF;" points="2492.977,1638.236 2341.987,1638.236 2341.987,1644.792 2363.904,1655.283 
								2471.059,1655.283 2492.977,1644.792 							"/>
							<polygon style="fill:#FFFFFF;" points="2494.194,2149.655 2343.204,2149.655 2343.204,2126.051 2365.122,2115.56 
								2472.276,2115.56 2494.194,2126.051 							"/>
						</g>
					</g>
					<path style="fill:#FFFFFF;" d="M2537.572,2185.875H1344.281c-1.816,0-3.287-1.472-3.287-3.287v-19.573
						c0-1.816,1.472-3.288,3.287-3.288h1193.292c1.816,0,3.287,1.472,3.287,3.288v19.573
						C2540.86,2184.403,2539.388,2185.875,2537.572,2185.875z"/>
				</g>
				<path style="fill:#FFFFFF;" d="M2398.624,2505.015H1171.317c-2.946,0-5.333-2.388-5.333-5.333v-68.545
					c0-2.946,2.388-5.333,5.333-5.333h1227.306c2.946,0,5.333,2.388,5.333,5.333v68.545
					C2403.957,2502.627,2401.569,2505.015,2398.624,2505.015z"/>
				<path style="fill:#FFFFFF;" d="M2085.51,2644.627h-912.631c-3.807,0-6.894-3.087-6.894-6.894v-65.424
					c0-3.808,3.087-6.894,6.894-6.894h912.631c3.808,0,6.894,3.087,6.894,6.894v65.424
					C2092.404,2641.54,2089.317,2644.627,2085.51,2644.627z"/>
			</g>
		</g>
		<g>
			
				<linearGradient id="SVGID_00000044857163804064063400000003039830128871532203_" gradientUnits="userSpaceOnUse" x1="439.3769" y1="2580.6558" x2="157.2323" y2="3029.1936" gradientTransform="matrix(-1 0 0 1 3049.4082 0)">
				<stop  offset="0" style="stop-color:#4042E2"/>
				<stop  offset="1" style="stop-color:#4F52FF"/>
			</linearGradient>
			<path style="fill:url(#SVGID_00000044857163804064063400000003039830128871532203_);" d="M3147.373,2401.867
				c0,0,106.519,59.007,115.332,158.874s0.733,514.373-212.864,616.394c-213.598,102.021-496.33,78.509-604.553,67.356
				s-168.229-84.704-181.633-135.345s-35.055-239.287,78.794-300.138c113.849-60.851,233.424-154.076,352.909-244.853
				C2814.841,2473.377,3019.611,2325.194,3147.373,2401.867z"/>
			<path style="fill:#91B3FA;" d="M2376.02,2843.435c0,0,28.749,1.521,32.274,60.668c0,0-66.664,59.761-156.715,73.985
				c-6.76,1.068,9.451-46.149,11.888-52.544C2275.064,2895.111,2311.584,2875.512,2376.02,2843.435z"/>
			
				<linearGradient id="SVGID_00000057826628427913341430000000200787430767619214_" gradientUnits="userSpaceOnUse" x1="541.0487" y1="2793.6609" x2="647.3913" y2="2393.1042" gradientTransform="matrix(-1 0 0 1 3049.4082 0)">
				<stop  offset="0" style="stop-color:#09005D"/>
				<stop  offset="1" style="stop-color:#1A0F91"/>
			</linearGradient>
			<path style="fill:url(#SVGID_00000057826628427913341430000000200787430767619214_);" d="M2699.796,2773.889h-28.862
				c-19.977,0-39.072-8.062-52.975-22.407c-47.79-49.313-167.231-165.394-261.643-197.382c-15.359-5.204-32.133,2.184-39.014,16.868
				c-19.708,42.051-47.36,139.915,18.121,288.031c7.255,16.411,27.838,23.385,42.759,13.417c4.243-2.835,7.31-6.577,9.199-11.226
				l-7.2-173.125c0,0,158.834,138.918,186.442,165.727C2594.231,2880.601,2734.565,2864.261,2699.796,2773.889z"/>
			<path style="fill:#91B3FA;" d="M2113.266,3205.655c25.423-22.277,65.931-47.275,124.408-54.442l19.776,12.096
				c0,0-12.611,18.602-35.649,38.25c-21.174,12.298-53.868,28.955-80.974,32.565
				C2114.475,3237.634,2110.588,3221.71,2113.266,3205.655z"/>
			
				<linearGradient id="SVGID_00000115509962517302783730000007481802685594929548_" gradientUnits="userSpaceOnUse" x1="934.8959" y1="3095.9258" x2="520.1182" y2="2757.1106" gradientTransform="matrix(-1 0 0 1 3049.4082 0)">
				<stop  offset="0" style="stop-color:#FE7062"/>
				<stop  offset="1" style="stop-color:#FF928E"/>
			</linearGradient>
			<path style="fill:url(#SVGID_00000115509962517302783730000007481802685594929548_);" d="M2263.468,2925.543
				c15.662,5.069,22.55,27.259,62.293,12.585c38.45-14.196,67.033-32.504,81.739-43.062c0.328,2.861,0.605,5.849,0.795,9.036
				c0,0-70.291,66.858-160.341,81.082c-6.76,1.068-12.118-5.681-9.681-12.076C2242.645,2961.633,2250.53,2944.227,2263.468,2925.543
				z"/>
			
				<linearGradient id="SVGID_00000105426305069267192530000016552256407359663748_" gradientUnits="userSpaceOnUse" x1="1047.4089" y1="3338.8591" x2="632.6323" y2="3000.0449" gradientTransform="matrix(-1 0 0 1 3049.4082 0)">
				<stop  offset="0" style="stop-color:#FE7062"/>
				<stop  offset="1" style="stop-color:#FF928E"/>
			</linearGradient>
			<path style="fill:url(#SVGID_00000105426305069267192530000016552256407359663748_);" d="M2094.114,3224.678
				c5.012-5.696,11.409-12.239,19.152-19.023c-2.678,16.055,1.209,31.979,27.562,28.469c27.105-3.61,59.8-20.267,80.974-32.565
				c-26.538,22.633-66.916,46.655-117.878,45.245C2092.604,3246.49,2086.634,3233.18,2094.114,3224.678z"/>
			
				<linearGradient id="SVGID_00000029764590603295739660000017581905966887129022_" gradientUnits="userSpaceOnUse" x1="843.5266" y1="2898.4446" x2="431.1608" y2="3053.9858" gradientTransform="matrix(-1 0 0 1 3049.4082 0)">
				<stop  offset="0" style="stop-color:#09005D"/>
				<stop  offset="1" style="stop-color:#1A0F91"/>
			</linearGradient>
			<path style="fill:url(#SVGID_00000029764590603295739660000017581905966887129022_);" d="M2697.576,2817.785l-284.103,3.076
				c0,0-162.244,134.233-191.672,338.917c0,0-4.885,15.054,24.442,17.629c0,0,98.091-64.066,162.051-177.333
				c78.424-138.883,233.792-76.366,233.792-76.366c51.05-36.805,123.186-44.3,177.53-56.562L2697.576,2817.785z"/>
			
				<linearGradient id="SVGID_00000169525760817147286250000005195024265716467606_" gradientUnits="userSpaceOnUse" x1="173.0739" y1="2438.8796" x2="387.5092" y2="3191.1924" gradientTransform="matrix(-1 0 0 1 3049.4082 0)">
				<stop  offset="0" style="stop-color:#FE7062"/>
				<stop  offset="1" style="stop-color:#FF928E"/>
			</linearGradient>
			<path style="fill:url(#SVGID_00000169525760817147286250000005195024265716467606_);" d="M2674.478,2815.281
				c0,0,34.779-94.541,42.254-186.402c0,0-25.444-21.867-41.347-31.301c-5.15-3.055-7.095-9.517-4.491-14.91
				c11.693-24.221,82.402-119.33,87.698-120.651c28.79-7.185,146.861-63.325,230.017,50.421
				c35.688,48.816-7.082,199.088-168.991,354.71l-33.402,6.389L2674.478,2815.281z"/>
			
				<linearGradient id="SVGID_00000028299456735508723810000015947797228229382294_" gradientUnits="userSpaceOnUse" x1="202.4821" y1="2479.6606" x2="212.3361" y2="2390.9746" gradientTransform="matrix(-1 0 0 1 3049.4082 0)">
				<stop  offset="0" style="stop-color:#FEBBBA"/>
				<stop  offset="1" style="stop-color:#FF928E"/>
			</linearGradient>
			<path style="fill:url(#SVGID_00000028299456735508723810000015947797228229382294_);" d="M2864.863,2381.768l21.143,70.515
				c0.969,3.231-0.228,6.729-3.011,8.635c-10.179,6.972-36.783,20.836-73.279,7.362c-4.174-1.541-7.034-5.439-7.396-9.874
				l-5.012-61.43L2864.863,2381.768z"/>
			<g>
				
					<linearGradient id="SVGID_00000056394094983407804330000003127318278256528824_" gradientUnits="userSpaceOnUse" x1="255.0401" y1="2402.3003" x2="211.607" y2="2259.0476" gradientTransform="matrix(-1 0 0 1 3049.4082 0)">
					<stop  offset="0" style="stop-color:#FEBBBA"/>
					<stop  offset="1" style="stop-color:#FF928E"/>
				</linearGradient>
				<path style="fill:url(#SVGID_00000056394094983407804330000003127318278256528824_);" d="M2741.061,2324.661
					c0,0,10.395,73.097,38.474,95.576c28.079,22.479,82.787,5.553,101.265-49.553l-36.817-94.221L2741.061,2324.661z"/>
				
					<linearGradient id="SVGID_00000178883906648736668840000002848038107911059599_" gradientUnits="userSpaceOnUse" x1="215.8462" y1="2139.2642" x2="256.2275" y2="2369.5867" gradientTransform="matrix(-1 0 0 1 3049.4082 0)">
					<stop  offset="0" style="stop-color:#09005D"/>
					<stop  offset="1" style="stop-color:#1A0F91"/>
				</linearGradient>
				<path style="fill:url(#SVGID_00000178883906648736668840000002848038107911059599_);" d="M2848.131,2337.434
					c-2.136,0.688-4.372-0.681-4.705-2.9c-1.013-6.748-3.544-20.102-8.666-29.197c0,0,2.679-9.591-24.237,4.897
					c-26.916,14.488-67.344,35.769-91.146,23.096c-23.206-12.355-46.712-74.537,14.618-63.016c2.333,0.438,4.479-1.421,4.304-3.789
					c-0.753-10.219,0.261-33.731,24.07-41.278c22.28-7.062,34.478,2.996,39.504,9.067c1.479,1.786,4.223,1.75,5.633-0.09
					c6.675-8.714,24.8-27.26,51.484-15.501c21.979,9.686,25.396,23.224,25.034,31.659c-0.117,2.733,2.656,4.585,5.141,3.441
					c6.731-3.1,17.558-4.711,27.929,8.284c14.338,17.965-6.151,33.544-12.298,37.628c-1.007,0.669-1.633,1.779-1.641,2.988
					c-0.058,9.343-1.512,50.096-21.938,73.084c-1.769,1.99-5.037,1.407-6.068-1.048l-15.727-37.471
					c-0.73-1.74-2.671-2.632-4.467-2.053L2848.131,2337.434z"/>
				
					<linearGradient id="SVGID_00000047747242824462647860000011113802595191469192_" gradientUnits="userSpaceOnUse" x1="210.0524" y1="2415.9402" x2="166.6193" y2="2272.6873" gradientTransform="matrix(-1 0 0 1 3049.4082 0)">
					<stop  offset="0" style="stop-color:#FEBBBA"/>
					<stop  offset="1" style="stop-color:#FF928E"/>
				</linearGradient>
				<path style="fill:url(#SVGID_00000047747242824462647860000011113802595191469192_);" d="M2847.799,2345.042
					c0,0,9.604-39.115,24.192-26.416c14.588,12.7-3.803,40.651-20.515,45.979L2847.799,2345.042z"/>
			</g>
			
				<linearGradient id="SVGID_00000131364988646115534950000000687400306910022296_" gradientUnits="userSpaceOnUse" x1="2714.4966" y1="2579.3152" x2="2735.3242" y2="2579.3152">
				<stop  offset="0" style="stop-color:#E1473D"/>
				<stop  offset="1" style="stop-color:#E9605A"/>
			</linearGradient>
			<path style="fill:url(#SVGID_00000131364988646115534950000000687400306910022296_);" d="M2716.731,2631.113
				c-1.232,0-2.23-0.996-2.233-2.228c-0.143-42.714,16.281-99.199,16.445-99.763c0.352-1.18,1.587-1.854,2.774-1.517
				c1.187,0.349,1.863,1.59,1.517,2.774c-0.164,0.562-16.409,56.437-16.269,98.495c0.006,1.232-0.992,2.237-2.228,2.24H2716.731z"/>
			
				<linearGradient id="SVGID_00000165914671484623377100000005218767150377622924_" gradientUnits="userSpaceOnUse" x1="2806.2566" y1="2602.2432" x2="2870.2378" y2="2602.2432">
				<stop  offset="0" style="stop-color:#E1473D"/>
				<stop  offset="1" style="stop-color:#E9605A"/>
			</linearGradient>
			<path style="fill:url(#SVGID_00000165914671484623377100000005218767150377622924_);" d="M2808.492,2651.828
				c-0.486,0-0.974-0.155-1.384-0.479c-0.971-0.765-1.135-2.17-0.37-3.138c0.44-0.558,44.222-56.218,59.186-94.137
				c0.452-1.15,1.757-1.708,2.898-1.259c1.15,0.452,1.712,1.751,1.259,2.898c-15.207,38.535-59.392,94.704-59.835,95.266
				C2809.806,2651.536,2809.15,2651.828,2808.492,2651.828z"/>
			
				<linearGradient id="SVGID_00000132070720851883311180000009176619212745752203_" gradientUnits="userSpaceOnUse" x1="2861.5894" y1="2683.4583" x2="2976.2561" y2="2683.4583">
				<stop  offset="0" style="stop-color:#E1473D"/>
				<stop  offset="1" style="stop-color:#E9605A"/>
			</linearGradient>
			<path style="fill:url(#SVGID_00000132070720851883311180000009176619212745752203_);" d="M2870.37,2737.75l-8.37-11.832
				c-0.713-1.008-0.473-2.4,0.534-3.114c1.005-0.722,2.401-0.474,3.114,0.534l6.276,8.87
				c61.611-27.395,99.724-101.071,100.106-101.818c0.558-1.102,1.906-1.542,3.004-0.977c1.102,0.562,1.539,1.906,0.977,3.004
				c-0.391,0.771-39.928,77.197-103.981,104.622L2870.37,2737.75z"/>
			
				<linearGradient id="SVGID_00000055665976694485557680000016825222300881367733_" gradientUnits="userSpaceOnUse" x1="2466.4082" y1="2650.501" x2="2738.0334" y2="2650.501">
				<stop  offset="0" style="stop-color:#FEBBBA"/>
				<stop  offset="1" style="stop-color:#FF928E"/>
			</linearGradient>
			<path style="fill:url(#SVGID_00000055665976694485557680000016825222300881367733_);" d="M2677.846,2588.091
				c0,0-46.661,134.387-137.597,32.103l-8.658-3.843l-65.182-44.555l7.263,25.799c4.017,14.266,14.368,25.893,28.074,31.533
				l8.587,3.533c16.34,33.962,51.355,85.43,105.274,95.191c80.922,14.651,122.428-94.683,122.428-94.683L2677.846,2588.091z"/>
			
				<linearGradient id="SVGID_00000049924019744088579310000000666759258739250071_" gradientUnits="userSpaceOnUse" x1="2428.0457" y1="2579.623" x2="2544.0728" y2="2579.623">
				<stop  offset="0" style="stop-color:#09005D"/>
				<stop  offset="1" style="stop-color:#1A0F91"/>
			</linearGradient>
			<path style="fill:url(#SVGID_00000049924019744088579310000000666759258739250071_);" d="M2433.902,2537.485l-4.573,6.263
				c-2.221,3.042-1.485,7.318,1.625,9.442l102.684,70.146c2.719,1.857,6.386,1.453,8.635-0.951c2.679-2.865,2.322-7.411-0.773-9.821
				l-98.111-76.409C2440.418,2533.841,2436.122,2534.444,2433.902,2537.485z"/>
			
				<linearGradient id="SVGID_00000049187656301341875400000013333559858020652459_" gradientUnits="userSpaceOnUse" x1="2723.1626" y1="2558.8301" x2="2645.6934" y2="2839.3232">
				<stop  offset="0" style="stop-color:#FEBBBA"/>
				<stop  offset="1" style="stop-color:#FF928E"/>
			</linearGradient>
			<path style="fill:url(#SVGID_00000049187656301341875400000013333559858020652459_);" d="M2526.6,2602.244
				c-1.293-1.131,79.347-40.602,109.708-36.988c29.568,3.519,64.349,25.613,96.781,51.796
				c29.198,23.573,59.231,38.784,87.412,37.607c0,0,48.216,52.439,37.531,84.067c0,0-53.54,12.649-99.248-32.484
				c-43.457-42.91-91.445-97.603-118.45-107.57c-2.263-0.835-4.747-0.537-6.782,0.758c-8.113,5.166-33.429,17.566-66.579-2.255
				C2566.972,2597.175,2540.004,2613.966,2526.6,2602.244z"/>
		</g>
	</g>
</g>
</svg>
