<?xml version="1.0" encoding="utf-8"?>
<!-- Generator: Adobe Illustrator 27.5.0, SVG Export Plug-In . SVG Version: 6.00 Build 0)  -->
<svg version="1.1" xmlns="http://www.w3.org/2000/svg" xmlns:xlink="http://www.w3.org/1999/xlink" x="0px" y="0px"
	 viewBox="0 0 750 500" style="enable-background:new 0 0 750 500;" xml:space="preserve">
<g id="OBJECTS">
	<path style="fill:#E8F1FB;" d="M122.001,75.05v240.353H387.91V75.05H122.001z M381.736,309.229H128.175V81.224h253.561V309.229z"/>
	<rect x="126.486" y="86.297" style="fill:#E8F1FB;" width="256.938" height="5.362"/>
	<rect x="126.486" y="97.807" style="fill:#E8F1FB;" width="256.938" height="5.362"/>
	<rect x="126.486" y="109.316" style="fill:#E8F1FB;" width="256.938" height="5.362"/>
	<g>
		<g>
			<g>
				<path style="fill:#AE6E60;" d="M434.512,273.793c0,0,0.789-5.515,1.766-10.99c0.977-5.474,5.586-18.328,3.044-20.072
					c-2.543-1.743-8.947,13.484-8.947,13.484s-8.433-27.657-11.859-27.965c-4.063-0.365,1.662,18.2,1.662,18.2
					s-9.79-18.653-12.652-18.252c-2.863,0.401,5.706,19.018,5.706,19.018s-12.401-17.896-14.989-17.375
					c-2.588,0.521,7.75,18.562,7.75,18.562s-10.369-14.786-12.821-13.497c-2.452,1.289,21.445,45.303,21.445,45.303L434.512,273.793
					z"/>
				<g>
					<path style="fill:#122030;" d="M424.392,269.05c-0.354,0-0.689-0.21-0.832-0.557c-2.024-4.906-6.495-8.699-11.665-9.898
						c-0.484-0.112-0.786-0.596-0.674-1.08c0.112-0.484,0.596-0.787,1.08-0.674c5.728,1.329,10.68,5.53,12.923,10.965
						c0.189,0.46-0.029,0.986-0.488,1.176C424.623,269.027,424.506,269.05,424.392,269.05z"/>
				</g>
				<path style="fill:#7FC89B;" d="M544.174,268.338c0,0-28.461,1.795-35.43,4.56c-9.517,3.775-41.539,82.9-41.539,82.9
					l-24.812-86.991l-37.915,11.102c0,0,24.252,98.317,37.248,111.744c12.558,12.975,31.877,9.228,38.273,5.864
					c8.372-4.403,17.873-17.744,17.873-17.744l-3.903,21.108c0,0,124.219,0,136.546,0s16.985-13.023,14.935-30.865
					c-2.05-17.842-24.353-79.988-27.42-83.066s-25.896-13.883-25.896-13.883L544.174,268.338z"/>
				<g>
					<g>
						<path style="fill:#57A17F;" d="M526.155,372.968c-0.497,0-0.9-0.403-0.9-0.9v-6.827c0-0.478,0.374-0.872,0.851-0.898
							l82.772-4.571c0.488-0.027,0.921,0.352,0.948,0.849c0.027,0.496-0.353,0.921-0.849,0.948l-81.922,4.524v5.976
							C527.056,372.565,526.652,372.968,526.155,372.968z"/>
					</g>
					<g>
						<path style="fill:#57A17F;" d="M497.888,374.957c-0.052,0-0.104-0.005-0.156-0.014c-0.49-0.086-0.817-0.553-0.731-1.042
							l14.644-83.45c0.086-0.49,0.549-0.816,1.042-0.732c0.49,0.086,0.817,0.553,0.732,1.042l-14.644,83.45
							C498.696,374.649,498.316,374.957,497.888,374.957z"/>
					</g>
					<g>
						<path style="fill:#57A17F;" d="M604.367,361.862c-0.403,0-0.771-0.273-0.872-0.684l-9.216-37.074
							c-0.12-0.482,0.174-0.971,0.656-1.09c0.477-0.121,0.97,0.173,1.09,0.656l9.216,37.074c0.12,0.482-0.174,0.971-0.656,1.09
							C604.513,361.853,604.44,361.862,604.367,361.862z"/>
					</g>
				</g>
				<g>
					<path style="fill:#7FC89B;" d="M577.832,267.507l14.3,5.56c0,0-23.778,17.557-35.719,13.952
						c-11.941-3.605-12.239-18.681-12.239-18.681l9.405-0.904L577.832,267.507z"/>
				</g>
				<circle style="fill:#F75244;" cx="541.576" cy="223.501" r="14.669"/>
				<path style="fill:#122030;" d="M537.25,216.368c0,0-16.308-23.47,0.448-39.946c16.757-16.476,46.021-1.258,46.021-1.258
					s17.959-5.567,20.649,11.244c0,0,9.231,1.562,10.427,14.844c1.196,13.282-23.815,35.316-23.815,35.316L537.25,216.368z"/>
				<path style="fill:#FAFAFC;" d="M555.99,261.634c0,0-8.59,4.888-13.792,14.638c-4.765,8.933-8.443,21.818,14.998,11.482
					c0,0,7.47,14.917,16.749,8.943c9.279-5.974,19.251-31.214,7.995-35.178C570.684,257.555,555.99,261.634,555.99,261.634z"/>
				<g>
					<g>
						<path style="fill:#AE6E60;" d="M579.347,275.569l11.824-37.259c0,0,14.289,7.096,17.06-4.974
							c2.469-10.754-9.273-13.13-15.637-8.755c0,0,15.206-36.692-17.309-44.007c-32.516-7.316-38.713,37.717-40.261,48.609
							c-2.729,19.183,9.856,30.202,19.698,32.458l-2.304,11.679c0,0-2.135,10.207,7.501,11.859
							C572.763,287.38,579.347,275.569,579.347,275.569z"/>
					</g>
				</g>
				<g>
					<path style="fill:#122030;" d="M557.877,231.26c-0.076,0-0.152-0.009-0.228-0.03c-1.425-0.369-2.6-1.28-3.313-2.566
						c-0.711-1.286-0.861-2.765-0.419-4.167l2.557-8.117c0.15-0.482,0.664-0.747,1.144-0.597c0.483,0.152,0.749,0.665,0.597,1.146
						l-2.557,8.117c-0.29,0.919-0.19,1.89,0.276,2.733c0.466,0.843,1.239,1.441,2.172,1.684c0.49,0.126,0.782,0.624,0.656,1.113
						C558.654,230.988,558.284,231.26,557.877,231.26z"/>
				</g>
				<g>
					<path style="fill:#122030;" d="M546.733,210.215c-2.866-3.544,9.031-4.995,9.158-2.701
						C556.018,209.809,548.42,212.302,546.733,210.215z"/>
				</g>
				<g>
					<g>
						<path style="fill:#122030;" d="M570.809,219.894c0.022,1.969-1.556,3.584-3.526,3.606c-1.969,0.022-3.584-1.556-3.606-3.526
							c-0.022-1.969,1.557-3.584,3.526-3.606C569.172,216.346,570.786,217.925,570.809,219.894z"/>
					</g>
				</g>
				<g>
					<g>
						<path style="fill:#122030;" d="M553.667,217.788c0.022,1.969-1.556,3.583-3.526,3.606c-1.969,0.022-3.584-1.556-3.606-3.526
							c-0.022-1.969,1.557-3.584,3.526-3.606C552.03,214.24,553.644,215.818,553.667,217.788z"/>
					</g>
				</g>
				<g>
					<path style="fill:#122030;" d="M594.333,233.572c-0.064,0-0.128-0.007-0.195-0.021c-0.492-0.107-0.804-0.593-0.697-1.086
						c0.473-2.179,2.043-4.072,4.096-4.941c2.055-0.873,4.5-0.68,6.398,0.489c0.428,0.265,0.561,0.828,0.297,1.257
						c-0.266,0.432-0.83,0.561-1.258,0.296c-1.401-0.865-3.209-1.001-4.724-0.36c-1.515,0.642-2.676,2.04-3.026,3.648
						C595.132,233.281,594.754,233.572,594.333,233.572z"/>
				</g>
				<g>
					<path style="fill:#122030;" d="M554.39,260.26c11.694,2.033,20.79-6.825,20.79-6.825s-5.711,11.39-20.79,10.32V260.26z"/>
				</g>
				<g>
					<path style="fill:#F7969D;" d="M568.572,232.224c0.242,1.42,1.59,2.375,3.01,2.132c1.42-0.243,2.375-1.59,2.132-3.01
						c-0.242-1.42-1.59-2.375-3.01-2.132C569.284,229.456,568.329,230.804,568.572,232.224z"/>
				</g>
				<g>
					<path style="fill:#F7969D;" d="M538.07,228.664c0.243,1.42,1.59,2.375,3.01,2.132c1.42-0.243,2.375-1.59,2.132-3.01
						c-0.243-1.42-1.591-2.375-3.011-2.132C538.782,225.896,537.828,227.244,538.07,228.664z"/>
				</g>
				<g>
					<path style="fill:#122030;" d="M537.25,216.368c0,0,2.702-13.603,14.736-20.841c0,0,6.768,10.884,31.733,24.407
						c0,0-4.332,17.268-2.107,17.616c2.225,0.349,6.278-6.569,10.982-12.969c4.704-6.4,10.89-11.868,10.89-11.868l-12.615-30.25
						l-9.787-4.984l-12.335-2.314l-11.709,3.214l-9.568,4.485l-8.75,12.172l-3.265,10.383L537.25,216.368z"/>
				</g>
			</g>
		</g>
	</g>
	<path style="fill:#AE6E60;" d="M526.199,375.985l-13.105,2.819c0,0-14.105,1.01-18.175,2.565c-4.07,1.555-15.406,11.5-15.406,11.5
		s-7.516,0.71-4.088,8.012h51.482L526.199,375.985z"/>
	<g>
		<circle style="fill:#E8F1FB;" cx="274.098" cy="242.986" r="12.947"/>
		<circle style="fill:#E8F1FB;" cx="293.516" cy="266.871" r="6.026"/>
		<circle style="fill:#E8F1FB;" cx="634.901" cy="181.589" r="11.017"/>
		
			<ellipse transform="matrix(0.9249 -0.3802 0.3802 0.9249 -58.3314 214.0142)" style="fill:#E8F1FB;" cx="512.531" cy="254.651" rx="10.506" ry="10.506"/>
		
			<ellipse transform="matrix(0.5262 -0.8504 0.8504 0.5262 77.3955 658.4812)" style="fill:#E8F1FB;" cx="629.611" cy="259.787" rx="9.926" ry="9.926"/>
		<path style="fill:#E8F1FB;" d="M647.897,306.623h-9.259c-3.265,0-5.922-2.656-5.922-5.922v-9.259c0-3.265,2.656-5.922,5.922-5.922
			h9.259c3.265,0,5.922,2.656,5.922,5.922v9.259C653.818,303.967,651.162,306.623,647.897,306.623z M638.638,287.459
			c-2.197,0-3.984,1.787-3.984,3.984v9.259c0,2.197,1.787,3.984,3.984,3.984h9.259c2.197,0,3.984-1.787,3.984-3.984v-9.259
			c0-2.197-1.787-3.984-3.984-3.984H638.638z M643.267,301.455c-2.968,0-5.383-2.415-5.383-5.383c0-2.968,2.415-5.383,5.383-5.383
			s5.383,2.415,5.383,5.383C648.651,299.04,646.236,301.455,643.267,301.455z M643.267,292.626c-1.9,0-3.445,1.546-3.445,3.445
			c0,1.9,1.545,3.445,3.445,3.445s3.445-1.546,3.445-3.445C646.713,294.172,645.167,292.626,643.267,292.626z M648.866,289.074
			c-0.714,0-1.292,0.578-1.292,1.292c0,0.714,0.578,1.292,1.292,1.292s1.292-0.578,1.292-1.292
			C650.158,289.652,649.579,289.074,648.866,289.074z"/>
		<path style="fill:#E8F1FB;" d="M428.273,132.732c-0.102,0-0.203,0-0.304,0c-0.092-0.039-0.189-0.01-0.283-0.017
			c-0.418-0.012-0.834-0.045-1.25-0.091c-0.527-0.058-1.047-0.151-1.563-0.268c-0.794-0.18-1.567-0.431-2.318-0.744
			c-0.639-0.267-1.255-0.579-1.848-0.936c-0.111-0.067-0.233-0.122-0.325-0.227c1.332,0.157,2.639,0.028,3.923-0.329
			c1.28-0.356,2.446-0.944,3.507-1.77c-2.825-0.145-4.344-2.215-4.696-3.544c0.186,0.024,0.37,0.057,0.556,0.07
			c0.188,0.013,0.377,0.004,0.565,0.007c0.189,0.003,0.375-0.023,0.56-0.05c0.181-0.026,0.361-0.059,0.549-0.118
			c-0.031-0.012-0.047-0.021-0.065-0.025c-0.529-0.112-1.019-0.321-1.485-0.591c-0.479-0.277-0.89-0.638-1.251-1.052
			c-0.357-0.409-0.637-0.871-0.843-1.375c-0.249-0.611-0.381-1.246-0.386-1.907c-0.001-0.097,0.032-0.092,0.097-0.056
			c0.218,0.121,0.448,0.215,0.681,0.302c0.339,0.127,0.692,0.2,1.048,0.253c0.136,0.02,0.28,0.052,0.436,0.015
			c-0.029-0.022-0.046-0.035-0.063-0.047c-0.342-0.233-0.642-0.516-0.913-0.825c-0.358-0.409-0.638-0.869-0.85-1.371
			c-0.229-0.541-0.354-1.106-0.388-1.689c-0.021-0.363-0.003-0.728,0.059-1.089c0.1-0.587,0.293-1.14,0.578-1.662
			c0.044-0.08,0.07-0.067,0.118-0.007c0.338,0.412,0.7,0.802,1.083,1.174c0.967,0.94,2.044,1.731,3.231,2.37
			c0.782,0.421,1.598,0.765,2.446,1.035c0.67,0.213,1.353,0.375,2.046,0.491c0.494,0.082,0.991,0.139,1.492,0.161
			c0.086,0.004,0.102-0.015,0.084-0.101c-0.133-0.621-0.145-1.249-0.044-1.874c0.093-0.573,0.276-1.119,0.564-1.627
			c0.293-0.519,0.653-0.983,1.106-1.374c0.381-0.329,0.796-0.601,1.254-0.811c0.639-0.292,1.31-0.433,2.009-0.447
			c0.395-0.008,0.784,0.036,1.171,0.117c0.436,0.091,0.851,0.242,1.245,0.444c0.499,0.256,0.949,0.583,1.334,0.995
			c0.033,0.035,0.064,0.044,0.115,0.034c0.242-0.051,0.483-0.11,0.721-0.177c0.714-0.201,1.397-0.479,2.051-0.829
			c0.124-0.066,0.247-0.135,0.37-0.202c0.019,0.03,0.003,0.045-0.002,0.061c-0.232,0.701-0.608,1.315-1.107,1.857
			c-0.292,0.317-0.631,0.576-0.985,0.82c-0.015,0.012-0.03,0.025-0.046,0.037c0.014,0.015,0.03,0.01,0.047,0.006
			c0.168-0.025,0.336-0.044,0.502-0.075c0.727-0.136,1.434-0.34,2.115-0.631c0.047-0.02,0.095-0.061,0.167-0.041
			c-0.053,0.076-0.099,0.145-0.147,0.212c-0.64,0.899-1.403,1.676-2.29,2.332c-0.048,0.035-0.085,0.064-0.081,0.138
			c0.037,0.652,0.011,1.304-0.055,1.953c-0.127,1.245-0.409,2.455-0.843,3.63c-0.723,1.96-1.793,3.705-3.242,5.212
			c-1.151,1.198-2.477,2.158-3.979,2.872c-1.342,0.638-2.753,1.042-4.224,1.237c-0.546,0.072-1.095,0.112-1.645,0.133
			C428.476,132.721,428.373,132.694,428.273,132.732z"/>
		<path style="fill:#E8F1FB;" d="M474.8,276.812h2.629v-3.716l-3.486-0.093c-2.733-0.073-4.988,2.122-4.988,4.856v3.553h-3.512
			v4.124h3.512v10.536h4.26v-10.536h3.557l0.544-4.124h-4.101v-3.014C473.215,277.522,473.925,276.812,474.8,276.812z"/>
		<path style="fill:#E8F1FB;" d="M100.832,217.601h-6.517l0.831-4.273c0.172-0.882-0.245-1.774-1.031-2.208
			c-0.961-0.531-2.171-0.224-2.754,0.707c-1.274,2.034-3.236,4.114-3.236,5.774v0h-5.489c-0.73,0-1.322,0.592-1.322,1.322v11.356
			c0,0.73,0.592,1.322,1.322,1.322h16.952c1.302,0,2.405-0.958,2.588-2.246l1.245-8.773
			C103.643,219.008,102.421,217.601,100.832,217.601z"/>
	</g>
	<path style="fill:#122030;" d="M561.513,394.311h-60.86l7.311,6.57h50.021c1.948,0,3.528-1.58,3.528-3.528V394.311z"/>
	<path style="fill:#122030;" d="M507.965,400.881h-130.6l-22.291-72.652c-0.87-2.835,1.25-5.704,4.216-5.704h119.418
		c3.1,0,5.837,2.023,6.746,4.986L507.965,400.881z"/>
	<g>
		<g>
			<g>
				<path style="fill:#2356A7;" d="M472.416,241.724l-38.074-38.074c-1.033-1.033-1.033-2.709,0-3.742l13.965-13.965
					c1.033-1.033,2.709-1.033,3.742,0l38.074,38.074L472.416,241.724z"/>
				<path style="fill:#0095F5;" d="M480.509,249.817l-8.093-8.093l17.707-17.708l8.093,8.093c2.067,2.067,2.067,5.417,0,7.484
					l-10.223,10.223C485.926,251.884,482.575,251.884,480.509,249.817z"/>
			</g>
			<path style="fill:#122030;" d="M489.497,235.707l6.303,6.303l1.847-1.847l-6.303-6.303c-0.51-0.51-1.337-0.51-1.847,0l0,0
				C488.987,234.37,488.987,235.197,489.497,235.707z"/>
			<path style="fill:#122030;" d="M482.314,242.891l6.303,6.303l1.847-1.847l-6.303-6.303c-0.51-0.51-1.337-0.51-1.847,0l0,0
				C481.803,241.553,481.803,242.38,482.314,242.891z"/>
			<path style="fill:#122030;" d="M485.878,239.326l6.303,6.303l1.847-1.847l-6.303-6.303c-0.51-0.51-1.337-0.51-1.847,0l0,0
				C485.368,237.989,485.368,238.816,485.878,239.326z"/>
			
				<rect x="438.314" y="185.332" transform="matrix(0.7071 0.7071 -0.7071 0.7071 264.4331 -255.0406)" style="fill:#122030;" width="3.527" height="12.694"/>
		</g>
		<g>
			<path style="fill:#122030;" d="M479.017,104.562c-0.93-13.514-17.967-23.289-18.139-23.386l1.967-3.482
				c0.779,0.44,19.087,10.955,20.162,26.594L479.017,104.562z"/>
		</g>
		<path style="fill:#122030;" d="M455.92,189.814v24.43c0,2.45,1.986,4.436,4.436,4.436c2.45,0,4.436-1.986,4.436-4.436v-15.559
			L455.92,189.814z"/>
		<path style="fill:#BDD8F3;" d="M461.492,217.631L461.492,217.631c-2.45,0-4.436-1.986-4.436-4.436V57.222h8.871v155.974
			C465.928,215.645,463.942,217.631,461.492,217.631z"/>
		<g>
			<path style="fill:#122030;" d="M437.495,191.768c-5.977-5.976-9.058-13.211-8.677-20.374c0.411-7.729,4.675-14.921,12.673-21.378
				c1.065-0.86,2.148-1.729,3.241-2.607c16.537-13.279,35.281-28.329,34.284-42.847l3.99-0.274
				c1.141,16.603-18.469,32.348-35.77,46.24c-1.091,0.876-2.171,1.743-3.233,2.601c-7.077,5.713-10.843,11.93-11.19,18.478
				c-0.32,6.015,2.348,12.17,7.511,17.333L437.495,191.768z"/>
		</g>
	</g>
	<g>
		<circle style="fill:#F75244;" cx="211.047" cy="205.617" r="14.669"/>
		<path style="fill:#122030;" d="M133.443,277.84c2.969-10.479,2.965-21.602,1.686-32.418c-1.279-10.816-3.801-21.441-5.814-32.145
			c-0.669-3.56-1.283-7.226-0.593-10.782c0.69-3.556,2.959-7.026,6.409-8.13c-1.133-12.245,4.036-24.688,13.782-32.189
			c9.745-7.501,23.397-9.598,34.944-5.367c8.893-2.153,18.397-0.323,25.634,5.275s11.738,14.581,11.889,23.73
			c0.168,10.209-4.721,20.566-1.785,30.346c3.466,11.542,16.246,17.423,23.03,27.383c6.367,9.347,6.718,22.428,0.862,32.103
			L133.443,277.84z"/>
		<path style="fill:#F7969D;" d="M238.796,372.068l13.758,3.263c0,0,14.808,1.169,19.081,2.968
			c4.273,1.799,16.174,13.309,16.174,13.309s7.891,0.822,4.292,9.273h-54.048L238.796,372.068z"/>
		<path style="fill:#F7969D;" d="M328.99,248.983c0,0-0.887-6.194-1.984-12.342c-1.097-6.148-6.273-20.583-3.418-22.54
			c2.855-1.958,10.048,15.142,10.048,15.142s9.471-31.059,13.318-31.404c4.563-0.41-1.866,20.439-1.866,20.439
			s10.994-20.947,14.209-20.497c3.215,0.45-6.408,21.358-6.408,21.358s13.926-20.097,16.833-19.512
			c2.907,0.585-8.704,20.845-8.704,20.845s11.645-16.604,14.398-15.157c2.753,1.447-24.083,50.875-24.083,50.875L328.99,248.983z"/>
		<g>
			<path style="fill:#D65258;" d="M340.355,243.545c-0.114,0-0.231-0.022-0.343-0.068c-0.459-0.19-0.678-0.716-0.489-1.175
				c2.506-6.07,8.038-10.764,14.435-12.249c0.482-0.116,0.968,0.189,1.08,0.673c0.113,0.484-0.189,0.968-0.673,1.08
				c-5.84,1.356-10.89,5.641-13.178,11.182C341.044,243.335,340.708,243.545,340.355,243.545z"/>
		</g>
		<path style="fill:#2356A7;" d="M155.956,260.416c-9.039,3.961-36.439,18.401-40.724,25.287
			c-4.285,6.886-26.874,69.064-29.91,97.706c-1.293,12.194,3.255,17.472,13.02,17.472c8.764,0,139.71,0,139.71,0l3.531-35.139
			c0,0,16.002-9.473,10.436-31.105c0,0,49.665,43.435,66.075,40.713c16.41-2.721,21.668-19.945,26.926-44.384
			c5.258-24.439,16.062-74.153,16.062-74.153l-38.059-12.269l-19.786,71.018c0,0-54.768-50.918-58.669-54.109
			c-3.901-3.191-38.312-5.997-38.312-5.997L155.956,260.416z"/>
		<g>
			<path style="fill:#F7969D;" d="M168.61,252.108l-12.653,8.308c0,0,24.939,18.414,37.464,14.634
				c12.525-3.781,12.836-19.594,12.836-19.594l-9.864-0.948L168.61,252.108z"/>
		</g>
		<g>
			<g>
				<path style="fill:#F7969D;" d="M169.365,263.04l-12.401-39.078c0,0-14.987,7.442-17.893-5.216
					c-2.589-11.279,9.726-13.771,16.4-9.182c0,0-15.949-38.483,18.155-46.156c34.104-7.673,40.603,39.559,42.227,50.982
					c2.862,20.12-10.337,31.677-20.66,34.043l2.417,12.25c0,0,2.239,10.705-7.868,12.438
					C176.271,275.429,169.365,263.04,169.365,263.04z"/>
			</g>
		</g>
		<g>
			<path style="fill:#122030;" d="M202.649,194.829c2.387-2.951-7.521-4.16-7.627-2.249
				C194.916,194.491,201.244,196.568,202.649,194.829z"/>
		</g>
		<g>
			<g>
				<path style="fill:#122030;" d="M179.188,206.177c-0.023,2.065,1.632,3.759,3.698,3.782c2.065,0.023,3.759-1.632,3.782-3.698
					c0.023-2.065-1.633-3.759-3.698-3.782C180.905,202.456,179.212,204.112,179.188,206.177z"/>
			</g>
		</g>
		<g>
			<g>
				<path style="fill:#122030;" d="M197.407,203.592c-0.023,2.065,1.632,3.758,3.698,3.782c2.066,0.023,3.759-1.632,3.782-3.698
					c0.023-2.065-1.633-3.759-3.698-3.782C199.124,199.871,197.43,201.526,197.407,203.592z"/>
			</g>
		</g>
		<g>
			<path style="fill:#122030;" d="M153.649,218.893c0.06,0,0.121-0.007,0.183-0.02c0.463-0.101,0.756-0.559,0.655-1.022
				c-0.49-2.252-2.116-4.209-4.238-5.111c-2.125-0.901-4.659-0.707-6.62,0.506c-0.403,0.251-0.528,0.781-0.28,1.183
				c0.253,0.403,0.781,0.523,1.183,0.28c1.496-0.928,3.426-1.076,5.046-0.389c1.619,0.689,2.856,2.181,3.232,3.898
				C152.897,218.618,153.253,218.893,153.649,218.893z"/>
		</g>
		<g>
			<path style="fill:#D65258;" d="M195.193,248.432c-12.265,2.132-20.884-2.522-20.884-2.522s5.417,5.862,21.233,4.74
				L195.193,248.432z"/>
		</g>
		<g>
			<path style="fill:#F75244;" d="M178.281,216.695c-0.254,1.49-1.668,2.491-3.157,2.236c-1.489-0.254-2.491-1.668-2.236-3.157
				c0.254-1.49,1.668-2.491,3.157-2.236C177.534,213.792,178.536,215.205,178.281,216.695z"/>
		</g>
		<g>
			<path style="fill:#F75244;" d="M211.008,214.715c-0.255,1.489-1.668,2.491-3.158,2.236c-1.489-0.254-2.491-1.668-2.236-3.158
				c0.255-1.489,1.668-2.491,3.158-2.236C210.261,211.812,211.262,213.225,211.008,214.715z"/>
		</g>
		<path style="fill:#122030;" d="M211.978,178.575l-9.178-12.767l-10.036-4.704l-12.281-3.371l-23.203,7.655l-13.231,31.727
			c0,0,6.488,5.736,11.422,12.448c4.934,6.712,9.185,13.968,11.519,13.602c2.333-0.366-1.289-13.99-1.289-13.99
			c26.184-14.183,32.361-30.085,32.361-30.085c4.958,12.152,15.587,21.942,15.587,21.942l1.753-11.567L211.978,178.575z"/>
		<path style="fill:#FFFFFF;" d="M200.423,221.626c-6.489,1.291-13.582-1.08-17.992-6.012c-1.16,2.715-0.13,6.578,1.969,8.655
			c2.099,2.077,5.422,2.896,8.343,2.469C195.664,226.31,197.767,225.214,200.423,221.626z"/>
		<path style="fill:#122030;" d="M131.561,179.477c-5.279-4.979-12.534-8.712-19.961-7.746c-6.485,0.844-12.046,6.288-13.817,12.468
			c-2.089,7.292,0.96,15.601,7.226,19.857c5.275,3.583,12.058,4.557,18.337,3.443c6.279-1.114,12.087-4.178,17.154-8.048
			l0.791-4.415C139.478,189.119,136.059,183.719,131.561,179.477z"/>
		<g>
			<path style="fill:#122030;" d="M197.429,215.003c-0.169,0-0.341-0.048-0.493-0.148c-0.416-0.273-0.531-0.831-0.258-1.246
				c0.555-0.845,0.773-1.538,0.582-1.853c-0.319-0.527-1.862-0.682-2.809-0.59c-0.453,0.04-0.853-0.244-0.961-0.675l-2.43-9.623
				c-0.122-0.482,0.17-0.971,0.652-1.093c0.482-0.121,0.971,0.17,1.093,0.652l2.251,8.91c0.007-0.001,0.015-0.001,0.022-0.001
				c1.112,0,2.949,0.208,3.723,1.486c0.592,0.979,0.384,2.248-0.618,3.773C198.009,214.861,197.722,215.003,197.429,215.003z"/>
		</g>
		<g>
			<path style="fill:#122030;" d="M236.587,365.915c-0.021,0-0.042-0.001-0.062-0.003l-97.867-6.679
				c-0.266-0.018-0.51-0.152-0.667-0.368c-0.157-0.216-0.21-0.489-0.145-0.748c2.538-10.118,4.617-18.693,7.736-32.584
				c1.939-8.639,1.727-16.203-0.67-23.805c-2.603-8.257-8.589-14.511-15.622-16.321c-0.481-0.123-0.771-0.614-0.647-1.096
				c0.124-0.481,0.612-0.768,1.096-0.647c7.63,1.965,14.102,8.679,16.891,17.523c2.496,7.917,2.721,15.778,0.709,24.74
				c-3.015,13.429-5.06,21.896-7.485,31.584l96.794,6.605c0.496,0.033,0.87,0.463,0.836,0.959
				C237.452,365.551,237.056,365.915,236.587,365.915z"/>
		</g>
		<g>
			<path style="fill:#122030;" d="M250.658,330.079c-0.407,0-0.776-0.278-0.874-0.692c-2.32-9.758-10.757-29.458-10.842-29.655
				c-0.196-0.457,0.015-0.986,0.472-1.183c0.457-0.197,0.985,0.015,1.182,0.472c0.349,0.814,8.583,20.042,10.939,29.95
				c0.115,0.483-0.184,0.969-0.668,1.084C250.797,330.071,250.727,330.079,250.658,330.079z"/>
		</g>
		
			<ellipse transform="matrix(0.2283 -0.9736 0.9736 0.2283 -95.1772 310.6909)" style="fill:#F75244;" cx="148.402" cy="215.385" rx="14.669" ry="14.669"/>
		<path style="fill:#F75244;" d="M144.231,206.518c0,0,0-49.135,39.626-49.709c0,0-32.025,15.882-30.359,51.425L144.231,206.518z"/>
	</g>
	<g>
		<g>
			<path style="fill:#E8F1FB;" d="M264.81,325.016l38.074,38.074c1.033,1.033,2.709,1.033,3.742,0l13.965-13.965
				c1.033-1.033,1.033-2.709,0-3.742l-38.074-38.074L264.81,325.016z"/>
			<path style="fill:#FFFFFF;" d="M256.717,316.923l8.093,8.093l17.707-17.707l-8.093-8.093c-2.067-2.067-5.417-2.067-7.484,0
				l-10.223,10.223C254.65,311.506,254.65,314.856,256.717,316.923z"/>
			<path style="fill:#BDD8F3;" d="M270.827,307.935l-6.303-6.303l1.847-1.847l6.303,6.303c0.51,0.51,0.51,1.337,0,1.847l0,0
				C272.164,308.445,271.337,308.445,270.827,307.935z"/>
			<path style="fill:#BDD8F3;" d="M263.644,315.118l-6.303-6.303l1.847-1.847l6.303,6.303c0.51,0.51,0.51,1.337,0,1.847l0,0
				C264.981,315.628,264.154,315.628,263.644,315.118z"/>
			<path style="fill:#BDD8F3;" d="M267.208,311.554l-6.303-6.303l1.847-1.847l6.303,6.303c0.51,0.51,0.51,1.337,0,1.847l0,0
				C268.545,312.064,267.718,312.064,267.208,311.554z"/>
			
				<rect x="313.092" y="351.007" transform="matrix(-0.7071 -0.7071 0.7071 -0.7071 284.7953 832.6774)" style="fill:#122030;" width="3.527" height="12.694"/>
		</g>
		<path style="fill:#122030;" d="M288.614,348.82v-15.834c0-2.037-1.652-3.689-3.689-3.689c-2.037,0-3.689,1.651-3.689,3.689v8.457
			L288.614,348.82z"/>
		<path style="fill:#0095F5;" d="M289.855,394.444v-62.699c0-2.037-1.651-3.689-3.689-3.689s-3.689,1.651-3.689,3.689v62.699
			h-15.846v6.437h39.069v-6.437H289.855z"/>
		<rect x="282.478" y="391.653" style="fill:#122030;" width="7.377" height="2.791"/>
	</g>
	<path style="fill:#122030;" d="M583.719,219.934l-9.458,19.886c0,0-8.242-6.503-18.248-7.494
		c-10.006-0.991-21.368,4.186-21.368,4.186s-2.391,24.356,19.744,27.242c26.573,3.465,38.205-39.173,38.205-39.173L583.719,219.934z
		"/>
	<path style="fill:#FFFFFF;" d="M562.799,235.754c-4.379,1.782-9.47,1.739-13.818-0.118c0,0,2.13,6.707,8.159,6.286
		C563.17,241.501,562.799,235.754,562.799,235.754z"/>
	<circle style="fill:#F75244;" cx="597.711" cy="232.534" r="14.669"/>
	<path style="fill:#F75244;" d="M583.719,175.165c14.804,6.022,7.641,44.763,6.622,51.28l8.553-1.834c0,0,4.59-18.204,1.81-31.237
		C596.98,175.919,583.719,175.165,583.719,175.165z"/>
	<g>
		<rect x="81.313" y="400.881" style="fill:#9ED3FF;" width="587.374" height="30.355"/>
		<rect x="89.861" y="431.236" style="fill:#9ED3FF;" width="570.279" height="11.543"/>
		<rect x="89.861" y="431.236" style="fill:#122030;" width="570.279" height="2.581"/>
	</g>
	<g>
		<path style="fill:#0095F5;" d="M405.042,101.648H297.163c-3.897,0-7.056,3.159-7.056,7.056v47.401
			c0,3.897,3.159,7.056,7.056,7.056h26.457l-9.35,18.355l23.728-18.355h67.043c3.897,0,7.056-3.159,7.056-7.056v-47.401
			C412.098,104.807,408.939,101.648,405.042,101.648z"/>
		<path style="fill:#FFFFFF;" d="M380.586,122.21c5.63,0,10.195,4.564,10.195,10.195c0,5.63-4.564,10.195-10.195,10.195
			c-5.63,0-10.195-4.564-10.195-10.195C370.391,126.774,374.955,122.21,380.586,122.21z M340.908,132.405
			c0,5.63,4.564,10.195,10.195,10.195c5.63,0,10.195-4.564,10.195-10.195c0-5.63-4.564-10.195-10.195-10.195
			C345.472,122.21,340.908,126.774,340.908,132.405z M311.424,132.405c0,5.63,4.564,10.195,10.195,10.195
			c5.63,0,10.195-4.564,10.195-10.195c0-5.63-4.564-10.195-10.195-10.195C315.988,122.21,311.424,126.774,311.424,132.405z"/>
	</g>
	<g>
		<path style="fill:#122030;" d="M290.107,132.381v23.724c0,3.897,3.159,7.056,7.056,7.056h7.408
			c0.05-0.765,0.084-1.535,0.084-2.313C304.655,149.135,298.918,138.766,290.107,132.381z"/>
		
			<ellipse transform="matrix(0.2263 -0.974 0.974 0.2263 51.5547 383.4192)" style="fill:#7FC89B;" cx="267.143" cy="159.255" rx="35.142" ry="35.142"/>
		<polygon style="fill:#FFFFFF;" points="284.249,159.255 270.907,166.959 257.564,174.662 257.564,159.255 257.564,143.849 
			270.907,151.552 		"/>
	</g>
	<g>
		<path style="fill:#BDD8F3;" d="M611.762,101.059c0-24.21-19.627-43.837-43.837-43.837c-24.21,0-43.837,19.626-43.837,43.837
			c0,22.363,16.749,40.801,38.384,43.487l5.452,10.528l5.452-10.528C595.013,141.859,611.762,123.421,611.762,101.059z"/>
		<g>
			<path style="fill:#FFFFFF;" d="M558.765,111.942c-0.208-0.484-0.26-1.176-0.156-2.075c0.103-1.798,0.552-3.389,1.349-4.773
				c0.795-1.383,1.746-2.611,2.853-3.684c1.107-1.072,2.291-2.024,3.554-2.854c1.262-0.829,2.395-1.573,3.398-2.231
				c2.594-1.556,4.358-3.025,5.292-4.409c0.934-1.384,1.331-2.577,1.193-3.58c-0.104-0.691-0.398-1.184-0.882-1.479
				c-0.484-0.293-1.004-0.441-1.556-0.441c-0.796,0-1.583,0.174-2.361,0.519c-0.779,0.346-1.557,0.787-2.335,1.323
				c-0.779,0.537-1.574,1.142-2.386,1.815c-0.814,0.675-1.634,1.34-2.465,1.998c-1.212,1.004-2.723,1.565-4.54,1.686
				c-1.816,0.122-3.589-0.181-5.318-0.908c-0.449-0.173-0.821-0.389-1.115-0.649c-0.294-0.259-0.484-0.578-0.571-0.959
				c-0.086-0.38-0.026-0.856,0.181-1.427c0.207-0.571,0.588-1.271,1.142-2.101c1.729-2.628,3.744-4.79,6.044-6.485
				c2.3-1.694,4.799-2.783,7.496-3.268c1.626-0.311,3.182-0.38,4.67-0.207c1.487,0.173,2.862,0.518,4.125,1.038
				c1.262,0.518,2.386,1.167,3.372,1.945c0.985,0.778,1.806,1.6,2.464,2.465c1.383,1.695,2.309,3.32,2.776,4.877
				c0.467,1.556,0.622,3.018,0.467,4.383c-0.156,1.367-0.553,2.62-1.193,3.762c-0.64,1.141-1.341,2.127-2.101,2.957
				c-0.761,0.83-1.618,1.565-2.568,2.205c-0.952,0.64-1.938,1.262-2.957,1.867c-1.021,0.606-2.033,1.219-3.036,1.842
				c-1.003,0.622-1.929,1.331-2.776,2.127c-0.848,0.796-1.574,1.721-2.178,2.776c-0.606,1.055-1.012,2.308-1.22,3.761
				c0.034,0.657-0.181,1.063-0.648,1.22c-0.467,0.156-1.063,0.164-1.79,0.026c-0.726-0.138-1.523-0.38-2.386-0.726
				c-0.865-0.345-1.661-0.675-2.386-0.986C559.456,112.876,558.972,112.427,558.765,111.942z M556.56,118.557
				c0.363-0.571,0.873-1.038,1.53-1.401c0.656-0.363,1.444-0.578,2.361-0.648c0.916-0.069,1.928,0.052,3.036,0.363
				c0.83,0.243,1.513,0.528,2.049,0.856c0.536,0.33,0.959,0.683,1.271,1.063c0.311,0.381,0.527,0.771,0.649,1.167
				c0.121,0.399,0.181,0.805,0.181,1.219v0.779c0,0.311-0.035,0.518-0.104,0.622c-0.277,0.969-0.952,1.764-2.024,2.386
				c-1.073,0.622-2.473,0.812-4.202,0.571c-0.761-0.104-1.479-0.277-2.154-0.519c-0.674-0.242-1.262-0.579-1.764-1.011
				c-0.502-0.433-0.882-0.943-1.141-1.531c-0.26-0.587-0.355-1.279-0.286-2.075C555.997,119.742,556.196,119.128,556.56,118.557z"/>
		</g>
	</g>
	<g>
		<path style="fill:#122030;" d="M611.451,106.208c-11.607,2.681-20.263,13.074-20.263,25.495c0,2.083,0.251,4.106,0.711,6.049
			C602.501,130.816,609.904,119.409,611.451,106.208z"/>
		
			<ellipse transform="matrix(0.1615 -0.9869 0.9869 0.1615 390.584 719.9675)" style="fill:#F75244;" cx="618.974" cy="130.135" rx="26.174" ry="26.174"/>
		<path style="fill:#FFFFFF;" d="M623.268,140.758l-4.29,2.777l-4.29-2.773c-10.725-6.933-10.725-11.886-10.725-13.749
			c0-4.363,3.534-7.9,7.901-7.9c3.125,0,5.826,1.817,7.114,4.452c1.28-2.634,3.981-4.452,7.106-4.452c4.367,0,7.901,3.538,7.901,7.9
			C633.985,128.876,633.985,133.826,623.268,140.758z"/>
	</g>
	<g>
		<g>
			<path style="fill:#BDD8F3;" d="M86.684,130.195c0-0.56,0.453-1.013,1.013-1.013H96.8c0.56,0,1.013,0.453,1.013,1.013v8.09h8.089
				c0.56,0,1.013,0.453,1.013,1.013v8.089h8.09c0.56,0,1.013,0.453,1.013,1.013v9.103c0,0.56-0.453,1.013-1.013,1.013
				c-0.56,0-1.013-0.453-1.013-1.013v-8.09h-8.09c-0.56,0-1.013-0.453-1.013-1.013v-8.089H96.8c-0.56,0-1.013-0.453-1.013-1.013
				v-8.09h-8.09C87.137,131.208,86.684,130.755,86.684,130.195z"/>
		</g>
		<path style="fill:#BDD8F3;" d="M503.21,174.526c1.241-1.241,2.889-1.924,4.643-1.923c0.56,0,1.013,0.453,1.013,1.013
			c0,0.56-0.453,1.013-1.013,1.013c-2.425,0.001-4.54,2.114-4.54,4.54c0.001,3.509-3.06,6.567-6.566,6.566
			c-2.504,0.001-4.539,2.04-4.54,4.54c0.001,3.506-3.056,6.566-6.566,6.566c-0.56,0-1.013-0.453-1.013-1.013
			c0-0.56,0.453-1.013,1.013-1.013c2.426,0,4.541-2.115,4.541-4.541c-0.001-3.62,2.945-6.566,6.566-6.566
			c2.425,0,4.541-2.115,4.54-4.54C501.286,177.414,501.97,175.766,503.21,174.526z M494.015,171.896c0,2.426-2.115,4.541-4.54,4.54
			c-3.621,0-6.568,2.946-6.566,6.566c0,2.426-2.115,4.541-4.541,4.541c-0.56,0-1.013,0.453-1.013,1.013
			c0,0.56,0.453,1.013,1.013,1.013c3.509,0,6.567-3.061,6.566-6.566c0.001-2.503,2.038-4.539,4.54-4.54
			c3.506,0,6.567-3.057,6.566-6.566c-0.001-2.426,2.115-4.539,4.54-4.54c0.559,0,1.013-0.453,1.013-1.013
			c0-0.56-0.453-1.013-1.013-1.013c-1.754-0.001-3.402,0.683-4.643,1.923C494.698,168.494,494.014,170.142,494.015,171.896z"/>
		<g>
			<path style="fill:#BDD8F3;" d="M341.872,379.049h10.773c0.56,0,1.013,0.453,1.013,1.013v10.772c0,0.56-0.453,1.013-1.013,1.013
				h-10.773c-0.56,0-1.013-0.453-1.013-1.013v-10.772C340.859,379.502,341.312,379.049,341.872,379.049z M351.632,381.075h-8.747
				v8.747h8.747V381.075z"/>
		</g>
		<g>
			<path style="fill:#BDD8F3;" d="M435.478,83.485c3.528,0,6.399,2.87,6.399,6.399c0,3.529-2.87,6.399-6.399,6.399
				c-3.529,0-6.4-2.87-6.4-6.399C429.079,86.356,431.949,83.485,435.478,83.485z M435.478,94.258c2.412,0,4.373-1.962,4.373-4.374
				s-1.961-4.373-4.373-4.373c-2.411,0-4.374,1.961-4.374,4.373S433.067,94.258,435.478,94.258z"/>
		</g>
		<g>
			<path style="fill:#BDD8F3;" d="M633.984,215.163c3.529,0,6.399,2.87,6.399,6.399c0,3.528-2.87,6.399-6.399,6.399
				c-3.528,0-6.399-2.87-6.399-6.399C627.586,218.033,630.456,215.163,633.984,215.163z M633.984,225.935
				c2.411,0,4.374-1.961,4.374-4.373c0-2.411-1.962-4.374-4.374-4.374c-2.412,0-4.373,1.962-4.373,4.374
				C629.611,223.973,631.573,225.935,633.984,225.935z"/>
		</g>
		<g>
			<path style="fill:#BDD8F3;" d="M205.417,128.49h11.427c0.362,0,0.696,0.193,0.877,0.507c0.181,0.313,0.181,0.699,0,1.013
				l-5.713,9.896c-0.362,0.627-1.393,0.627-1.755,0l-5.714-9.896c-0.181-0.314-0.181-0.7,0-1.013
				C204.72,128.683,205.054,128.49,205.417,128.49z M215.089,130.515h-7.918l3.959,6.858L215.089,130.515z"/>
		</g>
		<path style="fill:#BDD8F3;" d="M104.157,256.498l-2.806-2.806l-2.806,2.806c-0.396,0.396-1.037,0.396-1.432,0
			c-0.198-0.198-0.297-0.457-0.297-0.716c0-0.259,0.099-0.518,0.297-0.716l2.806-2.806l-2.806-2.806
			c-0.198-0.198-0.297-0.457-0.297-0.716s0.099-0.518,0.297-0.716c0.396-0.396,1.036-0.396,1.432,0l2.806,2.806l2.806-2.806
			c0.396-0.396,1.037-0.396,1.432,0c0.395,0.396,0.395,1.037,0,1.432l-2.806,2.806l2.806,2.806c0.395,0.396,0.395,1.037,0,1.432
			C105.194,256.893,104.553,256.893,104.157,256.498z M105.589,270.87c0.395-0.396,0.395-1.036,0-1.432l-2.806-2.806l2.806-2.806
			c0.395-0.395,0.395-1.037,0-1.432c-0.396-0.396-1.037-0.396-1.432,0l-2.806,2.806l-2.806-2.806c-0.396-0.396-1.037-0.396-1.432,0
			c-0.198,0.198-0.297,0.457-0.297,0.716c0,0.259,0.099,0.518,0.297,0.716l2.806,2.806l-2.806,2.806
			c-0.198,0.198-0.297,0.457-0.297,0.716c0,0.259,0.099,0.518,0.297,0.716c0.396,0.396,1.036,0.396,1.432,0l2.806-2.806l2.806,2.806
			C104.553,271.265,105.194,271.265,105.589,270.87z M101.351,282.435l2.806,2.807c0.396,0.396,1.037,0.396,1.432,0
			c0.395-0.396,0.395-1.037,0-1.432l-2.806-2.807l2.806-2.807c0.395-0.396,0.395-1.037,0-1.432c-0.396-0.396-1.037-0.396-1.432,0
			l-2.806,2.807l-2.806-2.807c-0.396-0.396-1.037-0.396-1.432,0c-0.198,0.198-0.297,0.457-0.297,0.716
			c0,0.259,0.099,0.518,0.297,0.716l2.806,2.807l-2.806,2.807c-0.198,0.198-0.297,0.457-0.297,0.716
			c0,0.259,0.099,0.518,0.297,0.716c0.396,0.396,1.036,0.396,1.432,0L101.351,282.435z"/>
		<path style="fill:#BDD8F3;" d="M501.514,129.565h3.854v3.855c0,0.56,0.453,1.012,1.013,1.012c0.56,0,1.013-0.453,1.013-1.012
			v-3.855h3.853c0.56,0,1.013-0.453,1.013-1.013c0-0.56-0.453-1.013-1.013-1.013h-3.853v-3.854c0-0.56-0.453-1.013-1.013-1.013
			c-0.56,0-1.013,0.453-1.013,1.013v3.854h-3.854c-0.56,0-1.013,0.453-1.013,1.013C500.501,129.112,500.954,129.565,501.514,129.565
			z"/>
		<path style="fill:#BDD8F3;" d="M301.867,210.95l2.725-2.725l2.726,2.726c0.396,0.396,1.036,0.396,1.432,0
			c0.396-0.396,0.396-1.036,0-1.432l-2.726-2.726l2.725-2.725c0.396-0.396,0.396-1.036,0-1.432c-0.396-0.396-1.036-0.396-1.433,0
			l-2.725,2.725l-2.725-2.725c-0.396-0.396-1.036-0.396-1.432,0c-0.396,0.396-0.396,1.037,0,1.432l2.725,2.725l-2.725,2.725
			c-0.396,0.396-0.396,1.037,0,1.432C300.831,211.346,301.471,211.346,301.867,210.95z"/>
	</g>
	<g>
		<path style="fill:#FFD45A;" d="M199.074,97.868c0-22.449-22.061-40.647-49.276-40.647s-49.276,18.198-49.276,40.647
			c0,22.449,22.061,40.647,49.276,40.647c1.34,0,2.664-0.057,3.978-0.143l9.295,11.388l-1.078-12.502
			C183.309,132.781,199.074,116.845,199.074,97.868z"/>
		<path style="fill:#FFFFFF;" d="M171.637,91.272c4.17,0,7.551,3.381,7.551,7.551c0,4.17-3.381,7.551-7.551,7.551
			c-4.17,0-7.551-3.381-7.551-7.551C164.085,94.653,167.466,91.272,171.637,91.272z M142.247,98.823c0,4.17,3.381,7.551,7.551,7.551
			c4.17,0,7.551-3.381,7.551-7.551c0-4.17-3.381-7.551-7.551-7.551C145.628,91.272,142.247,94.653,142.247,98.823z M120.408,98.823
			c0,4.17,3.381,7.551,7.551,7.551s7.551-3.381,7.551-7.551c0-4.17-3.381-7.551-7.551-7.551S120.408,94.653,120.408,98.823z"/>
	</g>
</g>
</svg>
