<?xml version="1.0" encoding="utf-8"?>
<!-- Generator: Adobe Illustrator 27.5.0, SVG Export Plug-In . SVG Version: 6.00 Build 0)  -->
<svg version="1.1" xmlns="http://www.w3.org/2000/svg" xmlns:xlink="http://www.w3.org/1999/xlink" x="0px" y="0px"
	 viewBox="0 0 800 800" style="enable-background:new 0 0 800 800;" xml:space="preserve">
<g id="_x31_">
	<g>
		<g>
			<rect y="580.769" style="fill-rule:evenodd;clip-rule:evenodd;fill:#0089D1;" width="800" height="11.708"/>
			<path style="fill-rule:evenodd;clip-rule:evenodd;fill:#0089D1;" d="M100.254,526.026v2.131v17.302v1.418v2.838v28.481v9.583
				l3.459,4.699h-9.67H79.227H66.363l2.838-4.699h0.088v-37.354l-1.863-5.145h6.654h-2.128h-2.574
				c-0.62-7.541-7.008-13.574-14.637-13.574c-7.808,0-14.108,6.033-14.728,13.574h-2.574h-2.218h6.743l-1.864,5.145v37.354h0.089
				l3.371,4.699h-13.22H16.057H6.297l2.751-4.699v-9.583v-28.481v-2.838v-1.418v-17.302v-2.131v-6.12v-0.8l-8.073-6.299H0.709
				v-0.267v-0.354h8.339v-6.122v-1.683v-1.421v-0.975h91.206v0.975v1.421v1.683v6.122h8.428v0.179v0.442h-0.443l-7.985,6.299v0.8
				V526.026z"/>
			<path style="fill-rule:evenodd;clip-rule:evenodd;fill:#0089D1;" d="M102.828,539.336v9.758v0.8v0.797h0.62v16.324v1.065v6.124
				v1.063v14.64v1.863v0.707h106.73v-0.707v-1.863v-14.64v-1.063v-6.124v-1.065V550.69h1.155v-0.797v-0.8v-9.758v-1.33h-1.508
				v-9.139v-22.182v-1.419v-19.873v-1.423v-40.72h2.128v-2.663h-4.258v-3.992h-1.509v-1.24h-0.443l-1.686-3.017l-1.774-3.195
				l-1.686,3.195l-1.687,3.017h-0.444v1.24h-25.196v3.992h-4.347v2.663h2.395v40.72v1.423v1.065h-10.469l-1.687-12.69l-0.355-3.37
				v-18.099h2.839v-2.22h-2.839v-2.396h-2.396v2.396h-2.838v2.22h2.838v17.655l-0.532,3.813l-1.685,12.69h-11.8v-1.065v-1.423
				v-40.72h2.13v-2.663h-4.26v-3.992h-24.665v-1.24h-0.443l-1.686-3.017l-1.685-3.195l-1.774,3.195l-1.598,3.017h-0.532v1.24h-2.042
				v3.992h-4.346v2.663h2.394v40.72v1.423v19.873v1.419v22.182v9.139h-1.063V539.336z M142.397,490.45h11.889v7.454l-0.71,1.15
				l-4.081,6.391h-7.098v-0.179V490.45z M160.852,490.45h10.469v14.816v0.179h-5.679l-3.993-6.391l-0.797-1.15V490.45z
				 M144.261,523.099c0.354-6.388,5.323-11.444,11.622-11.887C149.584,511.654,144.615,516.8,144.261,523.099L144.261,523.099z
				 M157.835,511.212c2.661,0.178,5.056,1.242,7.009,2.836C162.891,512.454,160.496,511.39,157.835,511.212L157.835,511.212z
				 M203.436,506.332h-25.729v-1.065v-18.454h25.729v18.454V506.332z M194.21,489.919c0.886,0,1.685,0.531,1.685,1.15v13.221h-3.371
				v-13.221C192.525,490.45,193.234,489.919,194.21,489.919L194.21,489.919z M187.556,489.919c0.887,0,1.686,0.531,1.686,1.15
				v13.221h-3.371v-13.221C185.871,490.45,186.58,489.919,187.556,489.919L187.556,489.919z M198.025,512.808h3.46v-3.46h-3.46
				V512.808z M179.837,512.808h3.548v-3.46h-3.548V512.808z M126.782,489.919c0.887,0,1.685,0.531,1.685,1.15v13.221h-3.372v-13.221
				C125.096,490.45,125.807,489.919,126.782,489.919L126.782,489.919z M120.127,489.919c0.889,0,1.598,0.531,1.598,1.15v13.221
				h-3.283v-13.221C118.442,490.45,119.151,489.919,120.127,489.919L120.127,489.919z M130.596,512.808h3.462v-3.46h-3.462V512.808z
				 M112.408,512.808h3.461v-3.46h-3.461V512.808z M203.704,589.907h-2.395v-23.423c0-7.186-10.558-13.042-10.558-13.042
				s-10.559,5.856-10.559,13.042v23.423h-3.46v-14.64v-1.063v-6.124v-1.065V550.69h26.972v16.324v1.065v6.124v1.063V589.907z
				 M170.255,589.907h-2.749v-23.423c0-7.186-10.559-13.042-10.559-13.042s-10.558,5.856-10.558,13.042v23.423h-3.017v-14.64v-1.063
				v-6.124v-1.065V550.69h26.883v16.324v1.065v6.124v1.063V589.907z M136.808,589.907h-3.017v-23.423
				c0-7.186-10.558-13.042-10.558-13.042s-10.558,5.856-10.558,13.042v23.423h-2.661v-14.64v-1.063v-6.124v-1.065V550.69h26.793
				v16.324v1.065v6.124v1.063V589.907z"/>
			<path style="fill-rule:evenodd;clip-rule:evenodd;fill:#0089D1;" d="M547.854,586.18h1.774l-13.397-25.907
				c-7.009-6.743-16.591-10.822-27.059-10.822c-9.583,0-18.28,3.46-25.022,9.137l-14.284,27.593h2.573v6.298h-33.713v-6.298h4.435
				l27.768-53.674v-8.074h5.945l9.848-28.216v-0.621h0.178l2.752-7.985h-1.064v-7.452h3.105v-1.418h-4.615v-8.075h7.01
				c5.234-40.988,7.719-111.433,8.518-133.967h-0.179v-1.774h0.268l0.088-4.348h-1.241V323.3h3.195v-8.962h3.725v-12.686h1.242
				V290.03h1.421v11.622h1.329v12.686h3.637v8.962h3.284v7.274h-1.33l0.177,4.348h0.178v1.774h-0.089
				c0.444,12.688,1.33,40.722,3.106,70.178l0.088,0.266l-0.088,0.088c1.063,17.834,2.393,36.023,3.991,51.638
				c0.442,4.257,0.974,8.073,1.329,11.798h7.099v8.075h-4.613v1.418h3.018v7.452h-0.71l2.752,7.985l10.024,28.837h3.102v7.541
				l0.624-0.267l28.212,54.474h5.324v6.298h-33.714V586.18z M479.36,522.566L479.36,522.566l8.962-5.234l-5.235-5.057
				L479.36,522.566z M484.419,508.105L484.419,508.105l7.983-5.233l-4.522-4.525L484.419,508.105z M489.12,494.799L489.12,494.799
				l5.855-3.729l-3.547-3.013L489.12,494.799z M529.576,487.609L529.576,487.609h-0.267l-3.371,3.194l5.945,3.46L529.576,487.609z
				 M533.39,498.436L533.39,498.436l-4.168,4.257l7.185,4.523L533.39,498.436z M538.094,511.923L538.094,511.923l-5.679,5.409
				l9.494,5.502L538.094,511.923z M509.435,330.574L509.435,330.574l-2.13,1.775l-2.127-1.775H509.435z M506.686,332.971
				L506.686,332.971l-2.485,1.952l0.177-3.994L506.686,332.971z M505.356,334.922L505.356,334.922l1.773-1.508l1.598,1.508H505.356z
				 M507.841,332.882L507.841,332.882l1.773-1.42v0.089v0.088v0.443v0.089v0.532v0.09v0.621v0.177v0.886L507.841,332.882z
				 M509.614,336.874L509.614,336.874l-2.663,2.751l-2.75-2.928h5.413V336.874z M506.243,340.333L506.243,340.333l-2.22,2.397
				l0.089-4.791L506.243,340.333z M504.023,343.883L504.023,343.883l2.839-2.929l2.573,2.929H504.023z M507.483,340.246
				L507.483,340.246l2.131-2.218v4.523L507.483,340.246z M509.614,345.657L509.614,345.657l-2.84,2.839l-2.573-2.928h5.413V345.657z
				 M505.976,349.117L505.976,349.117l-2.306,2.484l0.175-5.057L505.976,349.117z M503.581,352.845L503.581,352.845l3.105-3.017
				l2.573,3.105h-5.679V352.845z M507.306,349.117L507.306,349.117l2.309-2.306v4.968L507.306,349.117z M509.614,354.796
				L509.614,354.796l-2.928,2.838l-2.752-3.016h5.68V354.796z M505.888,358.345L505.888,358.345l-2.573,2.483v-0.531l0.177-4.615
				L505.888,358.345z M503.491,361.805L503.491,361.805l3.017-2.84l2.574,2.84H503.491z M507.13,358.345L507.13,358.345l2.484-2.307
				v4.967L507.13,358.345z M509.614,364.111L509.614,364.111l-2.928,2.574l-3.195-3.194h5.944l0.179,0.088V364.111z
				 M505.888,367.305L505.888,367.305l-2.928,2.485l0.267-5.234L505.888,367.305z M503.049,370.853L503.049,370.853l3.459-2.926
				l2.84,2.926H503.049z M507.13,367.305L507.13,367.305l2.484-2.04v2.129v0.355v0.621v0.267v0.711v0.354L507.13,367.305z
				 M511.303,363.845L511.303,363.845l0.264-0.354h5.942l-3.014,3.194l-3.192-2.751V363.845z M503.227,363.49L503.227,363.49v0.088
				V363.49z M509.614,372.629L509.614,372.629l-3.371,2.838l-2.929-2.927h6.3V372.629z M505.533,376.089L505.533,376.089
				l-2.928,2.484l0.177-5.235L505.533,376.089z M502.427,379.726L502.427,379.726l3.728-3.017l3.018,3.194h-6.745V379.726z
				 M506.862,376.089L506.862,376.089l2.573-2.308v0.533v0.709v0.621v0.888v0.621v0.888v0.709v0.088L506.862,376.089z
				 M509.348,381.679L509.348,381.679l-3.372,2.927l-3.016-3.105h6.388V381.679z M505.268,385.227L505.268,385.227l-3.105,2.751
				l0.178-5.679L505.268,385.227z M502.427,388.776L502.427,388.776l3.461-2.927l2.928,2.927H502.427z M506.686,385.227
				L506.686,385.227l2.661-2.395v0.532v0.443v1.331v0.532l-0.088,1.419v0.443v0.444L506.686,385.227z M502.605,381.501
				L502.605,381.501l-0.266,0.798l0.087-0.798H502.605z M508.993,390.461L508.993,390.461l-3.193,2.84l-2.84-2.84H508.993z
				 M505.001,394.01L505.001,394.01l-3.37,3.017l0.266-6.032L505.001,394.01z M502.252,397.825L502.252,397.825l3.46-3.193
				l3.281,3.193H502.252z M506.508,393.921L506.508,393.921l2.752-2.395l-0.088,1.508v0.266v1.863v0.177l-0.09,1.066
				L506.508,393.921z M508.461,399.511L508.461,399.511l-3.104,2.573l-2.574-2.573H508.461z M504.469,402.973L504.469,402.973
				l-3.373,2.75l0.445-5.857L504.469,402.973z M501.631,406.786L501.631,406.786l3.637-3.105l2.929,3.105H501.631z M506.243,402.973
				L506.243,402.973l2.75-2.487v1.156l-0.178,3.991L506.243,402.973z M508.727,408.475L508.727,408.475l-3.371,2.836l-2.662-2.836
				H508.727z M504.469,412.02L504.469,412.02l-3.905,3.374l0.446-6.919L504.469,412.02z M501.896,415.747L501.896,415.747
				l3.371-2.839l2.839,2.839H501.896z M506.243,412.02L506.243,412.02l2.484-2.041v0.357l-0.089,0.442v1.775v0.532l-0.088,1.418
				L506.243,412.02z M507.93,417.431L507.93,417.431l-3.193,2.574l-2.484-2.574H507.93z M503.845,420.893L503.845,420.893
				l-3.902,3.282l0.532-6.744L503.845,420.893z M501.096,424.707L501.096,424.707l3.551-3.016l3.016,3.016H501.096z
				 M505.622,420.893L505.622,420.893l2.839-2.482l-0.088,0.976v0.708l-0.177,3.371L505.622,420.893z M507.306,426.394
				L507.306,426.394l-3.371,2.75l-2.658-2.75H507.306z M502.96,429.853L502.96,429.853l-3.638,2.928l0.532-6.301L502.96,429.853z
				 M500.031,433.668L500.031,433.668l3.813-2.928l2.663,2.928H500.031z M504.646,429.942L504.646,429.942l3.371-2.573
				c-0.088,1.863-0.177,3.902-0.355,5.767L504.646,429.942z M507.041,435.444L507.041,435.444l-3.371,2.569l-2.574-2.569H507.041z
				 M502.782,438.815L502.782,438.815l-4.169,3.282c0.178-2.131,0.354-4.438,0.532-6.653h0.355L502.782,438.815z M499.854,442.629
				L499.854,442.629l3.637-3.017l2.84,3.017H499.854z M504.469,438.904L504.469,438.904l3.015-2.397
				c-0.089,1.776-0.178,3.548-0.354,5.236L504.469,438.904z M505.622,444.315L505.622,444.315l-2.928,2.395l-2.22-2.395H505.622z
				 M501.719,447.508L501.719,447.508l-3.902,3.016c0.266-1.95,0.443-4.078,0.53-6.209h0.444L501.719,447.508z M498.347,451.68
				L498.347,451.68l4.08-3.371l3.285,3.371H498.347z M503.402,447.596L503.402,447.596l3.549-2.835
				c-0.177,1.949-0.265,4.08-0.531,5.941L503.402,447.596z M505.8,453.365L505.8,453.365l-3.903,3.017l-2.751-3.017H505.8z
				 M501.01,457.09L501.01,457.09l-3.816,3.194h-0.268c0.178-2.217,0.355-4.523,0.621-6.83L501.01,457.09z M498.967,460.284
				L498.967,460.284l2.84-2.304l2.128,2.304H498.967z M502.782,457.268L502.782,457.268l3.372-2.663
				c-0.267,1.867-0.442,3.819-0.621,5.502L502.782,457.268z M505.091,461.973L505.091,461.973l-4.35,3.548l-3.283-3.548H505.091z
				 M499.854,466.228L499.854,466.228l-3.992,3.196c0.178-2.131,0.531-4.349,0.71-6.566L499.854,466.228z M496.04,470.664
				L496.04,470.664l4.523-3.549l3.018,3.194v0.09l-0.09,0.265H496.04z M501.541,466.318L501.541,466.318l3.46-2.752
				c-0.355,1.954-0.623,3.816-0.978,5.414L501.541,466.318z M511.656,330.574L511.656,330.574l2.215,1.775l2.042-1.775H511.656z
				 M514.495,332.971L514.495,332.971l2.128,1.686l-0.089-3.55L514.495,332.971z M515.647,334.922L515.647,334.922l-1.687-1.508
				l-1.683,1.508H515.647z M513.251,332.882L513.251,332.882l-1.948-1.687v0.357v0.088v0.443v0.089v0.532v0.09v0.621v0.177v1.065
				L513.251,332.882z M511.303,336.697L511.303,336.697l2.923,2.928l2.486-2.839v-0.089H511.303z M514.85,340.333L514.85,340.333
				l1.951,2.129l-0.089-4.169L514.85,340.333z M516.888,343.705L516.888,343.705l-2.569-2.751l-2.752,2.929h5.321V343.705z
				 M513.605,340.246L513.605,340.246l-2.303-2.397v4.97L513.605,340.246z M511.477,345.568L511.477,345.568l2.929,2.928
				l2.394-2.928H511.477z M515.026,349.117L515.026,349.117l2.129,2.13l-0.09-4.436L515.026,349.117z M517.243,352.488
				L517.243,352.488l-2.748-2.66l-2.573,3.105h5.321V352.488z M513.783,349.117L513.783,349.117l-2.48-2.484v5.589L513.783,349.117z
				 M511.303,354.619L511.303,354.619l3.192,3.016l2.748-3.016H511.303z M515.205,358.345L515.205,358.345l2.304,2.129l-0.178-4.525
				L515.205,358.345z M517.509,361.805L517.509,361.805l-2.925-2.84l-2.485,2.84H517.509z M513.871,358.345L513.871,358.345
				l-2.568-2.485v5.413L513.871,358.345z M515.205,367.305L515.205,367.305l2.661,2.308l-0.181-4.88L515.205,367.305z
				 M517.956,370.765L517.956,370.765l-3.372-2.837l-2.928,2.926h6.3V370.765z M513.871,367.305L513.871,367.305l-2.568-2.218v2.307
				v0.355v0.621v0.267v0.711v0.442v0.089L513.871,367.305z M511.477,372.54L511.477,372.54l3.461,2.927l2.928-2.927H511.477z
				 M515.647,376.089L515.647,376.089l2.662,2.306l-0.266-4.703L515.647,376.089z M518.31,379.549L518.31,379.549l-3.283-2.84
				l-3.017,3.194h6.389L518.31,379.549z M514.318,376.089L514.318,376.089l-2.929-2.485v0.711v0.709v0.621v0.888v0.621v0.888v0.709
				v0.266L514.318,376.089z M511.477,381.501L511.477,381.501l3.639,3.105l3.104-3.105H511.477z M515.913,385.227L515.913,385.227
				l2.841,2.485l-0.268-5.146L515.913,385.227z M518.754,388.776L518.754,388.776l-3.549-2.927l-2.928,2.927H518.754z
				 M514.495,385.227L514.495,385.227l-3.018-2.661v0.798v0.443v1.331v0.532l0.089,1.419v0.443v0.622L514.495,385.227z
				 M512.188,390.461L512.188,390.461l3.018,2.84l2.839-2.84H512.188z M516.09,394.01L516.09,394.01l3.107,2.751l-0.268-5.5
				L516.09,394.01z M518.929,397.825L518.929,397.825l-3.459-3.193l-3.282,3.193H518.929z M514.584,393.921L514.584,393.921
				l-3.018-2.661l0.09,1.774v0.266v1.863v0.177l0.089,1.332L514.584,393.921z M512.632,399.511L512.632,399.511l3.106,2.573
				l2.572-2.573H512.632z M516.623,402.973L516.623,402.973l3.017,2.484l-0.266-5.325L516.623,402.973z M519.462,406.786
				L519.462,406.786l-3.549-3.105l-3.105,3.105H519.462z M514.938,402.973L514.938,402.973l-3.193-2.663l0.177,1.332l0.088,4.258
				L514.938,402.973z M512.453,408.475L512.453,408.475l3.194,2.836l2.839-2.836H512.453z M516.623,412.02L516.623,412.02
				l3.637,3.196l-0.443-6.388L516.623,412.02z M519.196,415.747L519.196,415.747l-3.283-2.839l-2.839,2.839H519.196z
				 M514.938,412.02L514.938,412.02l-2.84-2.306v0.621l0.089,0.442v1.775v0.532l0.09,1.685L514.938,412.02z M513.251,417.431
				L513.251,417.431l3.017,2.574l2.661-2.574H513.251z M517.243,420.893L517.243,420.893l3.64,3.017l-0.357-6.301L517.243,420.893z
				 M520.083,424.707L520.083,424.707l-3.549-3.016l-3.107,3.016H520.083z M515.559,420.893L515.559,420.893l-3.106-2.661
				l0.089,1.154v0.708l0.09,3.727L515.559,420.893z M513.783,426.394L513.783,426.394l3.46,2.75l2.485-2.75H513.783z
				 M518.221,429.853L518.221,429.853l3.195,2.75l-0.447-5.767L518.221,429.853z M520.969,433.668L520.969,433.668l-3.638-2.928
				l-2.836,2.928H520.969z M516.356,429.942L516.356,429.942l-3.549-2.929c0.088,2.219,0.267,4.348,0.355,6.389L516.356,429.942z
				 M514.049,435.444L514.049,435.444l3.371,2.569l2.574-2.569H514.049z M518.398,438.815L518.398,438.815l3.902,3.107
				c-0.266-2.221-0.442-4.262-0.53-6.478h-0.09L518.398,438.815z M521.326,442.629L521.326,442.629l-3.817-3.017l-2.747,3.017
				H521.326z M516.623,438.904L516.623,438.904l-3.283-2.663c0.088,1.953,0.266,3.903,0.356,5.77L516.623,438.904z M515.559,444.315
				L515.559,444.315l2.928,2.395l2.217-2.395H515.559z M519.462,447.508L519.462,447.508l3.548,2.84
				c-0.176-2.039-0.442-3.992-0.531-6.033h-0.088L519.462,447.508z M522.834,451.68L522.834,451.68l-4.259-3.371l-3.106,3.371
				H522.834z M517.685,447.596L517.685,447.596l-3.814-3.192c0.089,2.307,0.354,4.527,0.535,6.652L517.685,447.596z
				 M515.382,453.365L515.382,453.365l3.726,3.017l2.928-3.017H515.382z M520.083,457.09L520.083,457.09l3.902,3.194
				c-0.267-2.128-0.442-4.346-0.709-6.477L520.083,457.09z M522.035,460.284L522.035,460.284l-2.661-2.304l-2.219,2.304H522.035z
				 M518.398,457.268L518.398,457.268l-3.637-2.927c0.177,2.041,0.354,4.083,0.708,5.943L518.398,457.268z M516.002,461.973
				L516.002,461.973l4.346,3.548l3.283-3.548H516.002z M521.326,466.228L521.326,466.228l3.638,2.929
				c-0.177-1.953-0.532-3.992-0.712-6.034L521.326,466.228z M524.964,470.664L524.964,470.664l-4.438-3.549l-3.282,3.46l0.088,0.089
				H524.964z M519.55,466.318L519.55,466.318l-3.637-3.017c0.267,2.219,0.621,4.167,0.975,5.855L519.55,466.318z M490.271,495.595
				L490.271,495.595h9.939l-4.17-3.548L490.271,495.595z M500.385,487.609L500.385,487.609l-4.345,2.752l-3.106-2.752H500.385z
				 M497.103,491.339L497.103,491.339l5.769-3.729h0.798l-1.064,7.985h-0.353L497.103,491.339z M524.875,491.692L524.875,491.692
				l-4.172,3.902h10.915L524.875,491.692z M520.348,487.609L520.348,487.609l4.439,2.573l2.748-2.573H520.348z M523.719,491.069
				L523.719,491.069l-6.21-3.46l1.333,7.985L523.719,491.069z M485.481,509.613L485.481,509.613h13.753l-5.503-5.412
				L485.481,509.613z M500.918,497.281L500.918,497.281l-7.187,4.704l-4.7-4.704H500.918z M495.153,503.315L495.153,503.315
				l6.92-4.435l-1.599,9.847L495.153,503.315z M527.804,504.022L527.804,504.022l-5.59,5.591h14.725L527.804,504.022z
				 M520.525,497.281L520.525,497.281l7.278,4.525l4.523-4.525H520.525z M526.47,503.136L526.47,503.136l-7.273-4.523l1.507,9.493
				l0.089,0.711L526.47,503.136z M530.997,518.664L530.997,518.664l-5.857,5.767h15.348L530.997,518.664z M522.479,511.3
				L522.479,511.3l8.431,5.057l5.232-5.057H522.479z M529.398,517.866L529.398,517.866l-7.894-4.793l1.685,10.735L529.398,517.866z
				 M480.247,524.432L480.247,524.432h15.526l-6.033-5.767L480.247,524.432z M498.26,511.3L498.26,511.3l-8.343,5.057l-5.321-5.057
				H498.26z M491.339,517.866L491.339,517.866l8.516-5.059l-1.772,11.446L491.339,517.866z M526.47,541.377L526.47,541.377v2.75
				c0.621,0.267,1.246,0.532,1.777,0.71L526.47,541.377z M525.762,543.859L525.762,543.859v-3.902l-1.152-2.218v5.678
				L525.762,543.859z M523.809,543.238L523.809,543.238v-6.919L523.1,534.9h-0.443v7.895L523.809,543.238z M521.858,542.528
				L521.858,542.528V534.9h-1.066v7.363L521.858,542.528z M519.994,542.174L519.994,542.174V534.9h-1.152v6.92L519.994,542.174z
				 M518.044,541.731L518.044,541.731V534.9h-1.156v6.655L518.044,541.731z M516.18,541.377L516.18,541.377V534.9h-1.153v6.299
				L516.18,541.377z M514.318,541.11L514.318,541.11v-6.21h-1.155v6.123L514.318,541.11z M512.453,541.023L512.453,541.023V534.9
				h-1.15v6.034L512.453,541.023z M510.501,540.935L510.501,540.935V534.9h-1.153v6.034H510.501z M508.551,540.935L508.551,540.935
				V534.9h-1.067v6.034H508.551z M506.686,540.935L506.686,540.935V534.9h-1.153v6.123L506.686,540.935z M504.736,541.11
				L504.736,541.11v-6.21h-1.155v6.299L504.736,541.11z M502.872,541.289L502.872,541.289V534.9h-1.153v6.477L502.872,541.289z
				 M501.01,541.643L501.01,541.643V534.9h-1.155v6.92L501.01,541.643z M499.145,541.91L499.145,541.91v-7.01h-1.153v7.363
				L499.145,541.91z M497.193,542.441L497.193,542.441V534.9h-0.8l-0.354,0.621v7.273L497.193,542.441z M495.243,542.974
				L495.243,542.974v-5.946l-1.067,2.22v4.081L495.243,542.974z M552.644,584.14L552.644,584.14l4.612-5.854l-9.937-4.438
				L552.644,584.14z M558.942,576.332L558.942,576.332l4.523-5.588h-16.944L558.942,576.332z M565.154,572.429L565.154,572.429
				l-3.902,4.97l8.426,3.636L565.154,572.429z M559.563,579.349L559.563,579.349l-5.41,6.831h18.099l-0.798-1.597L559.563,579.349z
				 M544.306,568.08L544.306,568.08l5.144-3.635l-8.515-3.018L544.306,568.08z M551.491,563.111L551.491,563.111l4.79-3.281h-13.662
				L551.491,563.111z M558.854,560.184L558.854,560.184l-5.235,3.639l8.695,3.105L558.854,560.184z M551.491,565.242
				L551.491,565.242l-5.412,3.814h15.881L551.491,565.242z M540.935,558.144L540.935,558.144h14.991l-9.847-3.549L540.935,558.144z
				 M538.804,557.437L538.804,557.437l5.144-3.552l-8.604-3.103L538.804,557.437z M546.079,552.378L546.079,552.378l5.058-3.46
				h-14.73L546.079,552.378z M553.264,549.626L553.264,549.626l-5.054,3.549l8.515,3.107L553.264,549.626z M533.568,547.319
				L533.568,547.319h18.544l-1.689-3.283h-18.54L533.568,547.319z M466.674,584.318L466.674,584.318l-4.702-6.033l10.203-4.438
				L466.674,584.318z M460.284,576.332L460.284,576.332l-4.435-5.588h16.945L460.284,576.332z M454.251,572.519L454.251,572.519
				l3.727,4.88l-8.075,3.549L454.251,572.519z M459.665,579.349L459.665,579.349l5.501,6.831h-17.924l0.798-1.683L459.665,579.349z
				 M473.77,570.744L473.77,570.744l1.333-2.574l-5.236-3.725l8.696-3.106l-3.46,6.831L473.77,570.744z M467.736,563.111
				L467.736,563.111l-4.701-3.281h13.664L467.736,563.111z M460.64,560.273L460.64,560.273l5.059,3.55l-8.517,3.105L460.64,560.273z
				 M467.736,565.242L467.736,565.242l5.501,3.814h-15.97L467.736,565.242z M478.386,558.144L478.386,558.144h-14.997l9.849-3.549
				L478.386,558.144z M549.538,542.352L549.538,542.352h-18.541l-3.816-7.452h18.544L549.538,542.352z M480.512,557.525
				L480.512,557.525l-5.231-3.641l8.87-3.103L480.512,557.525z M473.237,552.378L473.237,552.378l-5.055-3.46h14.638
				L473.237,552.378z M466.053,549.715L466.053,549.715l5.056,3.46l-8.427,3.018L466.053,549.715z M485.926,547.319L485.926,547.319
				h-18.632l1.686-3.283h18.631L485.926,547.319z M488.411,542.352L488.411,542.352h-18.545l3.903-7.452h18.544L488.411,542.352z
				 M504.913,492.492L504.913,492.492h11.621l4.882,31.939h-21.562l2.485-16.326L504.913,492.492z M516.18,490.804L516.18,490.804
				h-11.089l0.531-3.194h10.025L516.18,490.804z M493.377,543.592L493.377,543.592v-2.927l-1.948,3.729
				C492.048,544.036,492.669,543.859,493.377,543.592L493.377,543.592z M532.149,552.289L532.149,552.289l-0.974-1.864
				c-6.478-3.815-13.933-5.941-22.004-5.941c-7.365,0-14.372,1.86-20.406,5.143l-0.887,1.777c6.297-3.55,13.573-5.681,21.293-5.681
				C517.685,545.723,525.407,548.119,532.149,552.289L532.149,552.289z"/>
			<path style="fill-rule:evenodd;clip-rule:evenodd;fill:#0089D1;" d="M346.102,516.8v6.299h0.798v1.155h-0.266
				c22.622,14.285,9.936,18.72,12.597,21.559c-4.346-0.09-8.694-0.09-13.129,0h-13.31c1.686-3.106-11.443-7.187,11.978-21.559
				h-0.267v-1.155h0.8v-5.944c-0.177,0-0.354,0-0.533,0c-0.976,0-1.862-0.621-2.218-1.597c0.444,0.445,0.977,0.621,1.598,0.621
				c1.33,0,2.484-1.064,2.484-2.396c0-0.268-0.089-0.621-0.177-0.797c0.531,0.442,0.797,1.062,0.797,1.686
				C347.254,515.558,346.81,516.356,346.102,516.8L346.102,516.8z M301.918,551.313c0.265-0.531-1.863-1.155,2.039-3.549
				c3.727,2.394,1.687,3.107,2.13,3.549C304.667,551.313,303.338,551.313,301.918,551.313L301.918,551.313z M301.741,555.394h4.257
				v-2.309h-4.257V555.394z M302.539,554.863L302.539,554.863h0.799v-1.334h-0.799V554.863z M304.49,554.863L304.49,554.863h0.71
				v-1.334h-0.71V554.863z M303.515,554.863L303.515,554.863h0.709v-1.334h-0.709V554.863z M301.207,552.821h5.414v-0.443h-5.414
				V552.821z M301.207,552.024h5.414v-0.445h-5.414V552.024z M301.207,556.102h5.414v-0.354h-5.414V556.102z M301.207,556.635h5.414
				v-0.354h-5.414V556.635z M301.652,556.724h4.435v11.003h-4.435V556.724z M306.087,568.438v9.493h-4.435v-9.493H306.087z
				 M306.087,578.639v5.858h5.234v-27.149l8.784-1.776v28.926h0.354v-33.715h1.155v-0.357h10.292v-3.106h27.681v2.574l0,0v0.531
				h10.645v0.357h0.888v33.715h0.532v-29.37l8.517,2.398v26.972h5.767v-5.858h4.347v5.858h7.896v-9.494h7.099v9.494h9.047v2.393
				H277.342v-2.393h9.316v-9.494h7.186v9.494h7.808v-5.858H306.087z M293.489,530.55c-0.444-0.796,3.017-1.771-3.283-5.585
				c-6.121,3.724-2.75,4.877-3.46,5.585C288.964,530.55,291.271,530.55,293.489,530.55L293.489,530.55z M293.668,537.205h-6.833
				v-3.728h6.833V537.205z M292.424,536.408L292.424,536.408h-1.153v-2.129h1.153V536.408z M289.23,536.408L289.23,536.408h-1.153
				v-2.129h1.153V536.408z M290.828,536.408L290.828,536.408h-1.154v-2.129h1.154V536.408z M294.73,533.302h-8.871v-0.975h8.871
				V533.302z M294.73,531.884h-8.871v-0.886h8.871V531.884z M294.73,538.36h-8.871v-0.886h8.871V538.36z M294.73,539.247h-8.871
				v-0.621h8.871V539.247z M414.325,592.477H277.342v-4.788h136.983V592.477z M293.845,539.425h-7.186v17.831h7.186V539.425z
				 M398.447,530.55c0.531-0.796-3.017-1.771,3.371-5.585c6.119,3.724,2.749,4.877,3.46,5.585
				C402.972,530.55,400.752,530.55,398.447,530.55L398.447,530.55z M405.19,537.205v-3.728h0.976v-1.15h-8.874v1.15h0.977v3.728
				h-0.977v1.066v0.089v1.064h0.887v17.831h7.099v-17.831h0.888v-1.064v-0.089v-1.066H405.19z M399.6,536.408L399.6,536.408h1.152
				v-2.129H399.6V536.408z M402.706,536.408L402.706,536.408h1.24v-2.129h-1.24V536.408z M401.195,536.408L401.195,536.408h1.156
				v-2.129h-1.156V536.408z M397.292,532.148h8.874v-1.15h-8.874V532.148z M405.278,558.412v15.346h-7.099v-15.346H405.278z
				 M333.592,584.497h24.398v-32.208h-24.398V584.497z M390.107,551.313c-0.266-0.531,1.862-1.155-2.04-3.549
				c-3.816,2.394-1.687,3.107-2.129,3.549C387.355,551.313,388.686,551.313,390.107,551.313L390.107,551.313z M390.284,555.394
				h-4.258v-2.309h4.258V555.394z M389.396,554.863L389.396,554.863h-0.71v-1.334h0.71V554.863z M387.533,554.863L387.533,554.863
				h-0.708v-1.334h0.708V554.863z M388.421,554.863L388.421,554.863h-0.71v-1.334h0.71V554.863z M390.815,552.91h-5.41v-0.532h5.41
				V552.91z M390.815,552.024h-5.41v-0.445h5.41V552.024z M390.815,556.102h-5.41v-0.442h5.41V556.102z M390.815,556.724h-0.531
				v11.003h-4.347v-11.003h-0.532v-0.442h5.41V556.724z M385.937,568.438v9.493h4.347v-9.493H385.937z M286.659,558.412v15.346
				h7.186v-15.346H286.659z M317.71,575.268v6.565l-4.523,0.089V575.8c0-1.153,2.128-3.017,2.217-3.017
				C315.492,572.783,317.71,574.115,317.71,575.268L317.71,575.268z M317.71,564.267v6.477l-4.523,0.532v-6.478
				c0-1.244,2.128-3.105,2.217-3.105C315.492,561.604,317.71,562.935,317.71,564.267L317.71,564.267z M374.225,575.268v6.565
				l4.525,0.089V575.8c0-1.153-2.217-3.017-2.305-3.017C376.355,572.783,374.225,574.115,374.225,575.268L374.225,575.268z
				 M374.225,564.267v6.477l4.525,0.532v-6.478c0-1.244-2.217-3.105-2.305-3.105C376.355,561.604,374.225,562.935,374.225,564.267
				L374.225,564.267z M360.916,549.894c0.535-0.976-3.726-2.129,4.083-6.833h-0.088h-0.266v-0.354h0.266v-1.597
				c-0.088,0-0.178,0-0.266,0c-0.267,0-0.622-0.266-0.711-0.534c0.089,0.089,0.355,0.178,0.535,0.178
				c0.442,0,0.796-0.354,0.796-0.711c0-0.086,0-0.175-0.087-0.264c0.177,0.089,0.265,0.264,0.265,0.531
				c0,0.266-0.088,0.443-0.265,0.624v1.772h0.177v0.354h-0.177h-0.178c7.452,4.528,3.549,5.946,4.258,6.833H360.916z
				 M348.053,565.685v5.059h5.147v-5.235c0-3.016-7.009-7.097-7.365-7.097c-0.355,0-7.364,4.081-7.364,7.097v5.235h5.058v-5.059
				c0-0.887,2.129-2.131,2.306-2.131C345.922,563.555,348.053,564.799,348.053,565.685L348.053,565.685z M348.053,576.951v4.971
				h-4.525v-4.971c0-0.976,2.129-2.215,2.306-2.215C345.922,574.736,348.053,575.976,348.053,576.951L348.053,576.951z
				 M353.2,572.519h-14.729v9.403h-2.128v-26.97l0,0h18.897v26.97h-2.04V572.519z M324.631,566.838h1.775v3.371h-1.775V566.838z
				 M324.631,578.549h1.775v3.373h-1.775V578.549z M365.353,578.549h1.774v3.373h-1.774V578.549z M365.353,566.838h1.774v3.371
				h-1.774V566.838z M323.034,552.554L323.034,552.554h1.597v2.398h-1.597V552.554z M367.394,552.554L367.394,552.554h1.685v2.398
				h-1.685V552.554z M364.732,552.554L364.732,552.554h1.597v2.398h-1.597V552.554z M361.981,552.554L361.981,552.554h1.598v2.398
				h-1.598V552.554z M328.534,552.554L328.534,552.554h1.598v2.398h-1.598V552.554z M325.784,552.554L325.784,552.554h1.597v2.398
				h-1.597V552.554z M362.959,572.251h2.482c-0.531,0.268-1.064,0.71-1.33,0.886c-0.532,0.443-1.241,1.245-1.241,2.042v7.098h6.832
				v-7.098c0-0.797-0.799-1.599-1.332-2.042c-0.177-0.176-0.799-0.618-1.331-0.886h2.663v-0.708h-6.743V572.251z M322.146,560.184
				h3.017c-0.532,0.268-1.508,1.066-1.774,1.244c-0.534,0.444-1.332,1.24-1.332,2.04v7.096h6.832v-7.096
				c0-0.8-0.798-1.596-1.331-2.04c-0.266-0.267-1.152-0.977-1.774-1.244h3.106v-0.708h-6.743V560.184z M322.146,572.251h2.573
				c-0.533,0.268-1.153,0.71-1.33,0.886c-0.534,0.443-1.332,1.245-1.332,2.042v7.098h6.832v-7.098c0-0.797-0.709-1.599-1.331-2.042
				c-0.177-0.176-0.709-0.618-1.241-0.886h2.573v-0.708h-6.743V572.251z M362.781,560.184h3.194
				c-0.622,0.268-1.598,0.977-1.776,1.244c-0.62,0.444-1.329,1.24-1.329,2.04v7.096h6.832v-7.096c0-0.8-0.799-1.596-1.332-2.04
				c-0.266-0.178-1.242-0.977-1.774-1.244h2.839v-0.708h-6.654V560.184z M326.936,539.779c0.179,0.089,0.267,0.264,0.267,0.531
				c0,0.266-0.088,0.443-0.267,0.624v1.772h0.267v0.354h-0.267h-0.177h-0.088h-0.266v-0.354h0.266v-1.597c-0.089,0-0.178,0-0.266,0
				c-0.267,0-0.533-0.266-0.711-0.534c0.179,0.089,0.355,0.178,0.533,0.178c0.444,0,0.798-0.354,0.798-0.711
				C327.026,539.957,327.026,539.868,326.936,539.779L326.936,539.779z M326.76,543.06c7.452,4.528,3.638,5.946,4.258,6.833h-8.34
				C323.3,548.918,318.952,547.765,326.76,543.06L326.76,543.06z"/>
			<path style="fill-rule:evenodd;clip-rule:evenodd;fill:#0089D1;" d="M444.314,453.72h-1.594v-6.92v-4.436l-0.179,0.176
				l-0.267-0.176V446l-0.354-0.443l-0.354,0.622l-0.356,0.621l-0.443-0.621l-0.355-0.622l-0.442,0.622l-0.355,0.621l-0.442-0.621
				l-0.355-0.622l-0.443,0.622l-0.357,0.621l-0.354-0.621l-0.444-0.622l-0.355,0.622l-0.442,0.621l-0.354-0.621l-0.443-0.622
				l-0.353,0.622l-0.357,0.621l-0.446-0.621l-0.354-0.622l-0.442,0.622l-0.355,0.621l-0.444-0.621l-0.352-0.622l-0.444,0.622
				l-0.354,0.621l-0.359-0.621l-0.442-0.622l-0.354,0.622l-0.442,0.621l-0.354-0.621l-0.444-0.622l-0.354,0.622l-0.354,0.621
				l-0.446-0.621l-0.355-0.622l-0.442,0.622l-0.354,0.621l-0.443-0.621l-0.353-0.622l-0.445,0.622l-0.354,0.621l-0.354-0.621
				l-0.445-0.622l-0.354,0.622l-0.443,0.621l-0.354-0.621l-0.444-0.622l-0.353,0.622l-0.355,0.621l-0.442-0.621l-0.354-0.622
				l-0.446,0.622l-0.355,0.621l-0.443-0.621l-0.355-0.622l-0.442,0.622l-0.355,0.621l-0.353-0.621l-0.444-0.622l-0.357,0.622
				l-0.443,0.621l-0.354-0.621l-0.444-0.622l-0.355,0.622l-0.353,0.621l-0.443-0.621l-0.353-0.622l-0.359,0.532v-3.725l-0.265,0.176
				l-0.268-0.176v4.436v6.92h-1.506v-4.435l-0.176,0.265l-0.267-0.265v4.435v32.382h32.381V453.72v-4.435l-0.267,0.265l-0.178-0.265
				V453.72z M445.292,592.477h-34.337v-20.491h34.337V592.477z M441.92,570.388v-19.163h-1.42v19.163h-1.065v-19.163h-1.509v19.163
				h-1.064v-19.163h-1.418v19.163h-1.154v-19.163h-1.42v19.163h-1.15v-19.163h-1.422v19.163h-1.152v-19.163h-1.421v19.163h-1.152
				v-19.163h-1.419v19.163h-1.065v-19.163h-1.508v19.163h-1.064v-19.163h-1.421v19.163h-1.154v-19.163h-1.42v19.163h-1.153v-19.163
				h-1.418v19.163h-1.154v-39.659h29.278v39.659H441.92z M440.5,550.158h1.42v-18.541h-1.42V550.158z M414.949,550.158h1.418
				v-18.541h-1.418V550.158z M417.521,550.158h1.42v-18.541h-1.42V550.158z M420.095,550.158h1.421v-18.541h-1.421V550.158z
				 M422.579,550.158h1.508v-18.541h-1.508V550.158z M425.152,550.158h1.419v-18.541h-1.419V550.158z M427.724,550.158h1.421
				v-18.541h-1.421V550.158z M430.297,550.158h1.422v-18.541h-1.422V550.158z M432.869,550.158h1.42v-18.541h-1.42V550.158z
				 M435.443,550.158h1.418v-18.541h-1.418V550.158z M437.926,550.158h1.509v-18.541h-1.509V550.158z M415.659,441.39l-1.066-0.891
				l-0.975,0.891l0.975,1.064L415.659,441.39z M443.516,441.39l-0.975-0.891l-0.976,0.891l0.976,1.064L443.516,441.39z
				 M445.47,448.309l-0.979-0.888l-0.886,0.888l0.886,1.064L445.47,448.309z M413.528,448.309l-0.885-0.888l-0.976,0.888
				l0.976,1.064L413.528,448.309z M414.325,440.588v-0.621h0.532v0.621l-0.265-0.266L414.325,440.588z M442.274,440.588v-0.621
				h0.445v0.621l-0.179-0.266L442.274,440.588z M412.377,447.508V446.8h0.442v0.621l-0.176-0.179L412.377,447.508z M444.314,447.421
				V446.8h0.444v0.708l-0.267-0.266L444.314,447.421z M421.603,435.444L417.343,446l0.089,0.089l0.089,0.178l0.801-1.153
				l0.619,0.976l0.179,0.178l0.178-0.178l0.619-0.976l0.799,1.242l0.176-0.267l0.625-1.062l0.531,1.062l0.266,0.267l0.709-1.242
				l0.709,0.976l0.09,0.178l0.177-0.178l0.621-0.976l0.624,0.976l0.176,0.178l0.179-0.178l0.621-0.976l0.619,0.976l0.178,0.267
				l0.176-0.267l0.62-1.062l0.536,1.062l0.266,0.267l0.09-0.267l0.619-0.976l0.71,0.976l0.089,0.178l0.797-1.153l0.624,0.976
				l0.178,0.178l0.177-0.178l0.621-0.976l0.797,1.242l0.177-0.267l0.621-1.062l0.62,1.062l0.181,0.267l0.709-1.242l0.71,0.976
				l0.088,0.178l0.798-1.153l0.62,0.976l0.179,0.178l0.18-0.178l0.62-0.976l0.798,1.153l0.089-0.178l0.089-0.089l-4.259-10.556
				H421.603z M423.021,442.629l-0.885-1.51l-0.267-0.354l-1.155,1.863l0.355,0.178l0.801-1.329l0.709,1.329L423.021,442.629z
				 M429.678,439.08l-0.888-1.599l-0.178-0.354l-1.155,1.952l0.353,0.179l0.802-1.334l0.709,1.334L429.678,439.08z M434.111,439.08
				l-0.975-1.599l-0.178-0.354l-1.152,1.952l0.355,0.179l0.797-1.334l0.71,1.334L434.111,439.08z M436.331,442.629l-0.976-1.51
				l-0.177-0.354l-1.067,1.863l0.266,0.178l0.802-1.329l0.796,1.329L436.331,442.629z M431.807,442.629l-0.8-1.51l-0.267-0.354
				l-1.152,1.863l0.354,0.178l0.799-1.329l0.801,1.329L431.807,442.629z M427.368,442.629l-0.797-1.51l-0.266-0.354l-1.153,1.863
				l0.355,0.178l0.799-1.329l0.709,1.329L427.368,442.629z M425.685,439.08l-0.802-1.599l-0.266-0.354l-1.152,1.952l0.354,0.179
				l0.798-1.334l0.712,1.334L425.685,439.08z M418.852,448.397h-3.193v4.347h3.193V448.397z M441.031,448.397h-3.105v4.347h3.105
				V448.397z M436.685,448.397h-3.284v4.347h3.284V448.397z M432.251,448.397h-3.284v4.347h3.284V448.397z M427.81,448.397h-3.281
				v4.347h3.281V448.397z M423.288,448.397h-3.193v4.347h3.193V448.397z M429.852,408.56h-2.572v-1.863h2.572V408.56z
				 M421.516,422.846l-0.979-0.976l-0.976,0.976l0.976,0.975L421.516,422.846z M437.571,422.846l-0.975-0.976l-0.976,0.976
				l0.976,0.975L437.571,422.846z M436.064,426.659l-0.354,0.71l-0.355,0.71h-0.087l-0.269-0.71l-0.444-0.71l-0.444,0.71
				l-0.267,0.71l0,0l-0.354-0.71l-0.442-0.71l-0.354,0.71l-0.354,0.71l0,0l-0.355-0.71l-0.354-0.71l-0.447,0.71l-0.354,0.71l0,0
				l-0.354-0.71l-0.354-0.71l-0.442,0.71l-0.268,0.71h-0.089l-0.354-0.71l-0.354-0.71l-0.446,0.71l-0.266,0.71h-0.09l-0.353-0.71
				l-0.355-0.71l-0.442,0.71l-0.268,0.71h-0.087l-0.355-0.71l-0.354-0.71l-0.444,0.71l-0.268,0.71h-0.085l-0.358-0.71l-0.443-0.71
				l-0.355,0.71l-0.354,0.71l0,0l-0.267-0.71l-0.442-0.71l-0.442,0.71l-0.267,0.71h-0.088l-0.267-0.71l-0.446-0.71l-0.266,0.442
				v-3.105l-0.267,0.179l-0.266-0.179v4.083l0,0v6.833h16.59v-6.833l0,0v-4.083l-0.265,0.179l-0.266-0.179v3.105L436.064,426.659z
				 M428.612,405.633c0,0.267-0.089,0.532-0.089,0.8h0.089C428.612,406.165,428.612,405.899,428.612,405.633L428.612,405.633z
				 M428.259,408.828c-0.978,6.122-3.818,11.532-5.769,17.299v-0.089l0.71,1.242l0.088,0.176l0.709-1.418l0.709,1.242l0.093,0.176
				l0.085-0.176l0.713-1.242l0.709,1.418l0.087-0.176l0.71-1.242l0.708,1.418l0.09-0.176l0.712-1.242l0.621,1.242l0.088,0.176
				l0.089-0.176l0.71-1.242l0.708,1.418l0.089-0.176l0.713-1.242l0.709,1.418l0.088-0.176l0.71-1.242l0.532,1.242l0.176,0.176
				l0.089-0.176l0.622-1.242c0.176-0.266-5.411-14.728-5.766-17.21H428.259z M429.678,417.166l-0.888-1.419l-0.178-0.442
				l-1.155,1.861l0.353,0.265l0.802-1.329l0.709,1.329L429.678,417.166z M426.306,424.798l-0.799-1.599l-0.265-0.353l-1.155,1.952
				l0.354,0.179l0.802-1.423l0.708,1.423L426.306,424.798z M429.678,424.798l-0.888-1.599l-0.178-0.353l-1.155,1.952l0.353,0.179
				l0.802-1.423l0.709,1.423L429.678,424.798z M433.048,424.798l-0.886-1.599l-0.267-0.353l-1.155,1.952l0.442,0.179l0.713-1.423
				l0.798,1.423L433.048,424.798z M427.724,421.157l-0.887-1.597l-0.266-0.353l-1.064,1.95l0.354,0.179l0.71-1.418l0.797,1.418
				L427.724,421.157z M431.63,421.157l-0.89-1.597l-0.178-0.353l-1.152,1.95l0.268,0.179l0.885-1.418l0.709,1.418L431.63,421.157z
				 M420.271,421.781v-0.624h0.532v0.624l-0.267-0.265L420.271,421.781z M436.331,421.781v-0.624h0.53v0.624l-0.265-0.265
				L436.331,421.781z M423.643,429.411h-2.485v4.436h2.485V429.411z M435.975,429.411h-2.484v4.436h2.484V429.411z M432.869,429.411
				h-2.484v4.436h2.484V429.411z M429.852,429.411h-2.484v4.436h2.484V429.411z M426.748,429.411h-2.484v4.436h2.484V429.411z
				 M440.678,528.513h1.421v-20.228h-1.421V528.513z M415.038,528.513h1.418v-20.228h-1.418V528.513z M417.609,528.513h1.421
				v-20.228h-1.421V528.513z M420.184,528.513h1.42v-20.228h-1.42V528.513z M422.757,528.513h1.418v-20.228h-1.418V528.513z
				 M425.33,528.513h1.418v-20.228h-1.418V528.513z M427.81,528.513h1.511v-20.228h-1.511V528.513z M430.385,528.513h1.422v-20.228
				h-1.422V528.513z M432.959,528.513h1.418v-20.228h-1.418V528.513z M435.532,528.513h1.418v-20.228h-1.418V528.513z
				 M438.105,528.513h1.419v-20.228h-1.419V528.513z M440.678,507.217h1.421v-18.63h-1.421V507.217z M415.038,507.217h1.418v-18.63
				h-1.418V507.217z M417.609,507.217h1.421v-18.63h-1.421V507.217z M420.184,507.217h1.42v-18.63h-1.42V507.217z M422.757,507.217
				h1.418v-18.63h-1.418V507.217z M425.33,507.217h1.418v-18.63h-1.418V507.217z M427.81,507.217h1.511v-18.63h-1.511V507.217z
				 M430.385,507.217h1.422v-18.63h-1.422V507.217z M432.959,507.217h1.418v-18.63h-1.418V507.217z M435.532,507.217h1.418v-18.63
				h-1.418V507.217z M438.105,507.217h1.419v-18.63h-1.419V507.217z M443.162,487.79h-29.189v41.52h29.189V487.79z M417.697,483.353
				h-1.684v1.688h1.684V483.353z M441.031,483.353h-1.684v1.688h1.684V483.353z M438.903,483.353h-1.686v1.688h1.686V483.353z
				 M436.773,483.353h-1.684v1.688h1.684V483.353z M434.644,483.353h-1.685v1.688h1.685V483.353z M432.517,483.353h-1.689v1.688
				h1.689V483.353z M430.385,483.353h-1.683v1.688h1.683V483.353z M428.259,483.353h-1.688v1.688h1.688V483.353z M426.128,483.353
				h-1.688v1.688h1.688V483.353z M423.997,483.353H422.4v1.688h1.597V483.353z M421.958,483.353h-1.687v1.688h1.687V483.353z
				 M419.828,483.353h-1.686v1.688h1.686V483.353z M428.612,470.929c-0.177,0-0.354-0.086-0.531-0.086l-0.624,0.623
				c-0.089,0.354-0.089,0.619-0.267,0.797c-0.088,0.089-0.265,0.089-0.442,0c-0.177-0.265-0.177-0.265-0.442-0.532
				c-0.178-0.089-0.178-0.265,0-0.442c0.176-0.181,0.442-0.27,0.709-0.27l0.709-0.618c-0.177-0.09-0.177-0.356-0.177-0.532
				c0-0.089,0-0.179,0-0.268l-6.39-6.831c0,0,0-0.089,0-0.177h0.178c0-0.087,0.089-0.087,0.089,0l6.742,6.3
				c0.093-0.088,0.27-0.088,0.446-0.088c0.178,0,0.444,0.088,0.621,0.177l1.064-0.975c-0.089,0-0.177-0.089-0.177-0.181
				c-0.179-0.089-0.179-0.356,0-0.442c0.177-0.179,0.62-0.268,1.063-0.268l0.177-0.176v-0.445h0.624v0.532h-0.354l-0.27,0.268
				c0,0.442,0,0.888-0.177,1.065c-0.176,0.09-0.442,0.09-0.53,0c-0.09-0.089-0.09-0.089-0.09-0.089l-1.064,1.064
				c0.089,0.176,0.179,0.354,0.179,0.532c0,0.176-0.09,0.266-0.09,0.354c0.265,0.443,0.797,0.797,1.329,0.976c0,0,0.09,0,0.09,0.092
				c0,0.089,0,0.178-0.09,0.178c-0.177,0-0.177,0.087-0.177,0.176c-0.088,0-0.088,0.089-0.088,0.178c0,0.09-0.09,0.179-0.09,0.179
				c-0.178,0-0.266,0-0.266,0.087c-0.089,0-0.177,0.089-0.177,0.178h-0.089c-0.09,0.089-0.09,0-0.179,0
				c-0.175-0.621-0.531-0.975-1.062-1.334C428.79,470.929,428.702,470.929,428.612,470.929L428.612,470.929z M428.347,460.638
				c-0.181,0-0.446,0-0.623,0l-0.088-1.15h-0.089c0.264,0,0.534,0,0.8,0V460.638z M427.19,460.728
				c-0.265,0.089-0.53,0.089-0.798,0.178l-0.265-1.152l0,0c0.265-0.09,0.62-0.179,0.975-0.179l0,0L427.19,460.728z M425.95,460.992
				c-0.178,0.09-0.354,0.179-0.62,0.179l-0.446-1.064c0.268-0.09,0.534-0.177,0.802-0.265l0,0L425.95,460.992z M424.976,461.351
				c-0.27,0.179-0.535,0.266-0.801,0.355l-0.62-0.978c0.266-0.178,0.62-0.354,0.975-0.443L424.976,461.351z M423.73,461.973
				c-0.176,0.175-0.354,0.265-0.53,0.354l-0.71-0.976c0.267-0.088,0.443-0.269,0.71-0.445L423.73,461.973z M422.846,462.592
				c-0.178,0.177-0.267,0.267-0.445,0.355l0.179,0.176c0.089-0.089,0.267-0.265,0.354-0.354h0.088l0,0l0.09-0.089
				c0.265-0.175,0.443-0.353,0.709-0.532l0,0h0.088l1.864,3.284c-0.176,0.089-0.354,0.176-0.442,0.266l0.177,0.178
				c0.799-0.71,1.861-1.065,3.105-1.065c1.24,0,2.483,0.533,3.371,1.329h0.355l0,0c-0.267-0.265-0.532-0.532-0.89-0.708l1.775-3.284
				h0.089l0,0c0.355,0.268,0.62,0.444,0.976,0.711l0.088,0.089l0,0c0.179,0.176,0.354,0.354,0.623,0.529
				c0.179,0.268,0.443,0.533,0.711,0.8v0.089l0.088,0.087c0.176,0.27,0.354,0.447,0.442,0.713l-3.193,1.861
				c-0.179-0.265-0.443-0.619-0.621-0.887v0.443c0.71,0.8,1.242,2.042,1.242,3.284c0,1.421-0.621,2.66-1.507,3.636
				c-0.979,0.888-2.221,1.512-3.55,1.512c-1.422,0-2.662-0.624-3.637-1.512c-0.978-0.976-1.51-2.215-1.51-3.636
				c0-1.153,0.354-2.22,1.064-3.018l-0.179-0.177c-0.087,0.089-0.176,0.267-0.264,0.353l-3.196-1.861
				c0.179-0.355,0.444-0.713,0.713-0.978v-0.09l0,0c0.089,0,0.089-0.088,0.179-0.175l-0.179-0.179
				c-0.088,0.09-0.088,0.179-0.18,0.266l-0.976-0.797c0.179-0.09,0.267-0.179,0.355-0.354v-0.09c0,0,0-0.089,0-0.177v-0.177
				l0.266-0.089c0.088-0.179,0.266-0.179,0.446-0.179c0.177-0.175,0.354-0.264,0.621-0.442l0,0L422.846,462.592z M421.335,464.188
				h-0.088l-0.799-0.711l0,0l0,0l0.887,0.621V464.188z M421.157,464.365c-0.177,0.181-0.354,0.445-0.442,0.711l-0.531-0.354
				l-0.532-0.27l0,0c0.177-0.265,0.354-0.618,0.532-0.797h0.088L421.157,464.365z M420.448,465.432
				c-0.089,0.176-0.177,0.354-0.265,0.62l-1.153-0.531c0.089-0.177,0.267-0.444,0.354-0.621l0,0L420.448,465.432z M419.916,466.494
				c-0.088,0.268-0.177,0.532-0.265,0.8l-1.065-0.354h-0.089c0.089-0.357,0.268-0.621,0.354-0.975l0,0L419.916,466.494z
				 M419.651,467.469L419.651,467.469l-1.065-0.265l0,0l0,0L419.651,467.469z M419.561,467.736
				c-0.088,0.181-0.088,0.357-0.177,0.623l-1.151-0.178c0.088-0.265,0.088-0.534,0.177-0.799v0.086L419.561,467.736z
				 M419.385,468.538L419.385,468.538l-1.064-0.089l0,0v-0.09L419.385,468.538z M419.385,468.804
				c-0.088,0.264-0.088,0.531-0.088,0.796h-1.154c0-0.354,0-0.619,0.091-0.975L419.385,468.804z M419.297,470.133
				c0,0.177,0,0.442,0.088,0.621l-1.242,0.089l0,0c0-0.268,0-0.443,0-0.71H419.297z M419.385,471.196
				c0.089,0.27,0.089,0.623,0.177,0.889l-1.151,0.267l0,0c-0.089-0.354-0.177-0.621-0.177-0.975l0,0L419.385,471.196z
				 M419.651,472.263L419.651,472.263L419.651,472.263l-1.065,0.265l0,0L419.651,472.263z M419.651,472.527
				c0.088,0.179,0.177,0.357,0.265,0.532l-1.15,0.443v0.09c-0.089-0.266-0.179-0.533-0.268-0.798h0.089L419.651,472.527z
				 M420.006,473.327L420.006,473.327L420.006,473.327l-0.976,0.442l0,0v-0.089L420.006,473.327z M420.095,473.503
				c0.089,0.267,0.177,0.532,0.353,0.8l-1.063,0.623l0,0c-0.177-0.268-0.266-0.623-0.444-0.891l0.09-0.09L420.095,473.503z
				 M420.715,474.748c0.089,0.178,0.176,0.354,0.355,0.442l-1.063,0.71l0,0c-0.09-0.178-0.267-0.355-0.354-0.621l0,0
				L420.715,474.748z M421.335,475.545c0.181,0.267,0.357,0.445,0.535,0.71l-0.801,0.886h-0.089
				c-0.177-0.265-0.443-0.532-0.621-0.797l0,0L421.335,475.545z M422.226,476.608c0.175,0.089,0.265,0.268,0.442,0.354l-0.71,0.98
				h-0.088c-0.178-0.181-0.354-0.358-0.535-0.534l0,0L422.226,476.608z M423.021,477.318c0.267,0.177,0.444,0.266,0.709,0.443
				l-0.53,1.066h-0.089c-0.266-0.178-0.532-0.354-0.799-0.621l0,0L423.021,477.318z M424.175,478.031
				c0.176,0.087,0.354,0.176,0.531,0.266l-0.442,1.064c-0.267-0.089-0.533-0.179-0.709-0.354l0,0L424.175,478.031z M425.152,478.474
				c0.266,0.087,0.533,0.177,0.798,0.266l-0.265,1.153l0,0c-0.355-0.09-0.71-0.178-0.979-0.267L425.152,478.474z M426.128,478.828
				L426.128,478.828L426.128,478.828l-0.178,0.975l0,0h-0.089L426.128,478.828z M426.393,478.918c0.179,0,0.444,0.089,0.622,0.089
				l-0.178,1.15l0,0c-0.266,0-0.531-0.089-0.709-0.089l0,0L426.393,478.918z M427.19,479.094h0.09l-0.178,0.975l0,0L427.19,479.094z
				 M427.457,479.094c0.267,0,0.624,0.088,0.89,0.088v1.154c-0.357,0-0.711,0-1.066-0.089l0,0L427.457,479.094z M428.79,479.182
				c0.177,0,0.443,0,0.62-0.088l0.178,1.153v0.089c-0.267,0-0.531,0-0.798,0V479.182z M429.941,479.094
				c0.267-0.087,0.533-0.087,0.799-0.176l0.267,1.15l0,0c-0.267,0.089-0.622,0.089-0.976,0.179l0,0L429.941,479.094z
				 M431.007,478.828L431.007,478.828l0.265,0.975l0,0h-0.089L431.007,478.828L431.007,478.828z M431.183,478.739
				c0.177,0,0.358-0.089,0.624-0.179l0.444,1.066v0.089c-0.268,0.088-0.444,0.178-0.71,0.178l0,0L431.183,478.739z M431.983,478.474
				h0.089l0.354,0.976l0,0L431.983,478.474z M432.251,478.386c0.266-0.089,0.53-0.268,0.708-0.354l0.621,0.975v0.087
				c-0.267,0.088-0.621,0.267-0.887,0.442v-0.087L432.251,478.386z M433.401,477.762c0.179-0.089,0.355-0.178,0.532-0.353
				l0.71,0.978c-0.178,0.175-0.443,0.265-0.621,0.442l0,0L433.401,477.762z M434.111,477.318L434.111,477.318L434.111,477.318
				l0.62,0.8l0,0L434.111,477.318z M434.289,477.141c0.267-0.178,0.442-0.353,0.623-0.532l0.887,0.8l0,0
				c-0.267,0.265-0.53,0.534-0.799,0.71l0,0L434.289,477.141z M435.269,476.255c0.175-0.179,0.264-0.355,0.353-0.443l0.976,0.708
				c-0.089,0.178-0.266,0.357-0.443,0.531L435.269,476.255z M435.975,475.369c0.179-0.179,0.357-0.443,0.444-0.711l1.064,0.621
				c-0.176,0.354-0.353,0.621-0.532,0.887h-0.089L435.975,475.369z M436.685,474.303c0.088-0.179,0.176-0.357,0.265-0.533
				l1.155,0.443c-0.18,0.265-0.269,0.445-0.357,0.713h-0.088L436.685,474.303z M437.129,473.327c0.088-0.267,0.265-0.532,0.265-0.8
				l1.156,0.268h0.089c-0.179,0.354-0.267,0.708-0.355,0.975L437.129,473.327z M437.571,472.085c0-0.176,0.09-0.443,0.09-0.619
				l1.242,0.176c-0.088,0.178-0.088,0.443-0.177,0.71l0,0L437.571,472.085z M437.749,471.196L437.749,471.196l1.066,0.181l0,0
				h-0.089L437.749,471.196z M437.749,470.929c0.088-0.265,0.088-0.529,0.088-0.796h1.155c0,0.353,0,0.621-0.089,0.975
				L437.749,470.929z M437.837,469.6c0-0.175,0-0.354-0.088-0.532l1.243-0.176l0,0c0,0.176,0,0.443,0,0.708H437.837z
				 M437.749,468.804L437.749,468.804v-0.09l1.066-0.089l0,0v0.089L437.749,468.804z M437.749,468.538
				c-0.088-0.268-0.088-0.532-0.178-0.802l1.155-0.267v-0.086c0.089,0.353,0.177,0.71,0.177,1.066l0,0L437.749,468.538z
				 M437.482,467.294c-0.089-0.268-0.176-0.444-0.266-0.621l1.155-0.444l0,0c0.088,0.266,0.178,0.444,0.178,0.711l0,0
				L437.482,467.294z M437.129,466.407L437.129,466.407l0.977-0.442l0,0v0.087L437.129,466.407z M437.04,466.228
				c-0.09-0.264-0.179-0.531-0.355-0.797l0.976-0.532h0.088c0.177,0.266,0.267,0.621,0.446,0.887L437.04,466.228z M436.419,465.076
				c-0.088-0.177-0.178-0.354-0.266-0.53l0.887-0.712c0.177,0.176,0.354,0.442,0.442,0.618L436.419,465.076z M435.799,464.098
				c-0.178-0.175-0.355-0.354-0.53-0.621l0.885-0.797c0.178,0.268,0.443,0.533,0.62,0.71v0.087L435.799,464.098z M434.912,463.213
				c-0.089-0.179-0.268-0.354-0.446-0.444l0.713-0.974c0.177,0.178,0.442,0.353,0.62,0.531L434.912,463.213z M434.289,462.592
				L434.289,462.592l0.711-0.797l0,0l-0.623,0.797H434.289z M434.111,462.505c-0.267-0.179-0.442-0.357-0.71-0.532l0.621-0.98
				c0.267,0.179,0.533,0.358,0.801,0.537L434.111,462.505z M432.959,461.795c-0.178-0.179-0.355-0.266-0.532-0.354l0.442-1.066l0,0
				c0.268,0.087,0.444,0.176,0.711,0.354L432.959,461.795z M431.983,461.263c-0.265-0.092-0.534-0.181-0.801-0.271l0.358-1.15l0,0
				c0.266,0.088,0.621,0.265,0.886,0.354l0,0L431.983,461.263z M430.74,460.905c-0.178-0.089-0.443-0.089-0.62-0.178l0.177-1.153
				c0.266,0.089,0.531,0.089,0.71,0.179l0,0L430.74,460.905z M429.941,460.728h-0.089l0,0l0.179-1.064l0,0L429.941,460.728z
				 M429.678,460.728c-0.268-0.09-0.621-0.09-0.888-0.09v-1.15c0.354,0,0.709,0,1.062,0L429.678,460.728z M424.264,461.973
				c0.266-0.178,0.442-0.268,0.712-0.443h0.088l0.267-0.089l0,0c0.267-0.09,0.442-0.178,0.709-0.27h0.089l0.178-0.089h0.176
				c0.267-0.09,0.533-0.09,0.799-0.177l0,0h0.088h0.267h0.088v-0.089c0.177,0,0.442,0,0.623,0v3.729
				c-0.8,0.087-1.599,0.265-2.219,0.619L424.264,461.973z M428.79,460.816c0.267,0,0.531,0,0.798,0.089l0,0h0.09h0.264h0.09
				c0.266,0.087,0.443,0.087,0.621,0.177l0,0h0.088l0.267,0.089h0.089c0.264,0.092,0.534,0.18,0.8,0.27v0.089h0.088
				c0.089,0,0.179,0.087,0.268,0.087l0,0l0.088,0.089l0,0c0.178,0,0.354,0.179,0.53,0.268l-1.862,3.192
				c-0.71-0.355-1.419-0.532-2.217-0.619V460.816z M436.508,465.607c0.178,0.268,0.266,0.532,0.354,0.8l0,0l0.089,0.087
				c0,0.089,0,0.179,0.09,0.179v0.089l0,0c0.089,0.265,0.177,0.621,0.267,0.975l0,0l0,0c0.176,0.623,0.265,1.244,0.265,1.952h-3.727
				c0-0.797-0.265-1.596-0.531-2.22L436.508,465.607z M437.571,470.133c0,0.267,0,0.531-0.089,0.796l0,0l0,0
				c0,0.359-0.089,0.713-0.176,1.069l0,0l0,0c-0.178,0.797-0.445,1.505-0.799,2.215l-3.283-1.861c0.355-0.71,0.532-1.423,0.62-2.219
				H437.571z M436.241,474.569c-0.088,0.268-0.267,0.532-0.442,0.8l-0.178,0.176l-0.089,0.089l0,0
				c-0.177,0.178-0.264,0.356-0.354,0.442l-0.179,0.09l-0.088,0.178l0,0l-0.181,0.089h0.092c-0.267,0.176-0.446,0.355-0.623,0.53
				h-0.089v0.088l-0.089,0.09c-0.266,0.178-0.442,0.268-0.709,0.443l-1.864-3.281c0.27-0.179,0.623-0.443,0.89-0.71
				c0.266-0.266,0.53-0.533,0.709-0.887L436.241,474.569L436.241,474.569L436.241,474.569z M432.869,477.853
				c-0.176,0.089-0.442,0.265-0.707,0.354v-0.089l-0.179,0.089l-0.088,0.09l-0.177,0.089l0,0l0,0c-0.178,0-0.359,0.088-0.536,0.175
				l0,0h-0.087c-0.089,0-0.268,0.09-0.355,0.09h-0.088l0,0c-0.355,0.089-0.621,0.178-0.975,0.178h-0.179l0,0
				c-0.266,0.09-0.442,0.09-0.709,0.09v-3.728c0.798-0.089,1.507-0.265,2.217-0.621L432.869,477.853z M428.347,478.918
				c-0.266,0-0.536,0-0.8-0.09l0,0l0,0c-0.09,0-0.179,0-0.267,0h-0.09h-0.088c-0.266-0.089-0.442-0.089-0.621-0.178l0,0l0,0
				c-0.442-0.09-0.885-0.265-1.329-0.443h-0.089l0,0c-0.265-0.089-0.534-0.265-0.8-0.354l1.864-3.284
				c0.709,0.357,1.419,0.532,2.219,0.621V478.918z M423.82,477.584c-0.178-0.089-0.444-0.266-0.709-0.443h0.089l-0.089-0.09
				l-0.266-0.088v-0.087h-0.089l0,0c-0.089-0.179-0.267-0.268-0.444-0.443h0.088l-0.088-0.089l-0.176-0.178l-0.179-0.09
				c-0.176-0.176-0.355-0.354-0.534-0.618h0.092h-0.092l-0.177-0.268l-0.09-0.089c-0.088-0.176-0.177-0.354-0.267-0.532l0,0l0,0
				h-0.087l3.283-1.863c0.264,0.354,0.442,0.621,0.797,0.887c0.268,0.267,0.534,0.531,0.889,0.798L423.82,477.584L423.82,477.584
				L423.82,477.584z M420.627,474.213c-0.179-0.268-0.268-0.532-0.356-0.886l0,0h-0.088c-0.089-0.267-0.178-0.621-0.268-0.887l0,0
				l0,0c-0.088-0.178-0.088-0.267-0.088-0.442l0,0l0,0c-0.177-0.621-0.267-1.244-0.267-1.865h3.727c0,0.796,0.267,1.509,0.62,2.219
				L420.627,474.213z M419.561,469.689c0-0.264,0-0.621,0.09-0.885l0,0l0,0c0-0.179,0-0.266,0-0.444l0,0l0,0
				c0.088-0.178,0.088-0.442,0.177-0.623l0,0l0,0c0-0.179,0-0.267,0.088-0.353v-0.089l0,0c0.09-0.268,0.179-0.532,0.268-0.711l0,0
				l0.088-0.176v-0.089c0-0.09,0.088-0.09,0.088-0.179l0,0l0,0c0.089-0.175,0.178-0.353,0.268-0.532l3.281,1.861
				c-0.354,0.713-0.62,1.423-0.62,2.22H419.561z M440.589,457.801h-11.977c6.566,0,11.977,5.412,11.977,12.066V457.801z
				 M431.183,459.842L431.183,459.842h0.089l-0.265,1.064L431.183,459.842z M435.799,462.592L435.799,462.592h0.088l-0.708,0.798
				l-0.089-0.088L435.799,462.592z M438.55,467.204L438.55,467.204L438.55,467.204l-1.067,0.265L438.55,467.204z M438.55,472.527
				L438.55,472.527L438.55,472.527l-1.067-0.265l0,0L438.55,472.527z M435.887,477.141L435.887,477.141l-0.088,0.089l-0.709-0.797
				h0.089L435.887,477.141z M421.335,477.229L421.335,477.229l-0.088-0.089l0.711-0.708h0.089L421.335,477.229z M425.861,459.842
				L425.861,459.842h0.089l0.178,1.064L425.861,459.842z M432.693,460.374L432.693,460.374l-0.442,0.977L432.693,460.374z
				 M436.861,463.655L436.861,463.655l-0.887,0.71v-0.089L436.861,463.655z M438.105,473.945L438.105,473.945L438.105,473.945
				l-1.065-0.442l0,0L438.105,473.945z M436.685,476.255L436.685,476.255L436.685,476.255l-0.887-0.621L436.685,476.255z
				 M429.766,480.157L429.766,480.157l-0.088-1.063L429.766,480.157z M424.529,479.449L424.529,479.449l-0.089-0.089l0.443-0.975
				L424.529,479.449z M422.137,478.031L422.137,478.031v-0.089l0.709-0.802L422.137,478.031z M420.271,476.076L420.271,476.076
				L420.271,476.076l0.886-0.618L420.271,476.076z M418.321,471.107L418.321,471.107l1.064-0.09L418.321,471.107z M419.03,465.786
				L419.03,465.786l0.976,0.442L419.03,465.786z M422.4,461.616L422.4,461.616v-0.087l0.621,0.886v0.09L422.4,461.616z
				 M424.706,460.284L424.706,460.284L424.706,460.284l0.446,0.978l-0.089,0.088L424.706,460.284z M427.368,459.663L427.368,459.663
				l0.089,1.064L427.368,459.663z M428.612,457.801h-12.066v12.066C416.546,463.213,421.958,457.801,428.612,457.801
				L428.612,457.801z M416.546,469.867v12.066h12.066C421.958,481.934,416.546,476.52,416.546,469.867L416.546,469.867z
				 M428.612,481.934h11.977v-12.066C440.589,476.52,435.179,481.934,428.612,481.934L428.612,481.934z M428.612,481.313
				c-6.3,0-11.445-5.147-11.445-11.445c0-6.212,5.146-11.354,11.445-11.354c6.211,0,11.355,5.143,11.355,11.354
				C439.968,476.166,434.823,481.313,428.612,481.313L428.612,481.313z M438.727,480.601c-0.531,0-0.89-0.353-0.89-0.975
				c0-0.444,0.358-0.798,0.89-0.798c0.444,0,0.887,0.354,0.887,0.798C439.613,480.247,439.171,480.601,438.727,480.601
				L438.727,480.601z M438.727,460.728c-0.531,0-0.89-0.443-0.89-0.886c0-0.532,0.358-0.886,0.89-0.886
				c0.444,0,0.887,0.354,0.887,0.886C439.613,460.284,439.171,460.728,438.727,460.728L438.727,460.728z M418.587,460.728
				c-0.534,0-0.89-0.443-0.89-0.886c0-0.532,0.355-0.886,0.89-0.886c0.532,0,0.887,0.354,0.887,0.886
				C419.474,460.284,419.119,460.728,418.587,460.728L418.587,460.728z M418.587,480.601c-0.534,0-0.89-0.353-0.89-0.975
				c0-0.444,0.355-0.798,0.89-0.798c0.532,0,0.887,0.354,0.887,0.798C419.474,480.247,419.119,480.601,418.587,480.601
				L418.587,480.601z M440.942,457.443v24.845h-24.751v-24.845H440.942z M441.031,454.785h-1.684v1.772h1.684V454.785z
				 M417.697,454.785h-1.684v1.772h1.684V454.785z M419.828,454.785h-1.686v1.772h1.686V454.785z M421.958,454.785h-1.687v1.772
				h1.687V454.785z M423.997,454.785H422.4v1.772h1.597V454.785z M426.128,454.785h-1.688v1.772h1.688V454.785z M428.259,454.785
				h-1.688v1.772h1.688V454.785z M430.385,454.785h-1.683v1.772h1.683V454.785z M432.517,454.785h-1.689v1.772h1.689V454.785z
				 M434.644,454.785h-1.685v1.772h1.685V454.785z M436.773,454.785h-1.684v1.772h1.684V454.785z M438.903,454.785h-1.686v1.772
				h1.686V454.785z M415.038,484.862h0.355v-30.077h-0.355V484.862z M413.263,484.862h0.443v-30.077h-0.443V484.862z
				 M414.149,484.862h0.443v-30.077h-0.443V484.862z M441.744,484.862h0.53v-30.077h-0.53V484.862z M443.516,484.862h0.444v-30.077
				h-0.444V484.862z M442.631,484.862h0.442v-30.077h-0.442V484.862z"/>
			<path style="fill-rule:evenodd;clip-rule:evenodd;fill:#0089D1;" d="M771.431,482.199v-1.244l-3.637-1.773v6.123L771.431,482.199
				z M691.315,449.194h26.527v7.72h-26.527V449.194z M717.843,458.156v11.8h-26.527v-11.8H717.843z M717.843,471.819v21.202h-26.527
				v-21.202H717.843z M698.058,451.591h4.524v0.975h-4.524V451.591z M713.586,461.973v5.41h-4.262v-5.41
				c0-0.98,1.067-1.777,2.131-1.777C712.696,460.195,713.586,460.992,713.586,461.973L713.586,461.973z M706.844,461.973v5.41
				h-4.262v-5.41c0-0.98,0.89-1.777,2.131-1.777C705.864,460.195,706.844,460.992,706.844,461.973L706.844,461.973z
				 M700.012,461.973v5.41h-4.262v-5.41c0-0.98,0.89-1.777,2.131-1.777C699.032,460.195,700.012,460.992,700.012,461.973
				L700.012,461.973z M706.665,477.762h4.525v0.889h-4.525V477.762z M701.074,477.942h4.524v0.886h-4.524V477.942z M704.269,479.094
				h4.523v0.975h-4.523V479.094z M706.932,480.778h4.523v0.979h-4.523V480.778z M701.607,480.778h4.523v0.979h-4.523V480.778z
				 M698.147,489.829h4.435v0.975h-4.435V489.829z M695.929,488.676h4.525v0.976h-4.525V488.676z M693.712,487.434h4.524v0.889
				h-4.524V487.434z M710.923,487.167h4.524v0.977h-4.524V487.167z M708.35,450.523h4.523v0.98h-4.523V450.523z M701.253,453.808
				h4.523v0.978h-4.523V453.808z M656.624,518.22h44.895v35.134h-44.895V518.22z M701.519,554.863v37.614h-44.895v-37.614H701.519z
				 M689.629,582.63h7.632v1.6h-7.632V582.63z M682.443,566.571h7.631v1.599h-7.631V566.571z M673.126,566.928h7.633v1.599h-7.633
				V566.928z M678.45,568.969h7.629v1.595h-7.629V568.969z M682.886,571.808h7.633v1.597h-7.633V571.808z M673.927,571.808h7.541
				v1.597h-7.541V571.808z M667.894,587.155h7.629v1.598h-7.629V587.155z M664.256,585.115h7.63v1.596h-7.63V585.115z
				 M660.619,582.984h7.629v1.688h-7.629V582.984z M671.087,539.957v9.137h-7.186v-9.137c0-1.685,1.596-3.106,3.638-3.106
				C669.489,536.851,671.087,538.271,671.087,539.957L671.087,539.957z M694.332,539.957v9.137h-7.185v-9.137
				c0-1.685,1.508-3.106,3.549-3.106C692.646,536.851,694.332,538.271,694.332,539.957L694.332,539.957z M682.709,539.957v9.137
				h-7.187v-9.137c0-1.685,1.598-3.106,3.549-3.106C681.113,536.851,682.709,538.271,682.709,539.957L682.709,539.957z
				 M667.805,522.391h7.63v1.594h-7.63V522.391z M685.37,520.524h7.629v1.6h-7.629V520.524z M673.214,526.026h7.633v1.688h-7.633
				V526.026z M656.624,530.285h44.895v1.599h-44.895V530.285z M704.713,430.918l-8.874,7.454h18.277L704.713,430.918z
				 M712.342,438.638v9.936h-14.638v-9.936H712.342z M703.383,442.453h3.015v-2.93h-3.015V442.453z M780.924,474.569l-12.51,10.558
				h25.907L780.924,474.569z M791.481,485.838v14.105h7.898v61.307h-37.177v-61.307h8.961v-14.105H791.481z M779.06,490.627h4.173
				v-4.168h-4.173V490.627z M771.519,503.403h6.298v1.242h-6.298V503.403z M793.435,517.956v7.451h-5.945v-7.451
				c0-1.423,1.241-2.575,2.929-2.575C792.014,515.381,793.435,516.533,793.435,517.956L793.435,517.956z M783.852,517.956v7.451
				h-5.945v-7.451c0-1.423,1.33-2.575,2.928-2.575C782.432,515.381,783.852,516.533,783.852,517.956L783.852,517.956z
				 M774.271,517.956v7.451h-5.946v-7.451c0-1.423,1.333-2.575,2.93-2.575C772.94,515.381,774.271,516.533,774.271,517.956
				L774.271,517.956z M783.587,539.868h6.299v1.331h-6.299V539.868z M775.865,540.132h6.3v1.334h-6.3V540.132z M780.305,541.82
				h6.387v1.418h-6.387V541.82z M784.029,544.216h6.3v1.329h-6.3V544.216z M776.488,544.216h6.39v1.329h-6.39V544.216z
				 M771.607,556.902h6.3v1.331h-6.3V556.902z M768.591,555.217h6.3v1.329h-6.3V555.217z M765.574,553.529h6.3v1.334h-6.3V553.529z
				 M789.62,553.175h6.297v1.244h-6.297V553.175z M785.982,501.897h6.296v1.239h-6.296V501.897z M776.043,506.421h6.3v1.331h-6.3
				V506.421z M762.203,509.881h37.177v1.773h-37.177V509.881z M762.203,529.043h37.177v3.726h-37.177V529.043z M679.16,487.521
				l-15.169,12.689h31.405L679.16,487.521z M692.024,500.919v16.057h-24.663v-16.057H692.024z M676.944,506.953H682v-5.057h-5.056
				V506.953z M702.671,542.974l1.243-0.621v9.493l2.04-0.887v-9.493l4.26-2.041v9.493l1.95-0.975v-9.493l4.259-2.042v9.493
				l2.041-0.976v-9.493l4.259-2.042v9.493l1.952-0.974v-9.494l4.258-2.041v9.493l2.042-0.887v-9.582l4.258-2.042v9.493l1.953-0.886
				v-9.493l4.258-2.129v9.491l2.041-0.886v-9.493l4.169-2.039v9.493l2.041-0.978v-9.493l4.259-2.039v9.493l1.95-0.977v-9.493
				l4.261-2.041v9.495l0.887-0.354v31.938l-58.38,28.038V542.974z M767.794,485.305v1.951l-1.685-0.797v-8.162l-3.729-1.777v8.253
				l-1.685-0.888v-8.162l-3.636-1.777v8.254l-1.777-0.887v-8.164l-3.548-1.771v8.249l-1.773-0.887v-8.164l-3.641-1.684v8.071
				l-1.684-0.797v-8.16l-3.727-1.777v8.162l-1.686-0.798v-8.161l-3.639-1.776v8.164l-1.684-0.802v-8.159l-3.727-1.776v8.164
				l-1.687-0.797v-8.165l-3.638-1.772v8.16l-1.772-0.798v-8.164l-3.552-1.772v8.159l-0.443-0.175v27.505l41.967,20.138v-12.774
				h9.404v-13.486H767.794z"/>
			<path style="fill-rule:evenodd;clip-rule:evenodd;fill:#0089D1;" d="M287.102,447.421l-1.42,13.307l-47.11-5.145l1.418-13.308
				L287.102,447.421z M249.572,568.88c24.576,0,45.781,9.759,54.385,23.598H195.008C203.792,578.639,224.907,568.88,249.572,568.88
				L249.572,568.88z M228.635,532.948l50.038,5.502l-0.265,3.016l-50.129-5.501L228.635,532.948z M247.975,421.247l36.021,3.904
				l0.266-2.66l-36.022-3.905L247.975,421.247z M239.015,437.749l50.128,5.412l-0.355,3.105l-50.039-5.501L239.015,437.749z
				 M236.974,456.735l50.039,5.502l-0.266,3.107l-50.129-5.502L236.974,456.735z M234.933,475.811l50.04,5.501l-0.355,3.016
				l-50.039-5.41L234.933,475.811z M232.804,494.799l50.127,5.499l-0.443,3.105l-50.039-5.499L232.804,494.799z M230.763,513.872
				l50.039,5.502l-0.355,3.105l-50.038-5.504L230.763,513.872z M279.294,441.209l1.686-15.258l-30.254-3.284l-1.686,15.258
				L279.294,441.209z M258.711,430.208l-0.534,5.412l-5.234-0.531l0.534-5.413c0.178-1.507,1.507-2.662,2.926-2.485
				C257.823,427.369,258.889,428.7,258.711,430.208L258.711,430.208z M276.721,432.25l-0.621,5.41l-5.234-0.621l0.62-5.41
				c0.18-1.51,1.509-2.574,2.928-2.397C275.834,429.321,276.899,430.65,276.721,432.25L276.721,432.25z M267.76,431.272l-0.62,5.413
				l-5.234-0.621l0.62-5.413c0.089-1.507,1.419-2.662,2.928-2.393C266.874,428.347,267.849,429.676,267.76,431.272L267.76,431.272z
				 M244.869,445.471l-0.974,8.78l-3.106-0.354l0.975-8.783c0.09-0.71,0.799-1.242,1.686-1.155
				C244.338,444.048,244.958,444.671,244.869,445.471L244.869,445.471z M275.302,526.648L275.302,526.648l-1.065,8.785l-3.017-0.356
				l0.976-8.783c0.089-0.711,0.798-1.241,1.686-1.154C274.68,525.318,275.302,525.94,275.302,526.648L275.302,526.648z
				 M270.954,526.115L270.954,526.115l-0.975,8.875l-3.104-0.357l0.975-8.782c0.088-0.711,0.799-1.242,1.685-1.153
				C270.421,524.786,271.043,525.497,270.954,526.115L270.954,526.115z M266.607,525.761L266.607,525.761l-0.976,8.697l-3.017-0.268
				l0.888-8.872c0.089-0.71,0.886-1.155,1.774-1.065C266.074,524.343,266.695,524.965,266.607,525.761L266.607,525.761z
				 M262.349,525.229L262.349,525.229l-0.978,8.78l-3.104-0.354l0.976-8.78c0.089-0.713,0.799-1.156,1.685-1.156
				C261.816,523.898,262.436,524.521,262.349,525.229L262.349,525.229z M258,524.697L258,524.697l-0.975,8.87l-3.017-0.354
				l0.886-8.781c0.089-0.712,0.888-1.244,1.687-1.155C257.468,523.366,258.089,524.073,258,524.697L258,524.697z M253.742,524.343
				L253.742,524.343l-0.976,8.692l-3.106-0.266l0.888-8.872c0.089-0.71,0.886-1.152,1.775-1.064
				C253.209,522.922,253.831,523.542,253.742,524.343L253.742,524.343z M249.394,523.809L249.394,523.809l-0.974,8.783l-3.106-0.354
				l0.975-8.696c0.088-0.797,0.887-1.241,1.685-1.241C248.863,522.479,249.483,523.099,249.394,523.809L249.394,523.809z
				 M245.047,523.366L245.047,523.366l-0.887,8.782l-3.194-0.353l0.977-8.786c0.089-0.708,0.887-1.239,1.774-1.15
				C244.515,521.947,245.137,522.655,245.047,523.366L245.047,523.366z M240.789,522.922L240.789,522.922l-0.976,8.784l-3.106-0.354
				l0.976-8.785c0.089-0.708,0.888-1.24,1.686-1.15C240.169,521.505,240.878,522.124,240.789,522.922L240.789,522.922z
				 M236.441,522.391L236.441,522.391l-0.886,8.782l-3.193-0.356l0.975-8.693c0.088-0.798,0.799-1.241,1.685-1.241
				C235.909,521.062,236.53,521.68,236.441,522.391L236.441,522.391z M277.342,507.396L277.342,507.396l-0.888,8.783l-3.193-0.354
				l0.975-8.786c0.089-0.707,0.799-1.151,1.686-1.151C276.81,506.065,277.43,506.685,277.342,507.396L277.342,507.396z
				 M273.083,506.953L273.083,506.953l-1.064,8.782l-3.017-0.354l0.976-8.785c0.089-0.708,0.798-1.239,1.687-1.15
				C272.462,505.532,273.083,506.242,273.083,506.953L273.083,506.953z M268.736,506.507L268.736,506.507l-0.976,8.786l-3.106-0.355
				l0.977-8.874c0.088-0.619,0.797-1.151,1.685-1.062C268.203,505.09,268.825,505.711,268.736,506.507L268.736,506.507z
				 M264.477,505.978L264.477,505.978l-1.063,8.782l-3.017-0.264l0.886-8.785c0.177-0.798,0.887-1.241,1.774-1.241
				C263.857,504.646,264.477,505.267,264.477,505.978L264.477,505.978z M260.131,505.532L260.131,505.532l-0.978,8.785l-3.104-0.358
				l0.977-8.781c0.089-0.708,0.798-1.242,1.686-1.155C259.598,504.111,260.219,504.824,260.131,505.532L260.131,505.532z
				 M255.783,505.09L255.783,505.09l-0.976,8.782l-3.016-0.356l0.886-8.87c0.089-0.623,0.889-1.155,1.686-1.065
				C255.251,503.669,255.872,504.29,255.783,505.09L255.783,505.09z M251.524,504.559L251.524,504.559l-0.976,8.781l-3.106-0.267
				l0.978-8.783c0-0.8,0.796-1.243,1.685-1.243C250.992,503.226,251.611,503.847,251.524,504.559L251.524,504.559z M247.176,504.111
				L247.176,504.111l-0.976,8.785l-3.017-0.355l0.888-8.784c0.088-0.71,0.886-1.242,1.685-1.063
				C246.644,502.693,247.266,503.403,247.176,504.111L247.176,504.111z M242.83,503.669L242.83,503.669l-0.887,8.785l-3.194-0.356
				l0.975-8.872c0.089-0.621,0.888-1.153,1.774-1.064C242.298,502.251,243.006,502.872,242.83,503.669L242.83,503.669z
				 M238.571,503.136L238.571,503.136l-0.976,8.787l-3.106-0.269l0.976-8.782c0.089-0.8,0.888-1.242,1.687-1.242
				C237.949,501.807,238.661,502.428,238.571,503.136L238.571,503.136z M279.471,488.144L279.471,488.144l-0.975,8.783l-3.105-0.267
				l0.975-8.87c0.088-0.713,0.798-1.156,1.685-1.067C278.851,486.813,279.56,487.434,279.471,488.144L279.471,488.144z
				 M275.125,487.698L275.125,487.698l-0.889,8.785l-3.193-0.355l0.976-8.784c0.089-0.71,0.886-1.242,1.686-1.152
				C274.591,486.28,275.212,486.988,275.125,487.698L275.125,487.698z M270.866,487.256L270.866,487.256l-0.975,8.783l-3.106-0.354
				l0.975-8.783c0.089-0.71,0.799-1.242,1.685-1.153C270.245,485.838,270.866,486.459,270.866,487.256L270.866,487.256z
				 M266.518,486.723L266.518,486.723l-0.975,8.785l-3.106-0.267l0.978-8.782c0.088-0.8,0.797-1.242,1.685-1.154
				C265.985,485.394,266.607,486.013,266.518,486.723L266.518,486.723z M262.259,486.28L262.259,486.28l-1.066,8.783l-3.017-0.354
				l0.889-8.784c0.177-0.709,0.887-1.242,1.774-1.153C261.637,484.862,262.259,485.57,262.259,486.28L262.259,486.28z
				 M257.911,485.838L257.911,485.838l-0.975,8.782l-3.105-0.356l0.975-8.78c0.088-0.711,0.799-1.245,1.685-1.155
				C257.38,484.417,258,485.127,257.911,485.838L257.911,485.838z M253.565,485.394L253.565,485.394l-0.977,8.692l-3.017-0.265
				l0.887-8.781c0.089-0.802,0.887-1.244,1.775-1.155C253.032,483.971,253.654,484.595,253.565,485.394L253.565,485.394z
				 M249.306,484.862L249.306,484.862l-0.976,8.78l-3.105-0.354l0.975-8.78c0-0.713,0.799-1.246,1.686-1.067
				C248.774,483.528,249.394,484.149,249.306,484.862L249.306,484.862z M244.958,484.417L244.958,484.417l-0.975,8.783l-3.017-0.354
				l0.889-8.785c0.088-0.708,0.886-1.24,1.685-1.151C244.426,482.996,245.047,483.707,244.958,484.417L244.958,484.417z
				 M240.7,483.971L240.7,483.971l-0.976,8.697l-3.194-0.265l0.976-8.786c0.089-0.797,0.886-1.239,1.774-1.15
				C240.169,482.553,240.789,483.175,240.7,483.971L240.7,483.971z M281.511,468.98L281.511,468.98l-0.886,8.692l-3.106-0.265
				l0.976-8.87c0-0.713,0.798-1.155,1.597-1.069C280.979,467.558,281.689,468.182,281.511,468.98L281.511,468.98z M277.253,468.449
				L277.253,468.449l-0.976,8.78l-3.106-0.353l0.978-8.694c0.088-0.799,0.798-1.242,1.686-1.242
				C276.633,467.115,277.342,467.736,277.253,468.449L277.253,468.449z M272.905,467.917L272.905,467.917l-0.886,8.87l-3.194-0.355
				l1.065-8.785c0-0.708,0.797-1.24,1.595-1.064C272.374,466.583,272.994,467.294,272.905,467.917L272.905,467.917z
				 M268.648,467.558L268.648,467.558l-0.978,8.786l-3.104-0.354l0.976-8.875c0.089-0.621,0.798-1.15,1.685-1.063
				C268.026,466.14,268.648,466.762,268.648,467.558L268.648,467.558z M264.3,467.026L264.3,467.026l-0.975,8.785l-3.106-0.353
				l0.975-8.696c0.089-0.797,0.799-1.241,1.686-1.241C263.768,465.697,264.388,466.318,264.3,467.026L264.3,467.026z
				 M260.042,466.583L260.042,466.583l-1.065,8.786l-3.017-0.355l0.888-8.786c0.177-0.708,0.886-1.239,1.775-1.063
				C259.42,465.165,260.042,465.875,260.042,466.583L260.042,466.583z M255.693,466.14L255.693,466.14l-0.976,8.786l-3.106-0.357
				l0.978-8.783c0.088-0.71,0.799-1.24,1.686-1.153C255.163,464.722,255.783,465.344,255.693,466.14L255.693,466.14z
				 M251.347,465.607L251.347,465.607l-0.975,8.783l-3.017-0.355l0.886-8.691c0.18-0.798,0.889-1.246,1.776-1.246
				C250.815,464.276,251.435,464.899,251.347,465.607L251.347,465.607z M247.089,465.165L247.089,465.165l-0.977,8.78l-3.106-0.353
				l0.977-8.782c0.089-0.713,0.798-1.244,1.686-1.066C246.555,463.744,247.176,464.452,247.089,465.165L247.089,465.165z
				 M242.74,464.722L242.74,464.722l-0.976,8.781l-3.016-0.354l0.886-8.783c0.089-0.71,0.889-1.242,1.687-1.152
				C242.208,463.302,242.83,463.923,242.74,464.722L242.74,464.722z M283.642,449.727L283.642,449.727l-0.978,8.786l-3.104-0.356
				l0.976-8.872c0.089-0.621,0.886-1.153,1.774-1.065C283.108,448.309,283.73,448.931,283.642,449.727L283.642,449.727z
				 M279.294,449.194L279.294,449.194l-0.886,8.786l-3.106-0.27l0.975-8.78c0-0.8,0.799-1.246,1.598-1.246
				C278.762,447.863,279.471,448.486,279.294,449.194L279.294,449.194z M275.036,448.752L275.036,448.752l-0.976,8.781l-3.106-0.354
				l0.976-8.782c0.089-0.713,0.798-1.244,1.687-1.066C274.503,447.331,275.125,448.044,275.036,448.752L275.036,448.752z
				 M270.688,448.309L270.688,448.309l-0.887,8.781l-3.193-0.354l1.063-8.785c0-0.708,0.8-1.24,1.598-1.15
				C270.157,446.889,270.866,447.508,270.688,448.309L270.688,448.309z M266.428,447.774L266.428,447.774l-0.975,8.783l-3.104-0.265
				l0.976-8.785c0.089-0.798,0.798-1.241,1.686-1.241C265.809,446.445,266.428,447.064,266.428,447.774L266.428,447.774z
				 M262.082,447.331L262.082,447.331l-0.976,8.783L258,455.761l0.976-8.786c0.089-0.708,0.798-1.24,1.686-1.062
				C261.549,445.913,262.17,446.621,262.082,447.331L262.082,447.331z M257.823,446.889L257.823,446.889l-0.975,8.783l-3.106-0.354
				l0.975-8.785c0.089-0.708,0.799-1.24,1.686-1.151C257.202,445.471,257.823,446.089,257.823,446.889L257.823,446.889z
				 M253.477,446.355L253.477,446.355l-0.977,8.783l-3.106-0.264l0.978-8.786c0.088-0.797,0.797-1.239,1.686-1.151
				C252.943,445.027,253.565,445.646,253.477,446.355L253.477,446.355z M249.217,445.913L249.217,445.913l-1.065,8.783l-3.014-0.355
				l0.886-8.784c0.177-0.707,0.888-1.242,1.774-1.066C248.597,444.49,249.217,445.203,249.217,445.913L249.217,445.913z
				 M285.061,466.494l-1.419,13.221l-47.112-5.146l1.419-13.219L285.061,466.494z M283.02,485.57l-1.509,13.221l-47.111-5.148
				l1.508-13.218L283.02,485.57z M280.891,504.646l-1.42,13.221l-47.109-5.147l1.419-13.22L280.891,504.646z M278.851,523.63
				l-1.508,13.311l-47.022-5.146l1.418-13.308L278.851,523.63z M276.721,542.707l-3.017,28.037c-0.71-0.181-1.419-0.356-2.219-0.623
				l2.308-20.495c0.177-2.037-1.598-3.813-4.083-4.167c-2.483-0.268-4.612,1.15-4.791,3.281l-2.128,19.697
				c-0.798-0.09-1.508-0.179-2.307-0.268l2.129-19.695c0.177-2.041-1.597-3.902-3.992-4.17c-2.396-0.269-4.614,1.154-4.791,3.195
				l-2.22,20.051c-0.709-0.089-1.418-0.089-2.039-0.089h-0.266l2.218-20.231c0.177-2.039-1.598-3.902-3.992-4.17
				c-2.485-0.266-4.614,1.155-4.88,3.194l-2.306,21.65c-0.799,0.089-1.597,0.175-2.396,0.265l2.396-22.18
				c0.266-1.954-1.597-3.904-3.993-4.17c-2.395-0.265-4.615,1.153-4.792,3.281l-2.749,24.754c-0.888,0.176-1.864,0.442-2.751,0.708
				l3.549-33L276.721,542.707z"/>
			<path style="fill-rule:evenodd;clip-rule:evenodd;fill:#0089D1;" d="M590.973,589.374l-33.983,0.354l4.526-5.499l0,0l1.685-1.953
				l0,0l1.067-1.329l0,0l1.683-1.954l0,0l1.064-1.329l0,0l1.599-1.864l22.446-26.971l22.625,26.528
				c-0.181,0.176-0.446,0.442-0.623,0.618l14.285-13.308v-0.354v0.354c2.838,2.485,5.677,4.97,8.517,7.363
				c1.953-3.104,5.324-7.009,9.583-6.564l0,0c7.362,0.265,8.429,11.622,8.429,11.622l-3.906,0.089l0.089,2.22
				c1.422,1.418,2.484,3.192,3.105,5.143c0.088,0.089,0.088,0.179,0.178,0.268l0.269,0.354l0.089,0.266
				c0.177,0.357,0.266,0.712,0.532,1.155l-15.705,0.089c5.236,0,10.468-0.089,15.705-0.089l-0.267-0.443l-0.178-0.444l-0.088-0.268
				c0.177,0.357,0.266,0.712,0.532,1.155c0.177,0.532,0.797,2.039,0.886,2.572l8.25,0.357c1.333,0.354,2.041,0.266,2.928,4.611
				l-25.549,0.178c0.087,0.442-12.067-0.178-12.067-0.178l-25.908-0.265c0,0,0-1.599-0.177-2.31L590.973,589.374z M615.547,579.17
				L615.547,579.17c0.355,0.09,0.709,0.268,1.152,0.444C616.256,579.438,615.902,579.26,615.547,579.17L615.547,579.17z
				 M621.493,580.947c0.354,0,0.62,0,0.975,0.087C622.113,580.947,621.847,580.947,621.493,580.947L621.493,580.947z
				 M626.903,589.019c-0.267-0.266-0.621-0.443-0.976-0.619C626.282,588.575,626.637,588.753,626.903,589.019L626.903,589.019z
				 M653.342,582.809c-0.09-0.089-0.09-0.179-0.178-0.268l0,0L653.342,582.809z"/>
			<path style="fill-rule:evenodd;clip-rule:evenodd;fill:#0089D1;" d="M640.033,528.867v2.663h-13.575v14.282h5.857l-4.08,1.329
				v45.336h-8.962v-45.247l-4.169-1.418h5.943V531.53h-45.159v14.282h5.945l-4.08,1.329v45.336h-9.051v-45.247l-3.992-1.418h5.854
				V531.53H556.99v-2.663h-3.637v-1.952h17.211v-7.72h-4.081v-3.017c-5.587-0.798-11.354-1.772-17.122-2.928v-6.565
				c-2.131-0.353-4.348-0.798-6.566-1.329v-5.326c-2.484-0.442-5.055-0.976-7.539-1.505c0-1.599,0-3.194,0-4.794
				c42.675,7.188,84.815,6.742,126.427,0c0,1.6,0,3.195,0,4.794c-2.484,0.529-4.971,1.063-7.541,1.505v5.326
				c-2.131,0.531-4.35,0.976-6.565,1.418v6.477c-5.59,1.245-11.359,2.307-17.123,3.105v2.839h-3.996v7.72h17.126v1.952H640.033z
				 M579.969,517.688v1.507h-4.08v7.72h18.544v-8.517C589.641,518.31,584.851,518.045,579.969,517.688L579.969,517.688z
				 M621.048,519.195h-4.079v-1.418c-4.705,0.442-9.583,0.621-14.375,0.71v8.428h18.454V519.195z"/>
			<path style="fill-rule:evenodd;clip-rule:evenodd;fill:#0089D1;" d="M535.963,200.953c-2.484,2.306-1.771,2.04-7.539,0.355
				c-5.059-1.597-2.662-2.129-7.185,0.443c-4.083,2.396-10.737,4.792-13.844,6.654c1.156,2.574,11.092,11.002,13.488,14.462
				c-0.889,0.443-1.598,0.799-2.573,1.243c-1.509,0.709-1.154,0.709-2.928-0.355c-3.904-2.219-16.415-9.316-18.899-10.382
				c-3.281,1.42-11.978,5.857-14.992,5.679c-1.421-0.088-3.729-0.443-3.281-2.218c1.151-4.347,8.959-6.744,14.017-8.962
				c2.038-0.886,1.506-0.797,1.95-3.017c0.535-2.395,3.906-19.785,4.704-20.671c0.355-0.266,3.105-1.419,3.636-1.686
				c0.267,1.598,0.444,3.372,0.533,5.057l0.886,9.848c0,1.597,0.267,3.46,0.534,4.968c2.306-1.153,4.613-2.129,7.009-3.282
				c11.887-5.679,9.761-1.863,12.508-8.251c1.6-3.549,1.6-5.679,5.059-5.145C528.424,192.79,530.373,197.227,535.963,200.953
				L535.963,200.953z M435,132.193c3.195,0.977,2.482,1.065,6.92-3.015c3.904-3.55,1.508-3.017,6.744-2.573
				c4.611,0.354,11.709-0.266,15.347,0.088c0.089,2.751-5.321,14.64-6.032,18.808c0.976,0,1.774,0,2.837,0
				c1.689,0,1.334,0.179,2.573-1.506c2.574-3.728,10.736-15.528,12.6-17.479c3.639-0.088,13.31,0.089,15.971-1.242
				c1.242-0.709,3.194-2.129,2.039-3.549c-2.928-3.372-11.001-2.218-16.502-2.04c-2.216,0-1.685-0.089-3.107-1.863
				c-1.507-1.952-11.975-16.236-13.042-16.68c-0.443-0.088-3.459,0-3.992,0c0.355,1.597,0.979,3.195,1.599,4.791l3.46,9.315
				c0.621,1.42,1.242,3.282,1.685,4.703c-2.571-0.089-5.145,0-7.807,0c-13.131,0-9.493,2.573-14.818-2.04
				c-2.925-2.574-3.813-4.437-6.743-2.485C438.284,121.547,438.46,126.427,435,132.193L435,132.193z M433.58,123.145
				c1.332-0.177,1.775,1.863,0.265,2.129l-2.126,0.266c-1.334,0.267-1.866-1.863-0.359-2.129L433.58,123.145z M245.137,265.099
				c-0.711,1.42-2.663,0.354-2.041-0.887l0.533-1.154c0.709-1.33,2.661-0.266,1.952,0.976L245.137,265.099z M248.508,258.089
				c-0.71,1.331-2.662,0.355-1.953-0.976l0.977-1.952c0.62-1.331,2.574-0.268,1.952,0.975L248.508,258.089z M252.5,250.282
				c-0.62,1.241-2.662,0.355-1.952-0.977l1.063-1.951c0.623-1.242,2.574-0.355,1.954,1.065L252.5,250.282z M256.759,242.652
				c-0.799,1.331-2.662,0.088-1.952-1.065l1.153-1.952c0.799-1.331,2.574-0.088,1.863,1.065L256.759,242.652z M261.194,235.11
				c-0.796,1.243-2.66,0.09-1.862-1.152l1.153-1.863c0.709-1.243,2.661-0.088,1.864,1.152L261.194,235.11z M265.896,227.658
				c-0.709,1.153-2.662,0.088-1.863-1.154l1.242-1.863c0.709-1.151,2.661-0.088,1.775,1.244L265.896,227.658z M270.776,220.472
				c-0.886,1.152-2.574-0.177-1.774-1.331l1.242-1.773c0.887-1.154,2.66,0.177,1.774,1.331L270.776,220.472z M275.922,213.373
				c-0.886,1.154-2.571-0.177-1.686-1.329l1.332-1.774c0.886-1.154,2.571,0.266,1.685,1.33L275.922,213.373z M281.068,206.72
				c-0.798,0.444-1.774-0.267-1.685-1.153c-0.089-0.533,0.354-1.242,0.976-1.331l0.709-0.888c0.888-1.064,2.662,0.268,1.685,1.419
				l-0.177,0.267l0.354,0.088c1.42,0.534,0.533,2.574-0.797,2.042L281.068,206.72z M287.013,199.799
				c-1.065,1.065-2.574-0.443-1.596-1.509l1.419-1.597c1.063-1.153,2.572,0.445,1.598,1.419L287.013,199.799z M292.956,193.323
				c-0.975,1.065-2.661-0.444-1.597-1.509l1.508-1.597c0.977-1.063,2.572,0.445,1.596,1.508L292.956,193.323z M299.079,187.113
				c-1.155,0.975-2.573-0.711-1.509-1.597l1.509-1.509c1.153-1.065,2.573,0.62,1.596,1.597L299.079,187.113z M305.466,181.08
				c-1.065,0.975-2.574-0.621-1.509-1.597l1.687-1.508c1.064-0.976,2.573,0.709,1.419,1.685L305.466,181.08z M312.032,175.4
				c-0.977,0.888-2.485-0.709-1.332-1.684l1.687-1.42c1.242-0.977,2.485,0.887,1.33,1.686L312.032,175.4z M318.952,169.9
				c-1.242,0.888-2.483-0.886-1.33-1.685l1.686-1.331c1.242-0.886,2.484,0.888,1.331,1.686L318.952,169.9z M325.96,164.754
				c-1.063,0.799-2.484-0.886-1.241-1.774c0.621-0.443,1.241-0.888,1.863-1.243c1.065-0.797,2.484,0.888,1.242,1.775
				C327.203,163.957,326.582,164.311,325.96,164.754L325.96,164.754z M333.236,159.875c-1.242,0.799-2.308-1.154-1.153-1.863
				l1.863-1.154c1.243-0.797,2.396,1.154,1.154,1.863L333.236,159.875z M340.688,155.35c-1.152,0.711-2.395-1.152-1.063-1.952
				l1.952-1.063c1.152-0.711,2.395,1.152,1.064,1.951L340.688,155.35z M348.409,151.092c-1.421,0.709-2.307-1.331-1.065-1.952
				l1.951-1.065c1.332-0.621,2.308,1.419,1.065,2.04L348.409,151.092z M356.216,147.189c-1.244,0.62-2.308-1.332-0.977-2.042
				c0.709-0.266,1.331-0.621,2.04-0.887c1.242-0.622,2.218,1.33,0.888,1.952C357.545,146.566,356.836,146.833,356.216,147.189
				L356.216,147.189z M364.199,143.55c-1.418,0.534-2.128-1.508-0.886-2.041l2.04-0.886c1.419-0.534,2.128,1.595,0.799,2.04
				L364.199,143.55z M372.273,140.267c-1.332,0.533-2.128-1.508-0.798-2.041l2.129-0.797c1.242-0.533,2.129,1.507,0.71,2.041
				L372.273,140.267z M380.524,137.252c-1.331,0.442-2.128-1.599-0.709-2.042c0.709-0.266,1.419-0.532,2.128-0.709
				c1.243-0.532,2.041,1.508,0.622,2.041C381.856,136.807,381.235,136.984,380.524,137.252L380.524,137.252z M388.865,134.59
				c-1.51,0.354-1.953-1.774-0.621-2.129l2.128-0.623c1.421-0.354,1.953,1.774,0.535,2.131L388.865,134.59z M397.292,132.193
				c-1.418,0.356-1.951-1.773-0.532-2.128l2.129-0.533c1.33-0.354,1.951,1.775,0.532,2.129L397.292,132.193z M405.811,130.153
				c-1.334,0.354-2.042-1.774-0.533-2.217l2.217-0.443c1.51-0.268,1.775,1.951,0.442,2.128L405.811,130.153z M414.325,128.29
				c-1.418,0.266-1.772-1.863-0.353-2.129l2.129-0.354c1.508-0.267,1.862,1.863,0.444,2.129L414.325,128.29z M423.021,126.782
				c-1.418,0.266-1.864-1.863-0.353-2.129l2.131-0.354c1.419-0.266,1.861,1.952,0.353,2.218L423.021,126.782z M127.581,212.664
				c-2.485,2.307-1.774,2.04-7.542,0.266c-5.058-1.508-2.663-2.128-7.186,0.534c-4.082,2.306-10.737,4.79-13.841,6.654
				c1.153,2.572,11.09,11,13.485,14.46c-0.888,0.443-1.597,0.711-2.573,1.154c-1.509,0.798-1.153,0.798-2.928-0.266
				c-3.904-2.219-16.414-9.405-18.898-10.381c-3.282,1.419-11.977,5.856-14.994,5.679c-1.42-0.089-3.728-0.532-3.282-2.308
				c1.152-4.347,8.96-6.743,14.016-8.96c2.041-0.886,1.509-0.71,1.952-2.928c0.535-2.483,3.905-19.785,4.704-20.672
				c0.266-0.265,3.104-1.508,3.636-1.685c0.268,1.597,0.446,3.283,0.534,4.968l0.886,9.937c0,1.508,0.266,3.46,0.535,4.879
				c2.306-1.065,4.612-2.13,7.007-3.194c11.889-5.68,9.672-1.863,12.509-8.251c1.598-3.548,1.508-5.677,5.058-5.146
				C120.04,204.501,121.991,208.938,127.581,212.664L127.581,212.664z M125.008,203.881c-1.331,0.443-0.798,2.483,0.709,2.128
				l2.042-0.709c1.241-0.355,0.798-2.485-0.71-2.13L125.008,203.881z M356.127,251.611c1.152,0.978,2.395-0.797,1.329-1.684
				l-0.886-0.711c-1.243-0.977-2.485,0.8-1.419,1.686L356.127,251.611z M350.005,246.734c1.154,0.886,2.483-0.799,1.42-1.687
				l-1.774-1.419c-1.155-0.888-2.485,0.886-1.332,1.774L350.005,246.734z M343.085,241.409c1.064,0.888,2.483-0.797,1.329-1.774
				l-1.773-1.331c-1.153-0.797-2.572,0.888-1.33,1.776L343.085,241.409z M335.986,236.263c1.242,0.889,2.397-1.063,1.242-1.773
				l-1.862-1.243c-1.243-0.886-2.395,1.065-1.243,1.774L335.986,236.263z M328.711,231.384c1.243,0.799,2.396-1.064,1.243-1.863
				l-1.862-1.154c-1.242-0.797-2.485,0.977-1.242,1.776L328.711,231.384z M321.349,226.681c1.152,0.711,2.395-1.063,1.063-1.862
				l-1.862-1.153c-1.153-0.71-2.395,1.064-1.153,1.864L321.349,226.681z M313.717,222.247c1.421,0.709,2.307-1.242,1.155-1.952
				l-1.954-1.065c-1.329-0.711-2.305,1.242-1.063,1.952L313.717,222.247z M306.087,218.076c1.33,0.622,2.219-1.332,0.976-1.951
				l-1.951-1.065c-1.332-0.621-2.308,1.331-0.976,1.953L306.087,218.076z M298.192,214.172c1.329,0.621,2.306-1.331,0.974-2.04
				l-1.951-0.888c-1.242-0.621-2.305,1.243-0.977,1.952L298.192,214.172z M290.295,210.535c1.419,0.532,2.128-1.508,0.798-2.042
				l-2.041-0.886c-1.331-0.532-2.128,1.508-0.798,2.04L290.295,210.535z M273.97,204.147c1.509,0.443,1.952-1.686,0.71-2.04
				l-2.129-0.711c-1.508-0.443-1.951,1.686-0.709,2.04L273.97,204.147z M265.631,201.484c1.331,0.444,1.952-1.685,0.62-2.128
				l-2.129-0.621c-1.42-0.356-2.04,1.775-0.621,2.129L265.631,201.484z M257.202,199.179c1.242,0.355,2.041-1.685,0.532-2.129
				l-2.128-0.534c-1.598-0.354-1.864,1.863-0.532,2.129L257.202,199.179z M248.685,197.139c1.42,0.266,1.774-1.865,0.444-2.131
				l-2.218-0.443c-1.42-0.266-1.865,1.863-0.445,2.129L248.685,197.139z M240.08,195.541c1.329,0.267,1.862-1.863,0.354-2.218
				c-0.71-0.089-1.509-0.266-2.219-0.354c-1.329-0.266-1.862,1.862-0.354,2.217C238.571,195.274,239.37,195.364,240.08,195.541
				L240.08,195.541z M231.383,194.21c1.509,0.177,1.686-2.04,0.267-2.129l-2.129-0.267c-1.508-0.177-1.685,2.042-0.266,2.13
				L231.383,194.21z M222.689,193.323c1.42,0.088,1.687-2.041,0.178-2.218l-2.218-0.177c-1.33-0.177-1.685,2.041-0.088,2.217
				L222.689,193.323z M213.995,192.702c1.509,0.088,1.419-2.129,0.089-2.129l-2.22-0.089c-1.506-0.088-1.506,2.129-0.087,2.129
				L213.995,192.702z M205.211,192.524c1.419,0,1.508-2.217,0-2.217c-0.709,0-1.507,0-2.218,0c-1.332,0-1.508,2.217,0,2.217
				C203.792,192.524,204.502,192.524,205.211,192.524L205.211,192.524z M196.427,192.702c1.598-0.178,1.332-2.306-0.087-2.218
				l-2.129,0.089c-1.509,0.088-1.331,2.306,0.089,2.217L196.427,192.702z M187.733,193.145c1.419-0.088,1.242-2.306-0.177-2.217
				l-2.219,0.177c-1.418,0.088-1.24,2.306,0.179,2.218L187.733,193.145z M179.04,193.944c1.329-0.088,1.241-2.308-0.268-2.13
				c-0.709,0.089-1.507,0.177-2.217,0.267c-1.332,0.089-1.242,2.307,0.266,2.129C177.531,194.122,178.24,194.033,179.04,193.944
				L179.04,193.944z M170.343,195.097c1.508-0.266,0.977-2.395-0.354-2.128l-2.218,0.265c-1.419,0.356-0.976,2.485,0.354,2.22
				L170.343,195.097z M161.649,196.605c1.42-0.265,1.066-2.483-0.354-2.217l-2.217,0.443c-1.332,0.266-0.978,2.396,0.443,2.13
				L161.649,196.605z M153.132,198.29c1.331-0.177,0.978-2.395-0.531-2.128l-2.13,0.532c-1.509,0.356-0.798,2.485,0.533,2.13
				L153.132,198.29z M144.615,200.421c1.42-0.445,0.798-2.573-0.62-2.13l-2.131,0.534c-1.419,0.354-0.797,2.483,0.623,2.129
				L144.615,200.421z M136.099,202.727c1.419-0.355,0.886-2.574-0.623-2.129l-2.041,0.621c-1.331,0.355-0.886,2.484,0.623,2.129
				L136.099,202.727z M533.39,192.17c-1.329,0.444-0.797,2.483,0.71,2.129l2.042-0.709c1.24-0.356,0.887-2.485-0.71-2.042
				L533.39,192.17z M764.511,239.991c1.152,0.887,2.484-0.888,1.329-1.687l-0.886-0.797c-1.241-0.977-2.484,0.886-1.419,1.686
				L764.511,239.991z M758.389,235.11c1.155,0.888,2.484-0.887,1.422-1.773l-1.776-1.331c-1.153-0.888-2.485,0.797-1.33,1.685
				L758.389,235.11z M751.469,229.699c1.063,0.887,2.484-0.798,1.329-1.686l-1.773-1.331c-1.153-0.886-2.574,0.8-1.331,1.775
				L751.469,229.699z M744.37,224.641c1.241,0.8,2.398-1.063,1.241-1.862l-1.771-1.243c-1.334-0.797-2.485,1.066-1.244,1.865
				L744.37,224.641z M737.096,219.673c1.241,0.799,2.394-1.063,1.241-1.863l-1.86-1.153c-1.244-0.798-2.397,1.065-1.244,1.862
				L737.096,219.673z M729.73,214.971c1.155,0.798,2.396-0.976,1.155-1.863l-1.953-1.153c-1.064-0.71-2.393,1.064-1.064,1.952
				L729.73,214.971z M722.19,210.535c1.333,0.709,2.218-1.243,1.066-1.863l-1.954-1.154c-1.329-0.62-2.307,1.331-1.063,1.952
				L722.19,210.535z M714.473,206.364c1.329,0.622,2.307-1.243,0.975-1.952l-1.95-0.976c-1.333-0.709-2.218,1.331-0.978,1.954
				L714.473,206.364z M706.573,202.461c1.333,0.621,2.309-1.331,0.979-1.951l-1.954-0.977c-1.241-0.621-2.305,1.331-0.976,1.951
				L706.573,202.461z M698.68,198.824c1.421,0.532,2.13-1.509,0.798-2.042l-1.95-0.887c-1.422-0.531-2.22,1.598-0.888,2.041
				L698.68,198.824z M690.519,195.541c1.329,0.532,2.215-1.508,0.797-2.13l-2.042-0.709c-1.328-0.532-2.127,1.508-0.797,2.04
				L690.519,195.541z M682.354,192.524c1.51,0.444,1.953-1.774,0.709-2.128l-2.128-0.711c-1.51-0.443-1.952,1.685-0.709,2.129
				L682.354,192.524z M674.016,189.773c1.419,0.443,1.95-1.685,0.62-2.04l-2.131-0.621c-1.418-0.445-2.038,1.685-0.619,2.04
				L674.016,189.773z M665.586,187.468c1.244,0.354,2.041-1.686,0.531-2.131l-2.126-0.531c-1.6-0.354-1.865,1.863-0.533,2.13
				L665.586,187.468z M657.071,185.517c1.418,0.265,1.771-1.954,0.442-2.22l-2.22-0.443c-1.418-0.266-1.775,1.863-0.354,2.128
				L657.071,185.517z M648.463,183.831c1.329,0.266,1.865-1.865,0.354-2.13c-0.709-0.178-1.418-0.266-2.219-0.444
				c-1.241-0.177-1.86,1.952-0.354,2.218C647.045,183.563,647.754,183.742,648.463,183.831L648.463,183.831z M639.767,182.499
				c1.512,0.177,1.688-1.952,0.267-2.128l-2.127-0.268c-1.51-0.177-1.689,2.042-0.267,2.131L639.767,182.499z M631.074,181.611
				c1.418,0.178,1.684-2.039,0.178-2.217l-2.219-0.177c-1.329-0.089-1.685,2.04-0.089,2.217L631.074,181.611z M622.379,181.08
				c1.51,0,1.421-2.218,0.089-2.218l-2.22-0.09c-1.506,0-1.506,2.13-0.088,2.22L622.379,181.08z M613.594,180.814
				c1.421,0,1.511-2.13,0-2.219c-0.709,0-1.507,0-2.216,0c-1.333,0-1.509,2.219,0,2.219
				C612.176,180.814,612.885,180.814,613.594,180.814L613.594,180.814z M604.813,180.991c1.597-0.089,1.33-2.308-0.088-2.22
				l-2.131,0.09c-1.508,0.089-1.329,2.306,0.089,2.218L604.813,180.991z M596.117,181.434c1.422-0.088,1.333-2.306-0.177-2.129
				l-2.221,0.177c-1.418,0.089-1.24,2.218,0.179,2.128L596.117,181.434z M587.424,182.322c1.329-0.177,1.242-2.396-0.267-2.219
				c-0.711,0.089-1.508,0.178-2.217,0.268c-1.333,0.088-1.244,2.306,0.267,2.128C585.915,182.411,586.624,182.322,587.424,182.322
				L587.424,182.322z M578.729,183.386c1.507-0.266,0.975-2.395-0.354-2.129l-2.219,0.354c-1.418,0.266-0.976,2.397,0.354,2.131
				L578.729,183.386z M570.032,184.894c1.422-0.266,1.066-2.395-0.354-2.128l-2.215,0.354c-1.334,0.266-0.979,2.485,0.442,2.217
				L570.032,184.894z M561.517,186.669c1.33-0.266,0.976-2.484-0.532-2.129l-2.13,0.443c-1.506,0.445-0.798,2.485,0.532,2.131
				L561.517,186.669z M552.998,188.708c1.422-0.442,0.798-2.482-0.532-2.128l-2.218,0.533c-1.419,0.443-0.799,2.483,0.623,2.129
				L552.998,188.708z M544.571,191.016c1.33-0.354,0.798-2.485-0.623-2.128l-2.128,0.62c-1.332,0.355-0.886,2.573,0.62,2.129
				L544.571,191.016z"/>
			<path style="fill-rule:evenodd;clip-rule:evenodd;fill:#0089D1;" d="M186.402,650.058H235.2c6.564,0,11.889,5.325,11.889,11.891
				v48.797c0,6.477-5.325,11.887-11.889,11.887h-48.797c-6.565,0-11.888-5.41-11.888-11.887v-48.797
				C174.514,655.383,179.837,650.058,186.402,650.058L186.402,650.058z"/>
			<path style="fill-rule:evenodd;clip-rule:evenodd;fill:#0089D1;" d="M262.082,650.058h48.796c6.564,0,11.888,5.325,11.888,11.891
				v48.797c0,6.477-5.324,11.887-11.888,11.887h-48.796c-6.566,0-11.889-5.41-11.889-11.887v-48.797
				C250.193,655.383,255.517,650.058,262.082,650.058L262.082,650.058z"/>
			<path style="fill-rule:evenodd;clip-rule:evenodd;fill:#0089D1;" d="M337.761,650.058h48.797c6.477,0,11.889,5.325,11.889,11.891
				v48.797c0,6.477-5.413,11.887-11.889,11.887h-48.797c-6.566,0-11.888-5.41-11.888-11.887v-48.797
				C325.873,655.383,331.195,650.058,337.761,650.058L337.761,650.058z"/>
			<path style="fill-rule:evenodd;clip-rule:evenodd;fill:#0089D1;" d="M413.439,650.058h48.799c6.477,0,11.887,5.325,11.887,11.891
				v48.797c0,6.477-5.41,11.887-11.887,11.887h-48.799c-6.565,0-11.889-5.41-11.889-11.887v-48.797
				C401.551,655.383,406.874,650.058,413.439,650.058L413.439,650.058z"/>
			<path style="fill-rule:evenodd;clip-rule:evenodd;fill:#0089D1;" d="M489.12,650.058h48.798c6.476,0,11.886,5.325,11.886,11.891
				v48.797c0,6.477-5.41,11.887-11.886,11.887H489.12c-6.566,0-11.891-5.41-11.891-11.887v-48.797
				C477.229,655.383,482.554,650.058,489.12,650.058L489.12,650.058z"/>
			<path style="fill-rule:evenodd;clip-rule:evenodd;fill:#0089D1;" d="M564.8,650.058h48.794c6.477,0,11.891,5.325,11.891,11.891
				v48.797c0,6.477-5.413,11.887-11.891,11.887H564.8c-6.565,0-11.891-5.41-11.891-11.887v-48.797
				C552.909,655.383,558.234,650.058,564.8,650.058L564.8,650.058z"/>
			<path style="fill:#FFFFFF;" d="M215.593,708.882h-9.583v-37.175h-12.243v-7.894h34.069v7.894h-12.243V708.882z M575.268,708.882
				v-45.069h9.583v37.174h18.274v7.895H575.268z M526.47,708.882h-25.995v-45.069h25.995v7.806h-16.413v9.936h15.262v7.808h-15.262
				v11.624h16.413V708.882z M448.664,663.813h9.671l-15.262,45.069h-10.469l-15.35-45.069h9.671l8.518,26.793
				c0.443,1.596,0.975,3.461,1.418,5.587c0.532,2.042,0.888,3.55,0.976,4.352c0.269-1.866,0.979-5.147,2.309-9.938L448.664,663.813z
				 M373.693,708.971l-3.282-10.736h-16.502l-3.283,10.736h-10.292l15.971-45.247h11.623l16.057,45.247H373.693z M368.104,690.251
				c-3.017-9.759-4.702-15.261-5.145-16.502c-0.357-1.332-0.622-2.307-0.799-3.105c-0.709,2.66-2.662,9.136-5.855,19.607H368.104z
				 M278.051,683.773h3.017c3.017,0,5.323-0.442,6.743-1.509c1.419-0.975,2.13-2.573,2.13-4.701c0-2.129-0.711-3.726-2.22-4.614
				c-1.42-0.888-3.726-1.331-6.831-1.331h-2.84V683.773z M278.051,691.58v17.302h-9.581v-45.069h13.131
				c6.12,0,10.646,1.063,13.574,3.281c3.017,2.218,4.435,5.678,4.435,10.204c0,2.658-0.709,4.967-2.217,7.098
				c-1.421,2.04-3.461,3.638-6.123,4.878c6.743,10.115,11.179,16.681,13.22,19.608h-10.646l-10.736-17.302H278.051z"/>
		</g>
	</g>
</g>
<g id="Layer_1">
</g>
</svg>
