<?xml version="1.0" encoding="utf-8"?>
<!-- Generator: Adobe Illustrator 27.5.0, SVG Export Plug-In . SVG Version: 6.00 Build 0)  -->
<svg version="1.1" xmlns="http://www.w3.org/2000/svg" xmlns:xlink="http://www.w3.org/1999/xlink" x="0px" y="0px"
	 viewBox="0 0 500 500" style="enable-background:new 0 0 500 500;" xml:space="preserve">
<g id="OBJECTS">
	<g>
		<g>
			<g>
				
					<ellipse transform="matrix(0.7071 -0.7071 0.7071 0.7071 -84.1549 241.0278)" style="fill:#EEE6D4;" cx="248.869" cy="222.098" rx="170.059" ry="170.059"/>
				<g>
					<path style="fill:#EEE6D4;" d="M248.869,407.785c-49.599,0-96.229-19.315-131.301-54.387
						c-35.072-35.072-54.387-81.702-54.387-131.301c0-49.599,19.315-96.229,54.387-131.3C152.64,55.725,199.27,36.41,248.869,36.41
						c49.599,0,96.229,19.315,131.3,54.387c35.072,35.072,54.388,81.701,54.388,131.3c0,49.599-19.315,96.229-54.388,131.301
						C345.098,388.47,298.468,407.785,248.869,407.785z M248.869,39.36c-100.762,0-182.737,81.977-182.737,182.737
						c0,100.761,81.975,182.737,182.737,182.737s182.736-81.977,182.736-182.737C431.605,121.337,349.631,39.36,248.869,39.36z"/>
				</g>
			</g>
			<g>
				<path style="fill:#BBC8DD;" d="M355,436.746c0,3.454-2.8,6.254-6.254,6.254H163.254c-3.454,0-6.254-2.8-6.254-6.254v-0.492
					c0-3.454,2.8-6.254,6.254-6.254h185.492c3.454,0,6.254,2.8,6.254,6.254V436.746z"/>
				<g>
					<g>
						<g>
							<g>
								<rect x="250" y="292" style="fill:#6F7174;" width="19" height="39"/>
								<path style="fill:#4D4E50;" d="M269,292v13.747c-7-0.29-14-0.579-19-0.818V292H269z"/>
							</g>
							<path style="fill:#303043;" d="M328,278.644c0,9.033-7.323,16.356-16.356,16.356H207.356
								c-9.033,0-16.356-7.323-16.356-16.356v-0.287c0-9.033,7.323-16.356,16.356-16.356h104.287
								c9.033,0,16.356,7.323,16.356,16.356V278.644z"/>
							<g>
								<g>
									<g>
										<g>
											<path style="fill:#303043;" d="M193,406h-8v-17.746c0-3.908,0.9-7.318,3.567-9.863c2.632-2.51,6.148-3.688,10.953-4.453
												c3.091-0.494,5.371,0.063,5.899,0.063H251v5h-45.81c-2.333,0-7.145,0.76-10.44,3.916c-1.309,1.254-1.75,3.291-1.75,5.338
												V406z"/>
										</g>
									</g>
									<g>
										<rect x="223" y="379" style="fill:#303043;" width="9" height="47"/>
										<g>
											<path style="fill:#727272;" d="M231.673,422.923c0,0.573-0.037,1.141-0.105,1.695
												c-0.835,6.69-6.542,11.869-13.462,11.869c-6.918,0-12.624-5.179-13.46-11.869c-0.067-0.555-0.105-1.122-0.105-1.695
												c0-7.491,6.074-13.566,13.564-13.566C225.598,409.357,231.673,415.432,231.673,422.923z"/>
											<path style="fill:#303043;" d="M231.673,423.113c0,0.574-0.037,0.887-0.105,1.887h-26.921
												c-0.067-1-0.105-1.313-0.105-1.887c0-7.49,6.074-13.566,13.564-13.566C225.598,409.547,231.673,415.623,231.673,423.113z
												"/>
										</g>
									</g>
									<g>
										<rect x="185" y="384" style="fill:#303043;" width="8" height="42"/>
										<g>
											<path style="fill:#727272;" d="M193.551,422.923c0,0.573-0.037,1.141-0.104,1.695
												c-0.835,6.69-6.543,11.869-13.461,11.869c-6.919,0-12.625-5.179-13.461-11.869c-0.067-0.555-0.104-1.122-0.104-1.695
												c0-7.491,6.073-13.566,13.564-13.566C187.477,409.357,193.551,415.432,193.551,422.923z"/>
											<path style="fill:#303043;" d="M193.551,423.113c0,0.574-0.037,0.887-0.104,1.887h-26.922
												c-0.067-1-0.104-1.313-0.104-1.887c0-7.49,6.073-13.566,13.564-13.566C187.477,409.547,193.551,415.623,193.551,423.113z
												"/>
										</g>
									</g>
								</g>
								<g>
									<g>
										<rect x="288" y="379" style="fill:#303043;" width="9" height="47"/>
										<g>
											<path style="fill:#727272;" d="M297.196,422.923c0,0.573-0.038,1.141-0.105,1.695
												c-0.835,6.69-6.543,11.869-13.461,11.869c-6.919,0-12.625-5.179-13.46-11.869c-0.068-0.555-0.104-1.122-0.104-1.695
												c0-7.491,6.073-13.566,13.564-13.566C291.12,409.357,297.196,415.432,297.196,422.923z"/>
											<path style="fill:#303043;" d="M297.196,423.113c0,0.574-0.038,0.887-0.105,1.887H270.17
												c-0.068-1-0.104-1.313-0.104-1.887c0-7.49,6.073-13.566,13.564-13.566C291.12,409.547,297.196,415.623,297.196,423.113z"
												/>
										</g>
									</g>
									<g>
										<g>
											<g>
												<path style="fill:#303043;" d="M324,406h9v-17.746c0-3.908-1.125-7.318-3.791-9.863
													c-2.633-2.51-6.262-3.688-11.066-4.453c-3.092-0.494-5.483,0.063-6.011,0.063H267v5h45.361
													c2.332,0,6.869,0.76,10.164,3.916c1.309,1.254,1.475,3.291,1.475,5.338V406z"/>
											</g>
										</g>
										<rect x="324" y="384" style="fill:#303043;" width="9" height="42"/>
										<g>
											<path style="fill:#727272;" d="M305.209,422.923c0,0.573,0.037,1.141,0.104,1.695c0.835,6.69,6.543,11.869,13.461,11.869
												s12.625-5.179,13.461-11.869c0.066-0.555,0.103-1.122,0.103-1.695c0-7.491-6.073-13.566-13.564-13.566
												C311.283,409.357,305.209,415.432,305.209,422.923z"/>
											<path style="fill:#303043;" d="M305.209,423.113c0,0.574,0.037,0.887,0.104,1.887h26.922
												c0.066-1,0.103-1.313,0.103-1.887c0-7.49-6.073-13.566-13.564-13.566C311.283,409.547,305.209,415.623,305.209,423.113z"
												/>
										</g>
									</g>
								</g>
								<g>
									<rect x="246" y="324" style="fill:#303043;" width="27" height="60"/>
									<rect x="251" y="324" style="fill:#595981;" width="8" height="60"/>
								</g>
							</g>
							<rect x="240" y="287" style="fill:#303043;" width="40" height="13"/>
						</g>
						<g>
							<path style="fill:#303043;" d="M239.416,317c0,1.757-1.2,3-2.68,3h-46.462c-1.481,0-2.68-1.243-2.68-3l0,0
								c0-1.759,1.2-3,2.68-3h46.462C238.216,314,239.416,315.241,239.416,317L239.416,317z"/>
							<g>
								<path style="fill:#303043;" d="M234.125,319.035c-0.478,0-0.959-0.163-1.351-0.498c-0.876-0.746-0.982-2.062-0.235-2.938
									l20.549-24.123c0.747-0.878,2.063-0.983,2.939-0.235c0.876,0.746,0.982,2.061,0.234,2.938l-20.549,24.123
									C235.301,318.786,234.715,319.035,234.125,319.035z"/>
							</g>
						</g>
					</g>
					<g>
						<g>
							<path style="fill:#303043;" d="M111.723,155.835c-0.345,0-0.696-0.076-1.028-0.235c-1.187-0.569-1.688-1.992-1.119-3.179
								l31.271-65.221c0.568-1.187,1.991-1.688,3.179-1.118c1.187,0.569,1.688,1.992,1.118,3.178l-31.27,65.222
								C113.464,155.336,112.611,155.835,111.723,155.835z"/>
						</g>
						<path style="fill:#DF9B30;" d="M386.785,247.613c-4.79-5.05-11.692-6.839-21.276-8.092c-10.878-1.421-27.758-2.29-50.17-2.585
							c-13.975-0.186-46.735-1.98-51.147-19.988c-1.47-6.003-0.861-13.372-1.215-19.557c-0.321-5.635-0.601-11.273-0.851-16.912
							c-0.461-10.374-0.907-20.748-1.495-31.115c-1.078-18.993-2.022-37.992-3.102-56.984c-0.213-3.749-0.624-7.54-0.624-11.298
							c0-10.82-8.284-24.911-22.481-26.803c-26.804-3.573-83.984-9.828-89.344,0c0,0,12.915,162.4,16.241,175.258
							c3.326,12.859,48.065,24.07,53.245,26.331c3.414,1.491,22.513,2.056,37.725,1.987c8.992,11.122,13.825,22.518,33.06,24.252
							c4.438,0.4,84.494-5.226,87.358-5.032c9.848,0.649,18.336-6.616,18.959-16.229
							C391.978,256.035,390.199,251.211,386.785,247.613z"/>
						<g>
							<path style="fill:#A36233;" d="M212.461,279.878c-24.274-2.189-43.195-9.541-56.369-21.931
								c-13.081-12.303-15.535-25.199-15.894-27.66c-0.086-0.594-0.143-1.192-0.169-1.792l-7.086-160.408
								c-0.435-9.859,7.204-18.205,17.064-18.641c9.861-0.436,18.205,7.205,18.641,17.064c0.652,14.768,1.293,29.54,1.929,44.31
								c1.14,26.444,1.96,52.945,3.531,79.365c0.335,5.619,0.538,11.2,0.613,16.825c0.121,9.062-0.655,20.816,7.887,26.502
								c6.971,4.64,13.761,7.842,22.1,9.274c7.173,1.231,14.725,1.952,22.003,2.035c22.417,0.253,39.296,1.108,50.174,2.54
								c9.583,1.262,16.483,3.08,21.264,8.24c3.407,3.679,5.176,8.615,4.855,13.543c-0.645,9.849-6.911,14.499-16.759,13.855
								c-2.864-0.192-24.904,1.306-59.936-2.44C221.542,280.05,216.898,280.277,212.461,279.878z"/>
						</g>
						<g>
							<path style="fill:#A36233;" d="M247.454,98.171c-10.273-0.925-20.735-0.408-31.039-0.406
								c-5.173,0.001-10.347,0.003-15.52,0.004c-5.134,0.001-10.41-0.325-15.52,0.234c-0.862,0.094-0.862,1.321,0,1.415
								c5.11,0.559,10.386,0.233,15.52,0.234c5.173,0.001,10.347,0.003,15.52,0.004c10.304,0.002,20.766,0.519,31.039-0.405
								C248.113,99.191,248.113,98.23,247.454,98.171z"/>
							<path style="fill:#A36233;" d="M247.454,144.036c-10.273-0.924-20.735-0.408-31.039-0.405
								c-5.173,0.001-10.347,0.002-15.52,0.004c-5.134,0.001-10.41-0.325-15.52,0.234c-0.862,0.094-0.862,1.32,0,1.415
								c5.11,0.559,10.386,0.233,15.52,0.234c5.173,0.001,10.347,0.002,15.52,0.003c10.304,0.002,20.766,0.52,31.039-0.405
								C248.113,145.057,248.113,144.095,247.454,144.036z"/>
							<path style="fill:#A36233;" d="M248.703,171.266c-10.264-1.152-20.917-0.361-31.233-0.356l-15.653,0.009
								c-5.531,0.002-11.208-0.302-16.698,0.431c-0.521,0.07-0.521,0.787,0,0.856c5.127,0.685,10.416,0.428,15.582,0.43
								l15.651,0.009c5.218,0.003,10.436,0.011,15.653,0.007c5.554-0.005,11.169,0.258,16.698-0.363
								C249.327,172.219,249.327,171.336,248.703,171.266z"/>
							<path style="fill:#A36233;" d="M248.703,120.039c-10.264-1.152-20.917-0.361-31.233-0.356l-15.653,0.008
								c-5.531,0.003-11.208-0.302-16.698,0.431c-0.521,0.07-0.521,0.787,0,0.856c5.127,0.685,10.416,0.428,15.582,0.431
								l15.651,0.008c5.218,0.002,10.436,0.011,15.653,0.007c5.554-0.004,11.169,0.259,16.698-0.362
								C249.327,120.992,249.327,120.109,248.703,120.039z"/>
						</g>
						<g>
							<g>
								<path style="fill:#303043;" d="M228.765,128.138c-1.004,0-1.938-0.639-2.265-1.646
									c-0.125-0.383-12.574-38.561-20.489-57.909c-7.35-17.968-26.195-18.175-26.385-18.175c-1.316,0-2.383-1.067-2.383-2.382
									c0-1.316,1.067-2.383,2.383-2.383c0.222,0,22.248,0.242,30.796,21.136c7.981,19.511,20.484,57.854,20.609,58.238
									c0.407,1.251-0.277,2.596-1.528,3.003C229.258,128.101,229.01,128.138,228.765,128.138z"/>
							</g>
							<g>
								
									<rect x="100.033" y="135.045" transform="matrix(0.9695 -0.2453 0.2453 0.9695 -32.7578 46.9437)" style="fill:#FFFFFF;" width="144.149" height="39.909"/>
								<g>
									
										<text transform="matrix(0.9695 -0.2453 0.2453 0.9695 121.0798 179.5311)" style="fill:#7E8A17; font-family:'Bebas'; font-size:27.9873px;">VACANCY</text>
								</g>
							</g>
						</g>
					</g>
				</g>
			</g>
		</g>
		<g>
			<path style="fill:#FFFFFF;" d="M298.335,153.4c0,0,25.199-3.6,27.599-28.799c0,0,3.6,27.001,26.399,26.4
				c-1.2,1.8-24.602,2.998-25.8,26.398C326.533,177.398,327.134,151.6,298.335,153.4z"/>
			<path style="fill:#FFFFFF;" d="M333.142,196.172c0,0,12.313-1.759,13.485-14.072c0,0,1.759,13.194,12.899,12.9
				c-0.586,0.879-12.021,1.465-12.607,12.899C346.92,207.899,347.214,195.292,333.142,196.172z"/>
			<path style="fill:#FFFFFF;" d="M288.21,209.899c0,0,9.449-1.35,10.349-10.799c0,0,1.35,10.126,9.899,9.9
				c-0.449,0.675-9.225,1.124-9.675,9.899C298.783,218.899,299.009,209.224,288.21,209.899z"/>
		</g>
	</g>
</g>
</svg>
