<svg width="160" height="164" viewBox="0 0 160 164" fill="none" xmlns="http://www.w3.org/2000/svg">
<g opacity="0.8">
<g opacity="0.6">
<path fill-rule="evenodd" clip-rule="evenodd" d="M155.91 83.9552C155.91 125.904 121.903 159.91 79.9544 159.91C38.0062 159.91 4 125.904 4 83.9552C4 42.0062 38.0062 8 79.9544 8C121.903 8 155.91 42.0062 155.91 83.9552Z" fill="#B75742"/>
<path fill-rule="evenodd" clip-rule="evenodd" d="M149.221 83.9553C149.221 122.208 118.209 153.22 79.9554 153.22C41.7021 153.22 10.6914 122.208 10.6914 83.9553C10.6914 45.7013 41.7021 14.6904 79.9554 14.6904C118.209 14.6904 149.221 45.7013 149.221 83.9553Z" fill="#F47458"/>
<path fill-rule="evenodd" clip-rule="evenodd" d="M138.201 83.9545C138.201 116.122 112.124 142.2 79.9556 142.2C47.7882 142.2 21.7109 116.122 21.7109 83.9545C21.7109 51.7862 47.7882 25.709 79.9556 25.709C112.124 25.709 138.201 51.7862 138.201 83.9545Z" fill="#FCF5EB"/>
<path fill-rule="evenodd" clip-rule="evenodd" d="M123.736 83.9545C123.736 108.134 104.135 127.737 79.9536 127.737C55.7739 127.737 36.1719 108.134 36.1719 83.9545C36.1719 59.7739 55.7739 40.1719 79.9536 40.1719C104.135 40.1719 123.736 59.7739 123.736 83.9545Z" fill="#F47458"/>
<path fill-rule="evenodd" clip-rule="evenodd" d="M111.044 83.9559C111.044 101.126 97.1248 115.046 79.9531 115.046C62.7829 115.046 48.8633 101.126 48.8633 83.9559C48.8633 66.7853 62.7829 52.8652 79.9531 52.8652C97.1248 52.8652 111.044 66.7853 111.044 83.9559Z" fill="#FCF5EB"/>
<path fill-rule="evenodd" clip-rule="evenodd" d="M87.8842 83.9552C87.8842 88.3339 84.3339 91.8831 79.9552 91.8831C75.5776 91.8831 72.0273 88.3339 72.0273 83.9552C72.0273 79.5765 75.5776 76.0273 79.9552 76.0273C84.3339 76.0273 87.8842 79.5765 87.8842 83.9552Z" fill="#B75742"/>
</g>
<path fill-rule="evenodd" clip-rule="evenodd" d="M128.519 44.7893L128.238 39.6384L145.675 26L144.764 33.4581L127.676 46.8238L128.519 44.7893Z" fill="#51727C"/>
<path fill-rule="evenodd" clip-rule="evenodd" d="M129.808 46.5245L134.739 48.0384L152.176 34.4L144.718 33.4883L127.629 46.854L129.808 46.5245Z" fill="#12353D"/>
<path fill-rule="evenodd" clip-rule="evenodd" d="M79.2479 84.7993C79.6442 85.3063 80.376 85.3964 80.883 84.9991L130.009 46.575L128.573 44.7393L79.4477 83.1642C78.9407 83.5605 78.8506 84.2923 79.2479 84.7993Z" fill="#51727C"/>
</g>
</svg>
