<?xml version="1.0" encoding="utf-8"?>
<!-- Generator: Adobe Illustrator 27.5.0, SVG Export Plug-In . SVG Version: 6.00 Build 0)  -->
<svg version="1.1" xmlns="http://www.w3.org/2000/svg" xmlns:xlink="http://www.w3.org/1999/xlink" x="0px" y="0px"
	 viewBox="0 0 750 500" style="enable-background:new 0 0 750 500;" xml:space="preserve">
<g id="OBJECTS">
	<g>
		<rect x="178.77" y="53.77" style="fill:none;stroke:#E1DAFC;stroke-miterlimit:10;" width="39.246" height="39.246"/>
		<rect x="218.016" y="53.77" style="fill:none;stroke:#E1DAFC;stroke-miterlimit:10;" width="39.246" height="39.246"/>
		<rect x="257.262" y="53.77" style="fill:none;stroke:#E1DAFC;stroke-miterlimit:10;" width="39.246" height="39.246"/>
		<rect x="296.508" y="53.77" style="fill:none;stroke:#E1DAFC;stroke-miterlimit:10;" width="39.246" height="39.246"/>
		<rect x="335.754" y="53.77" style="fill:none;stroke:#E1DAFC;stroke-miterlimit:10;" width="39.246" height="39.246"/>
		<rect x="375" y="53.77" style="fill:none;stroke:#E1DAFC;stroke-miterlimit:10;" width="39.246" height="39.246"/>
		<rect x="414.246" y="53.77" style="fill:none;stroke:#E1DAFC;stroke-miterlimit:10;" width="39.246" height="39.246"/>
		<rect x="453.492" y="53.77" style="fill:none;stroke:#E1DAFC;stroke-miterlimit:10;" width="39.246" height="39.246"/>
		<rect x="492.738" y="53.77" style="fill:none;stroke:#E1DAFC;stroke-miterlimit:10;" width="39.246" height="39.246"/>
		<rect x="531.984" y="53.77" style="fill:none;stroke:#E1DAFC;stroke-miterlimit:10;" width="39.246" height="39.246"/>
		<rect x="178.77" y="93.016" style="fill:none;stroke:#E1DAFC;stroke-miterlimit:10;" width="39.246" height="39.246"/>
		<rect x="218.016" y="93.016" style="fill:none;stroke:#E1DAFC;stroke-miterlimit:10;" width="39.246" height="39.246"/>
		<rect x="257.262" y="93.016" style="fill:none;stroke:#E1DAFC;stroke-miterlimit:10;" width="39.246" height="39.246"/>
		<rect x="296.508" y="93.016" style="fill:none;stroke:#E1DAFC;stroke-miterlimit:10;" width="39.246" height="39.246"/>
		<rect x="335.754" y="93.016" style="fill:none;stroke:#E1DAFC;stroke-miterlimit:10;" width="39.246" height="39.246"/>
		<rect x="375" y="93.016" style="fill:none;stroke:#E1DAFC;stroke-miterlimit:10;" width="39.246" height="39.246"/>
		<rect x="414.246" y="93.016" style="fill:none;stroke:#E1DAFC;stroke-miterlimit:10;" width="39.246" height="39.246"/>
		<rect x="453.492" y="93.016" style="fill:none;stroke:#E1DAFC;stroke-miterlimit:10;" width="39.246" height="39.246"/>
		<rect x="492.738" y="93.016" style="fill:none;stroke:#E1DAFC;stroke-miterlimit:10;" width="39.246" height="39.246"/>
		<rect x="531.984" y="93.016" style="fill:none;stroke:#E1DAFC;stroke-miterlimit:10;" width="39.246" height="39.246"/>
		<rect x="178.77" y="132.262" style="fill:none;stroke:#E1DAFC;stroke-miterlimit:10;" width="39.246" height="39.246"/>
		<rect x="218.016" y="132.262" style="fill:none;stroke:#E1DAFC;stroke-miterlimit:10;" width="39.246" height="39.246"/>
		<rect x="257.262" y="132.262" style="fill:none;stroke:#E1DAFC;stroke-miterlimit:10;" width="39.246" height="39.246"/>
		<rect x="296.508" y="132.262" style="fill:none;stroke:#E1DAFC;stroke-miterlimit:10;" width="39.246" height="39.246"/>
		<rect x="335.754" y="132.262" style="fill:none;stroke:#E1DAFC;stroke-miterlimit:10;" width="39.246" height="39.246"/>
		<rect x="375" y="132.262" style="fill:none;stroke:#E1DAFC;stroke-miterlimit:10;" width="39.246" height="39.246"/>
		<rect x="414.246" y="132.262" style="fill:none;stroke:#E1DAFC;stroke-miterlimit:10;" width="39.246" height="39.246"/>
		<rect x="453.492" y="132.262" style="fill:none;stroke:#E1DAFC;stroke-miterlimit:10;" width="39.246" height="39.246"/>
		<rect x="492.738" y="132.262" style="fill:none;stroke:#E1DAFC;stroke-miterlimit:10;" width="39.246" height="39.246"/>
		<rect x="531.984" y="132.262" style="fill:none;stroke:#E1DAFC;stroke-miterlimit:10;" width="39.246" height="39.246"/>
		<rect x="178.77" y="171.508" style="fill:none;stroke:#E1DAFC;stroke-miterlimit:10;" width="39.246" height="39.246"/>
		<rect x="218.016" y="171.508" style="fill:none;stroke:#E1DAFC;stroke-miterlimit:10;" width="39.246" height="39.246"/>
		<rect x="257.262" y="171.508" style="fill:none;stroke:#E1DAFC;stroke-miterlimit:10;" width="39.246" height="39.246"/>
		<rect x="296.508" y="171.508" style="fill:none;stroke:#E1DAFC;stroke-miterlimit:10;" width="39.246" height="39.246"/>
		<rect x="335.754" y="171.508" style="fill:none;stroke:#E1DAFC;stroke-miterlimit:10;" width="39.246" height="39.246"/>
		<rect x="375" y="171.508" style="fill:none;stroke:#E1DAFC;stroke-miterlimit:10;" width="39.246" height="39.246"/>
		<rect x="414.246" y="171.508" style="fill:none;stroke:#E1DAFC;stroke-miterlimit:10;" width="39.246" height="39.246"/>
		<rect x="453.492" y="171.508" style="fill:none;stroke:#E1DAFC;stroke-miterlimit:10;" width="39.246" height="39.246"/>
		<rect x="492.738" y="171.508" style="fill:none;stroke:#E1DAFC;stroke-miterlimit:10;" width="39.246" height="39.246"/>
		<rect x="531.984" y="171.508" style="fill:none;stroke:#E1DAFC;stroke-miterlimit:10;" width="39.246" height="39.246"/>
		<rect x="178.77" y="210.754" style="fill:none;stroke:#E1DAFC;stroke-miterlimit:10;" width="39.246" height="39.246"/>
		<rect x="218.016" y="210.754" style="fill:none;stroke:#E1DAFC;stroke-miterlimit:10;" width="39.246" height="39.246"/>
		<rect x="257.262" y="210.754" style="fill:none;stroke:#E1DAFC;stroke-miterlimit:10;" width="39.246" height="39.246"/>
		<rect x="296.508" y="210.754" style="fill:none;stroke:#E1DAFC;stroke-miterlimit:10;" width="39.246" height="39.246"/>
		<rect x="335.754" y="210.754" style="fill:none;stroke:#E1DAFC;stroke-miterlimit:10;" width="39.246" height="39.246"/>
		<rect x="375" y="210.754" style="fill:none;stroke:#E1DAFC;stroke-miterlimit:10;" width="39.246" height="39.246"/>
		<rect x="414.246" y="210.754" style="fill:none;stroke:#E1DAFC;stroke-miterlimit:10;" width="39.246" height="39.246"/>
		<rect x="453.492" y="210.754" style="fill:none;stroke:#E1DAFC;stroke-miterlimit:10;" width="39.246" height="39.246"/>
		<rect x="492.738" y="210.754" style="fill:none;stroke:#E1DAFC;stroke-miterlimit:10;" width="39.246" height="39.246"/>
		<rect x="531.984" y="210.754" style="fill:none;stroke:#E1DAFC;stroke-miterlimit:10;" width="39.246" height="39.246"/>
		<rect x="178.77" y="250" style="fill:none;stroke:#E1DAFC;stroke-miterlimit:10;" width="39.246" height="39.246"/>
		<rect x="218.016" y="250" style="fill:none;stroke:#E1DAFC;stroke-miterlimit:10;" width="39.246" height="39.246"/>
		<rect x="257.262" y="250" style="fill:none;stroke:#E1DAFC;stroke-miterlimit:10;" width="39.246" height="39.246"/>
		<rect x="296.508" y="250" style="fill:none;stroke:#E1DAFC;stroke-miterlimit:10;" width="39.246" height="39.246"/>
		<rect x="335.754" y="250" style="fill:none;stroke:#E1DAFC;stroke-miterlimit:10;" width="39.246" height="39.246"/>
		<rect x="375" y="250" style="fill:none;stroke:#E1DAFC;stroke-miterlimit:10;" width="39.246" height="39.246"/>
		<rect x="414.246" y="250" style="fill:none;stroke:#E1DAFC;stroke-miterlimit:10;" width="39.246" height="39.246"/>
		<rect x="453.492" y="250" style="fill:none;stroke:#E1DAFC;stroke-miterlimit:10;" width="39.246" height="39.246"/>
		<rect x="492.738" y="250" style="fill:none;stroke:#E1DAFC;stroke-miterlimit:10;" width="39.246" height="39.246"/>
		<rect x="531.984" y="250" style="fill:none;stroke:#E1DAFC;stroke-miterlimit:10;" width="39.246" height="39.246"/>
		<rect x="178.77" y="289.246" style="fill:none;stroke:#E1DAFC;stroke-miterlimit:10;" width="39.246" height="39.246"/>
		<rect x="218.016" y="289.246" style="fill:none;stroke:#E1DAFC;stroke-miterlimit:10;" width="39.246" height="39.246"/>
		<rect x="257.262" y="289.246" style="fill:none;stroke:#E1DAFC;stroke-miterlimit:10;" width="39.246" height="39.246"/>
		<rect x="296.508" y="289.246" style="fill:none;stroke:#E1DAFC;stroke-miterlimit:10;" width="39.246" height="39.246"/>
		<rect x="335.754" y="289.246" style="fill:none;stroke:#E1DAFC;stroke-miterlimit:10;" width="39.246" height="39.246"/>
		<rect x="375" y="289.246" style="fill:none;stroke:#E1DAFC;stroke-miterlimit:10;" width="39.246" height="39.246"/>
		<rect x="414.246" y="289.246" style="fill:none;stroke:#E1DAFC;stroke-miterlimit:10;" width="39.246" height="39.246"/>
		<rect x="453.492" y="289.246" style="fill:none;stroke:#E1DAFC;stroke-miterlimit:10;" width="39.246" height="39.246"/>
		<rect x="492.738" y="289.246" style="fill:none;stroke:#E1DAFC;stroke-miterlimit:10;" width="39.246" height="39.246"/>
		<rect x="531.984" y="289.246" style="fill:none;stroke:#E1DAFC;stroke-miterlimit:10;" width="39.246" height="39.246"/>
		<rect x="178.77" y="328.492" style="fill:none;stroke:#E1DAFC;stroke-miterlimit:10;" width="39.246" height="39.246"/>
		<rect x="218.016" y="328.492" style="fill:none;stroke:#E1DAFC;stroke-miterlimit:10;" width="39.246" height="39.246"/>
		<rect x="257.262" y="328.492" style="fill:none;stroke:#E1DAFC;stroke-miterlimit:10;" width="39.246" height="39.246"/>
		<rect x="296.508" y="328.492" style="fill:none;stroke:#E1DAFC;stroke-miterlimit:10;" width="39.246" height="39.246"/>
		<rect x="335.754" y="328.492" style="fill:none;stroke:#E1DAFC;stroke-miterlimit:10;" width="39.246" height="39.246"/>
		<rect x="375" y="328.492" style="fill:none;stroke:#E1DAFC;stroke-miterlimit:10;" width="39.246" height="39.246"/>
		<rect x="414.246" y="328.492" style="fill:none;stroke:#E1DAFC;stroke-miterlimit:10;" width="39.246" height="39.246"/>
		<rect x="453.492" y="328.492" style="fill:none;stroke:#E1DAFC;stroke-miterlimit:10;" width="39.246" height="39.246"/>
		<rect x="492.738" y="328.492" style="fill:none;stroke:#E1DAFC;stroke-miterlimit:10;" width="39.246" height="39.246"/>
		<rect x="531.984" y="328.492" style="fill:none;stroke:#E1DAFC;stroke-miterlimit:10;" width="39.246" height="39.246"/>
		<rect x="178.77" y="367.738" style="fill:none;stroke:#E1DAFC;stroke-miterlimit:10;" width="39.246" height="39.246"/>
		<rect x="218.016" y="367.738" style="fill:none;stroke:#E1DAFC;stroke-miterlimit:10;" width="39.246" height="39.246"/>
		<rect x="257.262" y="367.738" style="fill:none;stroke:#E1DAFC;stroke-miterlimit:10;" width="39.246" height="39.246"/>
		<rect x="296.508" y="367.738" style="fill:none;stroke:#E1DAFC;stroke-miterlimit:10;" width="39.246" height="39.246"/>
		<rect x="335.754" y="367.738" style="fill:none;stroke:#E1DAFC;stroke-miterlimit:10;" width="39.246" height="39.246"/>
		<rect x="375" y="367.738" style="fill:none;stroke:#E1DAFC;stroke-miterlimit:10;" width="39.246" height="39.246"/>
		<rect x="414.246" y="367.738" style="fill:none;stroke:#E1DAFC;stroke-miterlimit:10;" width="39.246" height="39.246"/>
		<rect x="453.492" y="367.738" style="fill:none;stroke:#E1DAFC;stroke-miterlimit:10;" width="39.246" height="39.246"/>
		<rect x="492.738" y="367.738" style="fill:none;stroke:#E1DAFC;stroke-miterlimit:10;" width="39.246" height="39.246"/>
		<rect x="531.984" y="367.738" style="fill:none;stroke:#E1DAFC;stroke-miterlimit:10;" width="39.246" height="39.246"/>
		<rect x="178.77" y="406.984" style="fill:none;stroke:#E1DAFC;stroke-miterlimit:10;" width="39.246" height="39.246"/>
		<rect x="218.016" y="406.984" style="fill:none;stroke:#E1DAFC;stroke-miterlimit:10;" width="39.246" height="39.246"/>
		<rect x="257.262" y="406.984" style="fill:none;stroke:#E1DAFC;stroke-miterlimit:10;" width="39.246" height="39.246"/>
		<rect x="296.508" y="406.984" style="fill:none;stroke:#E1DAFC;stroke-miterlimit:10;" width="39.246" height="39.246"/>
		<rect x="335.754" y="406.984" style="fill:none;stroke:#E1DAFC;stroke-miterlimit:10;" width="39.246" height="39.246"/>
		<rect x="375" y="406.984" style="fill:none;stroke:#E1DAFC;stroke-miterlimit:10;" width="39.246" height="39.246"/>
		<rect x="414.246" y="406.984" style="fill:none;stroke:#E1DAFC;stroke-miterlimit:10;" width="39.246" height="39.246"/>
		<rect x="453.492" y="406.984" style="fill:none;stroke:#E1DAFC;stroke-miterlimit:10;" width="39.246" height="39.246"/>
		<rect x="492.738" y="406.984" style="fill:none;stroke:#E1DAFC;stroke-miterlimit:10;" width="39.246" height="39.246"/>
		<rect x="531.984" y="406.984" style="fill:none;stroke:#E1DAFC;stroke-miterlimit:10;" width="39.246" height="39.246"/>
		<rect x="571.23" y="53.77" style="fill:none;stroke:#E1DAFC;stroke-miterlimit:10;" width="39.246" height="39.246"/>
		<rect x="610.476" y="53.77" style="fill:none;stroke:#E1DAFC;stroke-miterlimit:10;" width="39.246" height="39.246"/>
		<rect x="571.23" y="93.016" style="fill:none;stroke:#E1DAFC;stroke-miterlimit:10;" width="39.246" height="39.246"/>
		<rect x="610.476" y="93.016" style="fill:none;stroke:#E1DAFC;stroke-miterlimit:10;" width="39.246" height="39.246"/>
		<rect x="571.23" y="132.262" style="fill:none;stroke:#E1DAFC;stroke-miterlimit:10;" width="39.246" height="39.246"/>
		<rect x="610.476" y="132.262" style="fill:none;stroke:#E1DAFC;stroke-miterlimit:10;" width="39.246" height="39.246"/>
		<rect x="571.23" y="171.508" style="fill:none;stroke:#E1DAFC;stroke-miterlimit:10;" width="39.246" height="39.246"/>
		<rect x="610.476" y="171.508" style="fill:none;stroke:#E1DAFC;stroke-miterlimit:10;" width="39.246" height="39.246"/>
		<rect x="571.23" y="210.754" style="fill:none;stroke:#E1DAFC;stroke-miterlimit:10;" width="39.246" height="39.246"/>
		<rect x="610.476" y="210.754" style="fill:none;stroke:#E1DAFC;stroke-miterlimit:10;" width="39.246" height="39.246"/>
		<rect x="571.23" y="250" style="fill:none;stroke:#E1DAFC;stroke-miterlimit:10;" width="39.246" height="39.246"/>
		<rect x="610.476" y="250" style="fill:none;stroke:#E1DAFC;stroke-miterlimit:10;" width="39.246" height="39.246"/>
		<rect x="571.23" y="289.246" style="fill:none;stroke:#E1DAFC;stroke-miterlimit:10;" width="39.246" height="39.246"/>
		<rect x="610.476" y="289.246" style="fill:none;stroke:#E1DAFC;stroke-miterlimit:10;" width="39.246" height="39.246"/>
		<rect x="571.23" y="328.492" style="fill:none;stroke:#E1DAFC;stroke-miterlimit:10;" width="39.246" height="39.246"/>
		<rect x="610.476" y="328.492" style="fill:none;stroke:#E1DAFC;stroke-miterlimit:10;" width="39.246" height="39.246"/>
		<rect x="571.23" y="367.738" style="fill:none;stroke:#E1DAFC;stroke-miterlimit:10;" width="39.246" height="39.246"/>
		<rect x="610.476" y="367.738" style="fill:none;stroke:#E1DAFC;stroke-miterlimit:10;" width="39.246" height="39.246"/>
		<rect x="571.23" y="406.984" style="fill:none;stroke:#E1DAFC;stroke-miterlimit:10;" width="39.246" height="39.246"/>
		<rect x="610.476" y="406.984" style="fill:none;stroke:#E1DAFC;stroke-miterlimit:10;" width="39.246" height="39.246"/>
		<rect x="100.278" y="53.77" style="fill:none;stroke:#E1DAFC;stroke-miterlimit:10;" width="39.246" height="39.246"/>
		<rect x="139.524" y="53.77" style="fill:none;stroke:#E1DAFC;stroke-miterlimit:10;" width="39.246" height="39.246"/>
		<rect x="100.278" y="93.016" style="fill:none;stroke:#E1DAFC;stroke-miterlimit:10;" width="39.246" height="39.246"/>
		<rect x="139.524" y="93.016" style="fill:none;stroke:#E1DAFC;stroke-miterlimit:10;" width="39.246" height="39.246"/>
		<rect x="100.278" y="132.262" style="fill:none;stroke:#E1DAFC;stroke-miterlimit:10;" width="39.246" height="39.246"/>
		<rect x="139.524" y="132.262" style="fill:none;stroke:#E1DAFC;stroke-miterlimit:10;" width="39.246" height="39.246"/>
		<rect x="100.278" y="171.508" style="fill:none;stroke:#E1DAFC;stroke-miterlimit:10;" width="39.246" height="39.246"/>
		<rect x="139.524" y="171.508" style="fill:none;stroke:#E1DAFC;stroke-miterlimit:10;" width="39.246" height="39.246"/>
		<rect x="100.278" y="210.754" style="fill:none;stroke:#E1DAFC;stroke-miterlimit:10;" width="39.246" height="39.246"/>
		<rect x="139.524" y="210.754" style="fill:none;stroke:#E1DAFC;stroke-miterlimit:10;" width="39.246" height="39.246"/>
		<rect x="100.278" y="250" style="fill:none;stroke:#E1DAFC;stroke-miterlimit:10;" width="39.246" height="39.246"/>
		<rect x="139.524" y="250" style="fill:none;stroke:#E1DAFC;stroke-miterlimit:10;" width="39.246" height="39.246"/>
		<rect x="100.278" y="289.246" style="fill:none;stroke:#E1DAFC;stroke-miterlimit:10;" width="39.246" height="39.246"/>
		<rect x="139.524" y="289.246" style="fill:none;stroke:#E1DAFC;stroke-miterlimit:10;" width="39.246" height="39.246"/>
		<rect x="100.278" y="328.492" style="fill:none;stroke:#E1DAFC;stroke-miterlimit:10;" width="39.246" height="39.246"/>
		<rect x="139.524" y="328.492" style="fill:none;stroke:#E1DAFC;stroke-miterlimit:10;" width="39.246" height="39.246"/>
		<rect x="100.278" y="367.738" style="fill:none;stroke:#E1DAFC;stroke-miterlimit:10;" width="39.246" height="39.246"/>
		<rect x="139.524" y="367.738" style="fill:none;stroke:#E1DAFC;stroke-miterlimit:10;" width="39.246" height="39.246"/>
		<rect x="100.278" y="406.984" style="fill:none;stroke:#E1DAFC;stroke-miterlimit:10;" width="39.246" height="39.246"/>
		<polyline style="fill:none;stroke:#E1DAFC;stroke-miterlimit:10;" points="61.032,53.77 100.278,53.77 100.278,93.016 
			61.032,93.016 		"/>
		<polyline style="fill:none;stroke:#E1DAFC;stroke-miterlimit:10;" points="61.032,93.016 100.278,93.016 100.278,132.262 
			61.032,132.262 		"/>
		<polyline style="fill:none;stroke:#E1DAFC;stroke-miterlimit:10;" points="61.032,132.262 100.278,132.262 100.278,171.508 
			61.032,171.508 		"/>
		<polyline style="fill:none;stroke:#E1DAFC;stroke-miterlimit:10;" points="61.032,171.508 100.278,171.508 100.278,210.754 
			61.032,210.754 		"/>
		<polyline style="fill:none;stroke:#E1DAFC;stroke-miterlimit:10;" points="61.032,210.754 100.278,210.754 100.278,250 
			61.032,250 		"/>
		<polyline style="fill:none;stroke:#E1DAFC;stroke-miterlimit:10;" points="61.032,250 100.278,250 100.278,289.246 
			61.032,289.246 		"/>
		<polyline style="fill:none;stroke:#E1DAFC;stroke-miterlimit:10;" points="61.032,289.246 100.278,289.246 100.278,328.492 
			61.032,328.492 		"/>
		<polyline style="fill:none;stroke:#E1DAFC;stroke-miterlimit:10;" points="61.032,328.492 100.278,328.492 100.278,367.738 
			61.032,367.738 		"/>
		<polyline style="fill:none;stroke:#E1DAFC;stroke-miterlimit:10;" points="61.032,367.738 100.278,367.738 100.278,406.984 
			61.032,406.984 		"/>
		<polyline style="fill:none;stroke:#E1DAFC;stroke-miterlimit:10;" points="61.032,406.984 100.278,406.984 100.278,446.23 
			61.032,446.23 		"/>
		<polyline style="fill:none;stroke:#E1DAFC;stroke-miterlimit:10;" points="688.968,93.016 649.722,93.016 649.722,53.77 
			688.968,53.77 		"/>
		<polyline style="fill:none;stroke:#E1DAFC;stroke-miterlimit:10;" points="688.968,132.262 649.722,132.262 649.722,93.016 
			688.968,93.016 		"/>
		<polyline style="fill:none;stroke:#E1DAFC;stroke-miterlimit:10;" points="688.968,171.508 649.722,171.508 649.722,132.262 
			688.968,132.262 		"/>
		<polyline style="fill:none;stroke:#E1DAFC;stroke-miterlimit:10;" points="688.968,210.754 649.722,210.754 649.722,171.508 
			688.968,171.508 		"/>
		<polyline style="fill:none;stroke:#E1DAFC;stroke-miterlimit:10;" points="688.968,250 649.722,250 649.722,210.754 
			688.968,210.754 		"/>
		<polyline style="fill:none;stroke:#E1DAFC;stroke-miterlimit:10;" points="688.968,289.246 649.722,289.246 649.722,250 
			688.968,250 		"/>
		<polyline style="fill:none;stroke:#E1DAFC;stroke-miterlimit:10;" points="688.968,328.492 649.722,328.492 649.722,289.246 
			688.968,289.246 		"/>
		<polyline style="fill:none;stroke:#E1DAFC;stroke-miterlimit:10;" points="688.968,367.738 649.722,367.738 649.722,328.492 
			688.968,328.492 		"/>
		<polyline style="fill:none;stroke:#E1DAFC;stroke-miterlimit:10;" points="688.968,406.984 649.722,406.984 649.722,367.738 
			688.968,367.738 		"/>
		<polyline style="fill:none;stroke:#E1DAFC;stroke-miterlimit:10;" points="688.968,446.23 649.722,446.23 649.722,406.984 
			688.968,406.984 		"/>
		<rect x="139.524" y="406.984" style="fill:none;stroke:#E1DAFC;stroke-miterlimit:10;" width="39.246" height="39.246"/>
	</g>
	<g>
		<rect x="164.427" y="117.843" style="fill:#ADA8F0;" width="431.316" height="245.258"/>
		<polygon style="fill:#553AC7;" points="573.665,230.706 573.665,336.522 192.215,336.522 192.215,233.9 254.331,203.208 
			305.53,207.024 351.051,205.899 404.054,179.168 449.887,198.818 489.026,192.946 547.204,212.529 		"/>
		<path style="fill:#FFFFFF;" d="M192.216,234.504c-0.222,0-0.436-0.123-0.542-0.335c-0.149-0.3-0.027-0.662,0.273-0.811
			l61.814-30.692c0.096-0.049,0.199-0.073,0.313-0.061l51.501,3.816l45.324-1.123l52.882-26.669
			c0.162-0.081,0.347-0.086,0.511-0.016l45.674,19.582l39.081-5.906c0.097-0.013,0.192-0.006,0.284,0.025l58.064,19.643
			c0.053,0.018,0.103,0.043,0.149,0.074l26.462,18.177c0.275,0.189,0.344,0.565,0.156,0.84c-0.188,0.275-0.563,0.347-0.84,0.156
			l-26.392-18.13l-57.846-19.568l-39.108,5.91c-0.107,0.015-0.224,0.002-0.328-0.043l-45.573-19.539l-52.753,26.604
			c-0.08,0.041-0.168,0.063-0.257,0.065l-45.52,1.125l-51.396-3.806l-61.666,30.619
			C192.398,234.484,192.306,234.504,192.216,234.504z"/>
		<polygon style="fill:#716AD9;" points="192.215,323.625 254.029,297.441 305.53,268.547 351.051,267.953 404.356,242.109 
			450.189,283.966 488.724,274.277 546.901,259.63 573.665,271.356 573.665,336.522 192.215,336.522 		"/>
		<g>
			<g>
				<g>
					<path style="fill:#CFCCFF;" d="M254.029,205.926c-0.167,0-0.302-0.135-0.302-0.302v-2.416c0-0.167,0.135-0.302,0.302-0.302
						c0.167,0,0.302,0.135,0.302,0.302v2.416C254.331,205.791,254.196,205.926,254.029,205.926z"/>
				</g>
				<g>
					<path style="fill:#CFCCFF;" d="M254.029,327.135c-0.167,0-0.302-0.136-0.302-0.302v-4.848c0-0.166,0.135-0.302,0.302-0.302
						c0.167,0,0.302,0.136,0.302,0.302v4.848C254.331,327,254.196,327.135,254.029,327.135z M254.029,315.015
						c-0.167,0-0.302-0.136-0.302-0.302v-4.848c0-0.166,0.135-0.302,0.302-0.302c0.167,0,0.302,0.136,0.302,0.302v4.848
						C254.331,314.879,254.196,315.015,254.029,315.015z M254.029,302.894c-0.167,0-0.302-0.136-0.302-0.302v-4.849
						c0-0.166,0.135-0.302,0.302-0.302c0.167,0,0.302,0.136,0.302,0.302v4.849C254.331,302.758,254.196,302.894,254.029,302.894z
						 M254.029,290.772c-0.167,0-0.302-0.136-0.302-0.302v-4.848c0-0.166,0.135-0.302,0.302-0.302c0.167,0,0.302,0.136,0.302,0.302
						v4.848C254.331,290.636,254.196,290.772,254.029,290.772z M254.029,278.651c-0.167,0-0.302-0.136-0.302-0.302v-4.848
						c0-0.166,0.135-0.302,0.302-0.302c0.167,0,0.302,0.136,0.302,0.302v4.848C254.331,278.516,254.196,278.651,254.029,278.651z
						 M254.029,266.531c-0.167,0-0.302-0.136-0.302-0.302v-4.848c0-0.166,0.135-0.302,0.302-0.302c0.167,0,0.302,0.136,0.302,0.302
						v4.848C254.331,266.395,254.196,266.531,254.029,266.531z M254.029,254.41c-0.167,0-0.302-0.136-0.302-0.302v-4.849
						c0-0.166,0.135-0.302,0.302-0.302c0.167,0,0.302,0.136,0.302,0.302v4.849C254.331,254.275,254.196,254.41,254.029,254.41z
						 M254.029,242.288c-0.167,0-0.302-0.136-0.302-0.302v-4.848c0-0.166,0.135-0.302,0.302-0.302c0.167,0,0.302,0.136,0.302,0.302
						v4.848C254.331,242.153,254.196,242.288,254.029,242.288z M254.029,230.168c-0.167,0-0.302-0.136-0.302-0.302v-4.848
						c0-0.167,0.135-0.302,0.302-0.302c0.167,0,0.302,0.135,0.302,0.302v4.848C254.331,230.032,254.196,230.168,254.029,230.168z
						 M254.029,218.047c-0.167,0-0.302-0.135-0.302-0.302v-4.849c0-0.167,0.135-0.302,0.302-0.302c0.167,0,0.302,0.135,0.302,0.302
						v4.849C254.331,217.912,254.196,218.047,254.029,218.047z"/>
				</g>
				<g>
					<path style="fill:#CFCCFF;" d="M254.029,336.824c-0.167,0-0.302-0.136-0.302-0.302v-2.416c0-0.166,0.135-0.302,0.302-0.302
						c0.167,0,0.302,0.136,0.302,0.302v2.416C254.331,336.688,254.196,336.824,254.029,336.824z"/>
				</g>
			</g>
			<g>
				<g>
					<path style="fill:#CFCCFF;" d="M305.53,209.742c-0.167,0-0.302-0.135-0.302-0.302v-2.416c0-0.167,0.135-0.302,0.302-0.302
						s0.302,0.135,0.302,0.302v2.416C305.832,209.607,305.697,209.742,305.53,209.742z"/>
				</g>
				<g>
					<path style="fill:#CFCCFF;" d="M305.53,327.351c-0.167,0-0.302-0.136-0.302-0.302v-4.704c0-0.166,0.135-0.302,0.302-0.302
						s0.302,0.136,0.302,0.302v4.704C305.832,327.215,305.697,327.351,305.53,327.351z M305.53,315.59
						c-0.167,0-0.302-0.136-0.302-0.302v-4.704c0-0.166,0.135-0.302,0.302-0.302s0.302,0.136,0.302,0.302v4.704
						C305.832,315.455,305.697,315.59,305.53,315.59z M305.53,303.83c-0.167,0-0.302-0.136-0.302-0.302v-4.704
						c0-0.166,0.135-0.302,0.302-0.302s0.302,0.136,0.302,0.302v4.704C305.832,303.694,305.697,303.83,305.53,303.83z
						 M305.53,292.069c-0.167,0-0.302-0.136-0.302-0.302v-4.704c0-0.166,0.135-0.302,0.302-0.302s0.302,0.136,0.302,0.302v4.704
						C305.832,291.933,305.697,292.069,305.53,292.069z M305.53,280.308c-0.167,0-0.302-0.136-0.302-0.302v-4.705
						c0-0.166,0.135-0.302,0.302-0.302s0.302,0.136,0.302,0.302v4.705C305.832,280.172,305.697,280.308,305.53,280.308z
						 M305.53,268.547c-0.167,0-0.302-0.136-0.302-0.302v-4.705c0-0.166,0.135-0.302,0.302-0.302s0.302,0.136,0.302,0.302v4.705
						C305.832,268.411,305.697,268.547,305.53,268.547z M305.53,256.786c-0.167,0-0.302-0.136-0.302-0.302v-4.705
						c0-0.166,0.135-0.302,0.302-0.302s0.302,0.136,0.302,0.302v4.705C305.832,256.651,305.697,256.786,305.53,256.786z
						 M305.53,245.025c-0.167,0-0.302-0.136-0.302-0.302v-4.704c0-0.166,0.135-0.302,0.302-0.302s0.302,0.136,0.302,0.302v4.704
						C305.832,244.889,305.697,245.025,305.53,245.025z M305.53,233.264c-0.167,0-0.302-0.136-0.302-0.302v-4.704
						c0-0.166,0.135-0.302,0.302-0.302s0.302,0.136,0.302,0.302v4.704C305.832,233.128,305.697,233.264,305.53,233.264z
						 M305.53,221.503c-0.167,0-0.302-0.135-0.302-0.302v-4.704c0-0.167,0.135-0.302,0.302-0.302s0.302,0.135,0.302,0.302v4.704
						C305.832,221.368,305.697,221.503,305.53,221.503z"/>
				</g>
				<g>
					<path style="fill:#CFCCFF;" d="M305.53,336.824c-0.167,0-0.302-0.136-0.302-0.302v-2.416c0-0.166,0.135-0.302,0.302-0.302
						s0.302,0.136,0.302,0.302v2.416C305.832,336.688,305.697,336.824,305.53,336.824z"/>
				</g>
			</g>
			<g>
				<g>
					<path style="fill:#CFCCFF;" d="M351.051,208.617c-0.167,0-0.302-0.135-0.302-0.302v-2.416c0-0.167,0.135-0.302,0.302-0.302
						c0.167,0,0.302,0.135,0.302,0.302v2.416C351.353,208.482,351.217,208.617,351.051,208.617z"/>
				</g>
				<g>
					<path style="fill:#CFCCFF;" d="M351.051,327.287c-0.167,0-0.302-0.136-0.302-0.302v-4.746c0-0.166,0.135-0.302,0.302-0.302
						c0.167,0,0.302,0.136,0.302,0.302v4.746C351.353,327.152,351.217,327.287,351.051,327.287z M351.051,315.42
						c-0.167,0-0.302-0.136-0.302-0.302v-4.747c0-0.166,0.135-0.302,0.302-0.302c0.167,0,0.302,0.136,0.302,0.302v4.747
						C351.353,315.285,351.217,315.42,351.051,315.42z M351.051,303.553c-0.167,0-0.302-0.136-0.302-0.302v-4.747
						c0-0.166,0.135-0.302,0.302-0.302c0.167,0,0.302,0.136,0.302,0.302v4.747C351.353,303.418,351.217,303.553,351.051,303.553z
						 M351.051,291.686c-0.167,0-0.302-0.136-0.302-0.302v-4.746c0-0.166,0.135-0.302,0.302-0.302c0.167,0,0.302,0.136,0.302,0.302
						v4.746C351.353,291.551,351.217,291.686,351.051,291.686z M351.051,279.819c-0.167,0-0.302-0.136-0.302-0.302v-4.746
						c0-0.166,0.135-0.302,0.302-0.302c0.167,0,0.302,0.136,0.302,0.302v4.746C351.353,279.684,351.217,279.819,351.051,279.819z
						 M351.051,267.953c-0.167,0-0.302-0.136-0.302-0.302v-4.747c0-0.166,0.135-0.302,0.302-0.302c0.167,0,0.302,0.136,0.302,0.302
						v4.747C351.353,267.817,351.217,267.953,351.051,267.953z M351.051,256.086c-0.167,0-0.302-0.136-0.302-0.302v-4.747
						c0-0.166,0.135-0.302,0.302-0.302c0.167,0,0.302,0.136,0.302,0.302v4.747C351.353,255.95,351.217,256.086,351.051,256.086z
						 M351.051,244.219c-0.167,0-0.302-0.136-0.302-0.302v-4.746c0-0.166,0.135-0.302,0.302-0.302c0.167,0,0.302,0.136,0.302,0.302
						v4.746C351.353,244.083,351.217,244.219,351.051,244.219z M351.051,232.352c-0.167,0-0.302-0.136-0.302-0.302v-4.747
						c0-0.167,0.135-0.302,0.302-0.302c0.167,0,0.302,0.135,0.302,0.302v4.747C351.353,232.216,351.217,232.352,351.051,232.352z
						 M351.051,220.484c-0.167,0-0.302-0.135-0.302-0.302v-4.747c0-0.167,0.135-0.302,0.302-0.302c0.167,0,0.302,0.135,0.302,0.302
						v4.747C351.353,220.349,351.217,220.484,351.051,220.484z"/>
				</g>
				<g>
					<path style="fill:#CFCCFF;" d="M351.051,336.824c-0.167,0-0.302-0.136-0.302-0.302v-2.416c0-0.166,0.135-0.302,0.302-0.302
						c0.167,0,0.302,0.136,0.302,0.302v2.416C351.353,336.688,351.217,336.824,351.051,336.824z"/>
				</g>
			</g>
			<g>
				<g>
					<path style="fill:#CFCCFF;" d="M404.054,181.887c-0.166,0-0.302-0.135-0.302-0.302v-2.416c0-0.167,0.136-0.302,0.302-0.302
						c0.166,0,0.302,0.135,0.302,0.302v2.416C404.356,181.751,404.221,181.887,404.054,181.887z"/>
				</g>
				<g>
					<path style="fill:#CFCCFF;" d="M404.054,327.145c-0.166,0-0.302-0.136-0.302-0.302V322c0-0.166,0.136-0.302,0.302-0.302
						c0.166,0,0.302,0.136,0.302,0.302v4.842C404.356,327.009,404.221,327.145,404.054,327.145z M404.054,315.039
						c-0.166,0-0.302-0.136-0.302-0.302v-4.841c0-0.166,0.136-0.302,0.302-0.302c0.166,0,0.302,0.136,0.302,0.302v4.841
						C404.356,314.904,404.221,315.039,404.054,315.039z M404.054,302.935c-0.166,0-0.302-0.136-0.302-0.302v-4.842
						c0-0.166,0.136-0.302,0.302-0.302c0.166,0,0.302,0.136,0.302,0.302v4.842C404.356,302.799,404.221,302.935,404.054,302.935z
						 M404.054,290.83c-0.166,0-0.302-0.136-0.302-0.302v-4.842c0-0.166,0.136-0.302,0.302-0.302c0.166,0,0.302,0.136,0.302,0.302
						v4.842C404.356,290.694,404.221,290.83,404.054,290.83z M404.054,278.725c-0.166,0-0.302-0.136-0.302-0.302v-4.841
						c0-0.166,0.136-0.302,0.302-0.302c0.166,0,0.302,0.136,0.302,0.302v4.841C404.356,278.589,404.221,278.725,404.054,278.725z
						 M404.054,266.621c-0.166,0-0.302-0.136-0.302-0.302v-4.842c0-0.166,0.136-0.302,0.302-0.302c0.166,0,0.302,0.136,0.302,0.302
						v4.842C404.356,266.485,404.221,266.621,404.054,266.621z M404.054,254.515c-0.166,0-0.302-0.136-0.302-0.302v-4.842
						c0-0.166,0.136-0.302,0.302-0.302c0.166,0,0.302,0.136,0.302,0.302v4.842C404.356,254.38,404.221,254.515,404.054,254.515z
						 M404.054,242.411c-0.166,0-0.302-0.136-0.302-0.302v-4.842c0-0.166,0.136-0.302,0.302-0.302c0.166,0,0.302,0.136,0.302,0.302
						v4.842C404.356,242.275,404.221,242.411,404.054,242.411z M404.054,230.306c-0.166,0-0.302-0.136-0.302-0.302v-4.842
						c0-0.167,0.136-0.302,0.302-0.302c0.166,0,0.302,0.135,0.302,0.302v4.842C404.356,230.17,404.221,230.306,404.054,230.306z
						 M404.054,218.201c-0.166,0-0.302-0.135-0.302-0.302v-4.842c0-0.167,0.136-0.302,0.302-0.302c0.166,0,0.302,0.135,0.302,0.302
						v4.842C404.356,218.066,404.221,218.201,404.054,218.201z M404.054,206.096c-0.166,0-0.302-0.135-0.302-0.302v-4.842
						c0-0.167,0.136-0.302,0.302-0.302c0.166,0,0.302,0.135,0.302,0.302v4.842C404.356,205.961,404.221,206.096,404.054,206.096z
						 M404.054,193.991c-0.166,0-0.302-0.135-0.302-0.302v-4.842c0-0.167,0.136-0.302,0.302-0.302c0.166,0,0.302,0.135,0.302,0.302
						v4.842C404.356,193.856,404.221,193.991,404.054,193.991z"/>
				</g>
				<g>
					<path style="fill:#CFCCFF;" d="M404.054,336.824c-0.166,0-0.302-0.136-0.302-0.302v-2.416c0-0.166,0.136-0.302,0.302-0.302
						c0.166,0,0.302,0.136,0.302,0.302v2.416C404.356,336.688,404.221,336.824,404.054,336.824z"/>
				</g>
			</g>
			<g>
				<g>
					<path style="fill:#CFCCFF;" d="M449.887,201.536c-0.166,0-0.302-0.135-0.302-0.302v-2.416c0-0.167,0.136-0.302,0.302-0.302
						c0.166,0,0.302,0.135,0.302,0.302v2.416C450.189,201.401,450.053,201.536,449.887,201.536z"/>
				</g>
				<g>
					<path style="fill:#CFCCFF;" d="M449.887,326.886c-0.166,0-0.302-0.136-0.302-0.302v-5.013c0-0.166,0.136-0.302,0.302-0.302
						c0.166,0,0.302,0.136,0.302,0.302v5.013C450.189,326.75,450.053,326.886,449.887,326.886z M449.887,314.352
						c-0.166,0-0.302-0.136-0.302-0.302v-5.014c0-0.166,0.136-0.302,0.302-0.302c0.166,0,0.302,0.136,0.302,0.302v5.014
						C450.189,314.216,450.053,314.352,449.887,314.352z M449.887,301.817c-0.166,0-0.302-0.136-0.302-0.302V296.5
						c0-0.166,0.136-0.302,0.302-0.302c0.166,0,0.302,0.136,0.302,0.302v5.014C450.189,301.681,450.053,301.817,449.887,301.817z
						 M449.887,289.282c-0.166,0-0.302-0.136-0.302-0.302v-5.014c0-0.166,0.136-0.302,0.302-0.302c0.166,0,0.302,0.136,0.302,0.302
						v5.014C450.189,289.146,450.053,289.282,449.887,289.282z M449.887,276.746c-0.166,0-0.302-0.136-0.302-0.302v-5.013
						c0-0.166,0.136-0.302,0.302-0.302c0.166,0,0.302,0.136,0.302,0.302v5.013C450.189,276.61,450.053,276.746,449.887,276.746z
						 M449.887,264.211c-0.166,0-0.302-0.136-0.302-0.302v-5.014c0-0.166,0.136-0.302,0.302-0.302c0.166,0,0.302,0.136,0.302,0.302
						v5.014C450.189,264.076,450.053,264.211,449.887,264.211z M449.887,251.677c-0.166,0-0.302-0.136-0.302-0.302v-5.014
						c0-0.166,0.136-0.302,0.302-0.302c0.166,0,0.302,0.136,0.302,0.302v5.014C450.189,251.541,450.053,251.677,449.887,251.677z
						 M449.887,239.142c-0.166,0-0.302-0.136-0.302-0.302v-5.014c0-0.166,0.136-0.302,0.302-0.302c0.166,0,0.302,0.136,0.302,0.302
						v5.014C450.189,239.006,450.053,239.142,449.887,239.142z M449.887,226.607c-0.166,0-0.302-0.135-0.302-0.302v-5.014
						c0-0.167,0.136-0.302,0.302-0.302c0.166,0,0.302,0.135,0.302,0.302v5.014C450.189,226.471,450.053,226.607,449.887,226.607z
						 M449.887,214.071c-0.166,0-0.302-0.135-0.302-0.302v-5.014c0-0.167,0.136-0.302,0.302-0.302c0.166,0,0.302,0.135,0.302,0.302
						v5.014C450.189,213.936,450.053,214.071,449.887,214.071z"/>
				</g>
				<g>
					<path style="fill:#CFCCFF;" d="M449.887,336.824c-0.166,0-0.302-0.136-0.302-0.302v-2.416c0-0.166,0.136-0.302,0.302-0.302
						c0.166,0,0.302,0.136,0.302,0.302v2.416C450.189,336.688,450.053,336.824,449.887,336.824z"/>
				</g>
			</g>
			<g>
				<g>
					<path style="fill:#CFCCFF;" d="M489.026,195.605c-0.166,0-0.302-0.135-0.302-0.302v-2.416c0-0.167,0.136-0.302,0.302-0.302
						c0.166,0,0.302,0.135,0.302,0.302v2.416C489.328,195.47,489.192,195.605,489.026,195.605z"/>
				</g>
				<g>
					<path style="fill:#CFCCFF;" d="M489.026,327.228c-0.166,0-0.302-0.136-0.302-0.302v-4.787c0-0.166,0.136-0.302,0.302-0.302
						c0.166,0,0.302,0.136,0.302,0.302v4.787C489.328,327.093,489.192,327.228,489.026,327.228z M489.026,315.262
						c-0.166,0-0.302-0.136-0.302-0.302v-4.787c0-0.166,0.136-0.302,0.302-0.302c0.166,0,0.302,0.136,0.302,0.302v4.787
						C489.328,315.127,489.192,315.262,489.026,315.262z M489.026,303.296c-0.166,0-0.302-0.136-0.302-0.302v-4.786
						c0-0.166,0.136-0.302,0.302-0.302c0.166,0,0.302,0.136,0.302,0.302v4.786C489.328,303.161,489.192,303.296,489.026,303.296z
						 M489.026,291.331c-0.166,0-0.302-0.136-0.302-0.302v-4.787c0-0.166,0.136-0.302,0.302-0.302c0.166,0,0.302,0.136,0.302,0.302
						v4.787C489.328,291.196,489.192,291.331,489.026,291.331z M489.026,279.365c-0.166,0-0.302-0.136-0.302-0.302v-4.787
						c0-0.166,0.136-0.302,0.302-0.302c0.166,0,0.302,0.136,0.302,0.302v4.787C489.328,279.23,489.192,279.365,489.026,279.365z
						 M489.026,267.399c-0.166,0-0.302-0.136-0.302-0.302v-4.787c0-0.166,0.136-0.302,0.302-0.302c0.166,0,0.302,0.136,0.302,0.302
						v4.787C489.328,267.263,489.192,267.399,489.026,267.399z M489.026,255.433c-0.166,0-0.302-0.136-0.302-0.302v-4.785
						c0-0.166,0.136-0.302,0.302-0.302c0.166,0,0.302,0.136,0.302,0.302v4.785C489.328,255.298,489.192,255.433,489.026,255.433z
						 M489.026,243.467c-0.166,0-0.302-0.136-0.302-0.302v-4.786c0-0.166,0.136-0.302,0.302-0.302c0.166,0,0.302,0.136,0.302,0.302
						v4.786C489.328,243.331,489.192,243.467,489.026,243.467z M489.026,231.502c-0.166,0-0.302-0.136-0.302-0.302v-4.787
						c0-0.167,0.136-0.302,0.302-0.302c0.166,0,0.302,0.135,0.302,0.302v4.787C489.328,231.367,489.192,231.502,489.026,231.502z
						 M489.026,219.536c-0.166,0-0.302-0.135-0.302-0.302v-4.786c0-0.167,0.136-0.302,0.302-0.302c0.166,0,0.302,0.135,0.302,0.302
						v4.786C489.328,219.401,489.192,219.536,489.026,219.536z M489.026,207.57c-0.166,0-0.302-0.135-0.302-0.302v-4.786
						c0-0.167,0.136-0.302,0.302-0.302c0.166,0,0.302,0.135,0.302,0.302v4.786C489.328,207.435,489.192,207.57,489.026,207.57z"/>
				</g>
				<g>
					<path style="fill:#CFCCFF;" d="M489.026,336.824c-0.166,0-0.302-0.136-0.302-0.302v-2.416c0-0.166,0.136-0.302,0.302-0.302
						c0.166,0,0.302,0.136,0.302,0.302v2.416C489.328,336.688,489.192,336.824,489.026,336.824z"/>
				</g>
			</g>
			<g>
				<g>
					<path style="fill:#CFCCFF;" d="M547.203,215.247c-0.166,0-0.302-0.135-0.302-0.302v-2.416c0-0.167,0.136-0.302,0.302-0.302
						c0.166,0,0.302,0.135,0.302,0.302v2.416C547.505,215.112,547.37,215.247,547.203,215.247z"/>
				</g>
				<g>
					<path style="fill:#CFCCFF;" d="M547.203,326.961c-0.166,0-0.302-0.136-0.302-0.302v-4.966c0-0.166,0.136-0.302,0.302-0.302
						c0.166,0,0.302,0.136,0.302,0.302v4.966C547.505,326.825,547.37,326.961,547.203,326.961z M547.203,314.547
						c-0.166,0-0.302-0.136-0.302-0.302v-4.965c0-0.166,0.136-0.302,0.302-0.302c0.166,0,0.302,0.136,0.302,0.302v4.965
						C547.505,314.412,547.37,314.547,547.203,314.547z M547.203,302.135c-0.166,0-0.302-0.136-0.302-0.302v-4.965
						c0-0.166,0.136-0.302,0.302-0.302c0.166,0,0.302,0.136,0.302,0.302v4.965C547.505,302,547.37,302.135,547.203,302.135z
						 M547.203,289.722c-0.166,0-0.302-0.136-0.302-0.302v-4.965c0-0.166,0.136-0.302,0.302-0.302c0.166,0,0.302,0.136,0.302,0.302
						v4.965C547.505,289.586,547.37,289.722,547.203,289.722z M547.203,277.31c-0.166,0-0.302-0.136-0.302-0.302v-4.965
						c0-0.166,0.136-0.302,0.302-0.302c0.166,0,0.302,0.136,0.302,0.302v4.965C547.505,277.174,547.37,277.31,547.203,277.31z
						 M547.203,264.897c-0.166,0-0.302-0.136-0.302-0.302v-4.965c0-0.166,0.136-0.302,0.302-0.302c0.166,0,0.302,0.136,0.302,0.302
						v4.965C547.505,264.761,547.37,264.897,547.203,264.897z M547.203,252.485c-0.166,0-0.302-0.136-0.302-0.302v-4.965
						c0-0.166,0.136-0.302,0.302-0.302c0.166,0,0.302,0.136,0.302,0.302v4.965C547.505,252.349,547.37,252.485,547.203,252.485z
						 M547.203,240.073c-0.166,0-0.302-0.136-0.302-0.302v-4.966c0-0.166,0.136-0.302,0.302-0.302c0.166,0,0.302,0.136,0.302,0.302
						v4.966C547.505,239.937,547.37,240.073,547.203,240.073z M547.203,227.66c-0.166,0-0.302-0.136-0.302-0.302v-4.965
						c0-0.167,0.136-0.302,0.302-0.302c0.166,0,0.302,0.135,0.302,0.302v4.965C547.505,227.524,547.37,227.66,547.203,227.66z"/>
				</g>
				<g>
					<path style="fill:#CFCCFF;" d="M547.203,336.824c-0.166,0-0.302-0.136-0.302-0.302v-2.416c0-0.166,0.136-0.302,0.302-0.302
						c0.166,0,0.302,0.136,0.302,0.302v2.416C547.505,336.688,547.37,336.824,547.203,336.824z"/>
				</g>
			</g>
		</g>
		<g>
			<path style="fill:#8B86D9;" d="M454.276,198.818c0,2.424-1.965,4.389-4.389,4.389c-2.424,0-4.389-1.965-4.389-4.389
				c0-2.424,1.965-4.39,4.389-4.39C452.311,194.429,454.276,196.394,454.276,198.818z"/>
			<path style="fill:#553AC7;" d="M453.224,198.818c0,1.843-1.494,3.337-3.337,3.337c-1.843,0-3.337-1.494-3.337-3.337
				c0-1.843,1.494-3.337,3.337-3.337C451.729,195.481,453.224,196.975,453.224,198.818z"/>
		</g>
		<g>
			<circle style="fill:#8B86D9;" cx="547.204" cy="212.529" r="4.389"/>
			<path style="fill:#553AC7;" d="M550.541,212.529c0,1.843-1.494,3.337-3.337,3.337c-1.843,0-3.337-1.494-3.337-3.337
				s1.494-3.337,3.337-3.337C549.047,209.192,550.541,210.686,550.541,212.529z"/>
		</g>
		<g>
			<path style="fill:#8B86D9;" d="M408.443,179.168c0,2.424-1.965,4.389-4.389,4.389c-2.424,0-4.389-1.965-4.389-4.389
				c0-2.424,1.965-4.389,4.389-4.389C406.478,174.779,408.443,176.744,408.443,179.168z"/>
			<path style="fill:#553AC7;" d="M407.391,179.168c0,1.843-1.494,3.337-3.337,3.337c-1.843,0-3.337-1.494-3.337-3.337
				c0-1.843,1.494-3.337,3.337-3.337C405.897,175.831,407.391,177.325,407.391,179.168z"/>
		</g>
		<g>
			<circle style="fill:#8B86D9;" cx="351.051" cy="205.899" r="4.389"/>
			<path style="fill:#553AC7;" d="M354.388,205.899c0,1.843-1.494,3.337-3.337,3.337c-1.843,0-3.337-1.494-3.337-3.337
				c0-1.843,1.494-3.337,3.337-3.337C352.894,202.562,354.388,204.056,354.388,205.899z"/>
		</g>
		<g>
			<path style="fill:#8B86D9;" d="M309.919,207.024c0,2.424-1.965,4.389-4.389,4.389c-2.424,0-4.39-1.965-4.39-4.389
				c0-2.424,1.965-4.389,4.39-4.389C307.954,202.635,309.919,204.6,309.919,207.024z"/>
			<path style="fill:#553AC7;" d="M308.867,207.024c0,1.843-1.494,3.337-3.337,3.337c-1.843,0-3.337-1.494-3.337-3.337
				c0-1.843,1.494-3.337,3.337-3.337C307.373,203.687,308.867,205.181,308.867,207.024z"/>
		</g>
		<g>
			<path style="fill:#8B86D9;" d="M258.418,203.208c0,2.424-1.965,4.389-4.389,4.389c-2.424,0-4.389-1.965-4.389-4.389
				c0-2.424,1.965-4.389,4.389-4.389C256.453,198.818,258.418,200.783,258.418,203.208z"/>
			<path style="fill:#553AC7;" d="M257.366,203.208c0,1.843-1.494,3.337-3.337,3.337s-3.337-1.494-3.337-3.337
				c0-1.843,1.494-3.337,3.337-3.337S257.366,201.365,257.366,203.208z"/>
		</g>
		<g>
			<polygon style="fill:#FFFFFF;" points="578.829,337.126 191.611,337.126 191.611,137.174 192.819,137.174 192.819,335.918 
				578.829,335.918 			"/>
		</g>
		<rect x="453.224" y="132.088" style="fill:#FFFFFF;" width="43.03" height="9.354"/>
		<rect x="506.615" y="132.088" style="fill:#FFFFFF;" width="67.05" height="9.354"/>
		
			<ellipse transform="matrix(0.8528 -0.5222 0.5222 0.8528 -28.7825 283.7703)" style="fill:#C3BFFF;" cx="489.026" cy="192.946" rx="20.567" ry="20.567"/>
		<g>
			<path style="fill:#DBD9FF;" d="M500.396,192.946c0,6.279-5.09,11.369-11.37,11.369c-6.279,0-11.369-5.09-11.369-11.369
				c0-6.279,5.09-11.369,11.369-11.369C495.305,181.577,500.396,186.667,500.396,192.946z"/>
			
				<ellipse transform="matrix(0.9246 -0.3809 0.3809 0.9246 -36.6287 200.8049)" style="fill:#B6B3FF;" cx="489.026" cy="192.946" rx="7.748" ry="7.748"/>
			<path style="fill:#5B53D6;" d="M493.152,192.946c0,2.279-1.847,4.126-4.126,4.126c-2.279,0-4.126-1.847-4.126-4.126
				c0-2.279,1.847-4.126,4.126-4.126C491.305,188.82,493.152,190.667,493.152,192.946z"/>
		</g>
	</g>
	<g>
		<g>
			<rect x="102.11" y="36.994" style="fill:#553AC7;" width="196.56" height="145.511"/>
			<g>
				<path style="fill:#FFFFFF;" d="M158.611,133.568l-18.346,26.055c-10.591-7.48-18.7-18.243-22.841-30.801l30.241-9.985
					C149.655,124.853,153.533,130.011,158.611,133.568z"/>
				<path style="fill:#F6B34F;" d="M236.581,109.652c0,33.752-27.359,61.122-61.122,61.122c-13.096,0-25.243-4.129-35.193-11.152
					l18.346-26.055c4.758,3.374,10.568,5.353,16.848,5.353c16.173,0,29.28-13.107,29.28-29.269s-13.107-29.269-29.28-29.269V48.53
					C209.222,48.53,236.581,75.9,236.581,109.652z"/>
				<path style="fill:#F04965;" d="M175.458,48.53v31.854c-16.161,0-29.269,13.107-29.269,29.269c0,3.202,0.515,6.291,1.475,9.184
					l-30.241,9.985c-2.002-6.028-3.077-12.467-3.077-19.169C114.347,75.9,141.706,48.53,175.458,48.53z"/>
			</g>
			<rect x="249.33" y="140.895" style="fill:#ADA8F0;" width="38.116" height="7.406"/>
			<rect x="239.528" y="156.9" style="fill:#ADA8F0;" width="47.918" height="7.406"/>
			<rect x="265.933" y="98.961" style="fill:#F6B34F;" width="12.16" height="8.184"/>
			<rect x="265.933" y="80.079" style="fill:#FFFFFF;" width="12.16" height="8.184"/>
			<rect x="265.933" y="61.196" style="fill:#F04965;" width="12.16" height="8.184"/>
		</g>
		
			<rect x="105.475" y="40.111" style="fill:none;stroke:#F04965;stroke-width:1.2082;stroke-miterlimit:10;" width="196.56" height="145.511"/>
	</g>
	<g>
		<g>
			<rect x="314.961" y="81.579" style="fill:#553AC7;" width="56.976" height="8.418"/>
			<rect x="314.961" y="48.53" style="fill:#553AC7;" width="56.976" height="8.418"/>
			<rect x="314.961" y="61.079" style="fill:#553AC7;" width="35.568" height="8.418"/>
		</g>
		<g>
			<g>
				<rect x="140.595" y="209.064" style="fill:#716AD9;" width="27.437" height="6.07"/>
				<rect x="127.344" y="218.468" style="fill:#716AD9;" width="53.939" height="6.07"/>
				<rect x="134.36" y="227.872" style="fill:#716AD9;" width="39.909" height="6.07"/>
			</g>
			<g>
				<rect x="140.595" y="254.091" style="fill:#716AD9;" width="27.437" height="6.07"/>
				<rect x="127.344" y="263.496" style="fill:#716AD9;" width="53.939" height="6.07"/>
				<rect x="134.36" y="272.9" style="fill:#716AD9;" width="39.909" height="6.07"/>
			</g>
		</g>
	</g>
	<g>
		<rect x="571.463" y="164.317" style="fill:#F04965;" width="74.225" height="144.347"/>
		
			<rect x="573.665" y="166.968" style="fill:none;stroke:#553AC7;stroke-width:1.2082;stroke-miterlimit:10;" width="74.225" height="144.347"/>
		<g>
			<rect x="582.161" y="261.174" style="fill:#FFFFFF;" width="13.543" height="38.176"/>
			<rect x="601.804" y="181.343" style="fill:#F6B34F;" width="13.543" height="118.007"/>
			<rect x="621.446" y="228.807" style="fill:#553AC7;" width="13.543" height="70.544"/>
		</g>
	</g>
	<g>
		<rect x="564.935" y="379.958" style="fill:#F04965;" width="16.213" height="7.483"/>
		<rect x="564.935" y="395.235" style="fill:#F04965;" width="16.213" height="7.483"/>
		<rect x="564.935" y="410.513" style="fill:#F04965;" width="16.213" height="7.483"/>
		<rect x="587.374" y="379.958" style="fill:#716AD9;" width="51.116" height="7.483"/>
		<rect x="587.374" y="395.235" style="fill:#716AD9;" width="45.219" height="7.483"/>
		<rect x="587.374" y="410.513" style="fill:#716AD9;" width="54.572" height="7.483"/>
	</g>
	<g>
		<g>
			<ellipse style="fill:#E1DAFC;" cx="513.772" cy="448.031" rx="53.62" ry="14.975"/>
			<g>
				<path style="fill:#1B348C;" d="M545.998,442.798c0,2.333-4.511,7.571-9.904,10.203c-4.045,1.971-10.903,0.998-14.105,0.376
					c-1.089-0.207-1.763-0.376-1.763-0.376l0.933-5.899c0,0,1.698-1.724,4.343-3.656c2.437-1.763,5.717-3.721,9.205-4.615
					C541.979,436.938,545.998,440.451,545.998,442.798z"/>
				<path style="fill:#001552;" d="M545.998,442.798c0,2.333-4.511,7.571-9.904,10.203c-4.045,1.971-10.903,0.998-14.105,0.376
					c0.752-2.476,2.321-7.415,3.513-9.93c2.437-1.763,5.717-3.721,9.205-4.615C541.979,436.938,545.998,440.451,545.998,442.798z"/>
			</g>
			<g>
				<path style="fill:#1B348C;" d="M513.588,453.628c0,0-19.262,1.946-31.311-3.392c0,0,0.115-0.529,0.429-1.331
					c1.088-2.719,4.551-8.486,13.981-6.354c3.048,0.687,5.624,1.417,7.785,2.104c0,0,0,0,0.014,0
					c6.454,2.061,9.101,3.849,9.101,3.849S514.003,451.968,513.588,453.628z"/>
				<path style="fill:#001552;" d="M513.588,453.628c0,0-19.262,1.946-31.311-3.392c0,0,0.115-0.529,0.429-1.331
					c3.621,1.088,10.132,2.633,13.981,0.987c3.105-1.317,5.695-3.506,7.785-5.238c0,0,0,0,0.014,0
					c6.454,2.061,9.101,3.849,9.101,3.849S514.003,451.968,513.588,453.628z"/>
			</g>
			<g>
				<path style="fill:#1B348C;" d="M542.456,334.316c0,0-3.117,35.146-4.99,53.159c0,0-2.344,46.998-3.045,59.623
					c0,0-5.666,0.665-13.326,0c0,0-0.52-8.131-1.172-18.485c-1.039-16.721-2.392-39.217-2.368-42.539
					c0.024-2.731-1.426-16.033-2.839-28.465c-0.713-6.162-1.414-12.118-1.921-16.455c-0.495-4.156-0.822-6.838-0.822-6.838H542.456z
					"/>
				<path style="fill:#001552;" d="M542.456,334.316c0,0-3.117,35.146-4.99,53.159c0,0-2.344,46.998-3.045,59.623
					c0,0-5.666,0.665-13.326,0c0,0-0.52-8.131-1.172-18.485l0.302-3.721c0,0,0.399-31.11,0-39.06
					c-0.399-7.95-5.509-28.223-5.509-28.223l1.075-15.03l-2.996-1.426c-0.495-4.156-0.822-6.838-0.822-6.838H542.456z"/>
				<path style="fill:#1B348C;" d="M520.225,334.232c-0.242,1.027-11.997,50.683-11.997,51.371c0,0.701,5.388,62.897,5.388,62.897
					c-4.966,1.607-9.81,1.559-12.384,1.365c-1.184-0.073-1.885-0.193-1.885-0.193l-12.166-64.069
					c0.713-6.548,1.957-49.885,1.957-49.885l10.173-0.495l20.575-0.991l0.338-0.012C520.225,334.22,520.225,334.22,520.225,334.232z
					"/>
				<path style="fill:#001552;" d="M508.228,385.603c0,0.701,5.388,62.897,5.388,62.897c-4.966,1.607-9.81,1.559-12.384,1.365
					l-10.173-61.689l6.959-3.274l10.68-40.921c0,0-6.5-6.355-9.388-8.759c-0.664-0.544-1.136-0.894-1.293-0.906l21.868-0.085h0.338
					C519.984,335.259,508.228,384.914,508.228,385.603z"/>
			</g>
		</g>
		<g>
			<path style="fill:#FFB3A0;" d="M511.846,233.391c0,0-2.889-3.824-3.732-5.162s-1.445-13.016-1.324-14.702
				c0.12-1.686,5.056-8.788,11.918-7.464c6.862,1.324,7.825,8.909,7.103,15.41c-0.722,6.501-3.01,11.678-5.899,12.4
				C517.023,234.594,513.301,235.341,511.846,233.391z"/>
			<path style="fill:#FFB3A0;" d="M525.807,244.948l-17.688-3.129c0,0,2.525-6.258,3.129-10.233c0.592-3.975,1.8-4.7,1.8-4.7
				l11.079,2.416c0,0,0.375,5.123,0.822,9.581c0.217,2.078,0.459,4.011,0.664,5.207
				C525.686,244.452,525.747,244.742,525.807,244.948z"/>
			<path style="fill:#C1897C;" d="M525.614,244.09l-16.02-4.265c0,0,10.692-0.798,15.356-0.943
				C525.167,240.961,525.408,242.894,525.614,244.09z"/>
			<path style="fill:#360700;" d="M510.492,221.957c0,0-0.959-2.158-1.665-3.021c-0.706-0.863-1.924-1.911-1.924-1.911
				s-1.898-4.747-2.33-6.843c-0.432-2.096-1.11-4.624,0.986-6.288c2.096-1.664,4.932-1.664,4.932-1.664s1.973-3.144,7.213-3.391
				c5.24-0.247,11.035,1.576,14.055,7.23c3.021,5.654,2.158,10.277,1.356,13.175c-0.802,2.897-6.165,10.11-6.781,11.466
				c-0.616,1.356-3.514,4.87-5.117,5.24c-1.603,0.37-6.165-1.171-7.398-2.774c-1.233-1.603-2.466-4.623-2.404-6.658
				C511.478,224.485,510.492,221.957,510.492,221.957z"/>
			<path style="fill:#C1897C;" d="M510.07,224.5c0,0-2.096-0.398-2.913-2.555c-0.818-2.157-0.797-4.398,0.665-4.3
				c1.461,0.098,1.646,0.745,1.646,0.745L510.07,224.5z"/>
		</g>
		<g>
			<path style="fill:#FFB3A0;" d="M568.177,291.136c-0.085,0.157-1.269,1.812-3.02,4.216c-0.52,0.713-1.099,1.474-1.703,2.271
				c-5.437,7.056-13.628,16.262-13.834,16.89c-0.314,0.93-7.007,4.205-9.822,4.205v-8.409c0,0,4.76-1.124,7.406-0.181l10.523-22.424
				l-8.107-9.822l3.021-1.836l6.959-4.241c0,0,7.95,11.84,8.578,13.085C568.794,286.146,568.48,290.508,568.177,291.136z"/>
			<path style="fill:#C1897C;" d="M567.392,289.843c0,0-0.942,1.981-3.939,7.781c-5.437,7.056-13.628,16.262-13.834,16.89
				c-0.314,0.93-7.007,4.205-9.822,4.205v-5.932c2.477-0.06,6.391-0.52,7.406-2.658l10.523-22.424l-8.107-9.822l3.021-1.836h1.885
				c0,0,7.491,9.315,9.242,10.741C565.519,288.212,567.392,289.843,567.392,289.843z"/>
			<path style="fill:#F6B34F;" d="M559.599,271.805c0,0-1.836,3.733-5.074,6.995c-1.764,1.776-3.939,3.407-6.464,4.229
				l-13.254-10.608l3.757-21.505l0.604-3.419L559.599,271.805z"/>
			<path style="fill:#FF7700;" d="M554.525,278.801c-1.764,1.776-3.939,3.407-6.464,4.229l-13.254-10.608l3.757-21.505l6.536,18.702
				L554.525,278.801z"/>
		</g>
		<g>
			<path style="fill:#F6B34F;" d="M542.456,334.316c0,0-0.411,0.085-1.196,0.217c-3.117,0.556-12.045,1.957-23.704,2.404
				c-8.433,0.326-18.304,0.157-28.416-1.22c0,0,3.588-42.25,3.588-44.279c0-1.003-0.64-10.39-1.293-19.633v-0.012
				c-0.664-9.424-1.329-18.666-1.329-18.666l1.921-4.784l4.748-11.852c0,0,35.387,6.041,42.395,11.006
				c0,0,2.175,33.249-0.145,44.884C538.867,293.154,542.456,334.316,542.456,334.316z"/>
			<path style="fill:#FF7700;" d="M541.259,334.534c-3.117,0.556-12.045,1.957-23.704,2.404
				c3.359-3.371,14.341-14.571,14.607-16.806c0.314-2.658,0.858-28.223,0.858-28.223l4.603-26.652c0,0,0.302,26.809,0,27.595
				C537.333,293.552,540.643,328.118,541.259,334.534z"/>
			<path style="fill:#FF7700;" d="M492.027,248.343l-0.592,23.45c-0.664-9.424-1.329-18.666-1.329-18.666L492.027,248.343z"/>
		</g>
		<g>
			<path style="fill:#FFB3A0;" d="M496.775,236.491l-5.968,11.852l-10.547-8.518l-5.231-4.229c0,0-1.752-3.745-1.172-5.147
				c0.592-1.402,9.593-29.576,9.593-29.576l5.026,1.281c-1.752,7.37-3.781,25.879-3.781,25.879L496.775,236.491z"/>
			<path style="fill:#C1897C;" d="M481.262,238.52l-1.003,1.305l-5.231-4.229c0,0-0.121-2.187,1.402-1.595
				C477.951,234.582,481.262,238.52,481.262,238.52z"/>
			<path style="fill:#C1897C;" d="M484.106,229.631l2.848-22.607c0,0-5.888,24.273-5.69,24.868L484.106,229.631z"/>
			<path style="fill:#F6B34F;" d="M496.775,236.491l-4.748,11.852l-1.921,4.784l-10.656-8.361l-5.715-4.494
				c3.975-6.669,10.958-12.239,10.958-12.239L496.775,236.491z"/>
			<path style="fill:#FF7700;" d="M492.027,248.343l-1.921,4.784l-10.656-8.361C484.318,246.12,492.027,248.343,492.027,248.343z"/>
			<path style="fill:#FFB3A0;" d="M483.446,200.869c0,0-0.468-7.015,0-8.067c0.468-1.052,5.145-3.858,6.547-3.391
				c1.403,0.468,4.326,2.806,4.326,2.806s-2.044,5.039-1.811,5.741c0.234,0.702-4.035,4.197-4.035,4.197l-3.219,1.052
				L483.446,200.869z"/>
			<path style="fill:#FFB3A0;" d="M490.753,198.122c0,0,2.748-0.117,3.917-0.701c1.169-0.585,1.637-0.409,1.578,0.351
				c-0.059,0.76-3.098,2.765-3.683,2.961c-0.585,0.196-4.092,1.424-4.092,1.424L490.753,198.122z"/>
		</g>
	</g>
	<g>
		<g>
			<g>
				<path style="fill:#F04965;" d="M260.337,288.91c0,0-0.753,0.144-1.882,0.347c-0.427,0.083-0.904,0.175-1.418,0.267
					c-1.845,0.349-4.153,0.766-5.935,1.093c-0.828,0.141-1.543,0.274-2.057,0.365l-2.788-36.466l-0.211-2.786
					c0,0,7.25,2.422,9.746,9.398C258.275,268.09,260.337,288.91,260.337,288.91z"/>
				<path style="fill:#982C44;" d="M257.036,289.524c-2.698,0.501-6.349,1.176-7.992,1.458l-2.788-36.466l0.765-0.754
					c-0.225,0.626,3.402,3.039,5.744,10.731C254.798,271.225,256.472,284.681,257.036,289.524z"/>
			</g>
			<g>
				<path style="fill:#FFB3A0;" d="M256.811,329.679c-0.646,1.506-2.999,2.706-4.5,3.194c-0.404,0.133-0.743,0.207-0.98,0.222
					c-1.087,0.081,0.928-2.628,1.409-5.286c0.493-2.645,0.244-6.043,0.244-6.043s-1.582,2.477-1.905,3.684
					c-0.335,1.195-0.335,1.195-0.335,1.195s-1.881-1.533-1.303-3.814c0.578-2.281,3.706-5.43,3.768-6.635
					c0.012-0.298,0.019-1.095,0.001-2.18c-0.054-3.302-0.272-9.314-0.618-12.155c-0.177-1.477-0.798-6.135-1.489-11.244
					c1.782-0.327,4.09-0.744,5.935-1.093c0.514-0.091,0.991-0.184,1.418-0.267c0.075,6.791,0.168,13.732,0.184,16.123
					C258.664,310.6,257.61,327.769,256.811,329.679z"/>
				<path style="fill:#C1897C;" d="M258.455,289.257l-1.49,2.045c0,0-0.922,17.909-3.756,22.714
					c-0.054-3.302-0.272-9.314-0.618-12.155c-0.177-1.477-0.798-6.135-1.489-11.244c1.782-0.327,4.09-0.744,5.935-1.093
					C257.551,289.432,258.028,289.34,258.455,289.257z"/>
				<path style="fill:#C1897C;" d="M253.184,329.421c-0.05,0.621-0.335,2.44-0.874,3.452c-0.404,0.133-0.743,0.207-0.98,0.222
					c-1.087,0.081,0.928-2.628,1.409-5.286c0.493-2.645,0.244-6.043,0.244-6.043c0.05,0.002,0.634,0.038,0.971,0.625
					C254.315,323.015,253.256,328.577,253.184,329.421z"/>
			</g>
		</g>
		<ellipse style="fill:#E1DAFC;" cx="236.002" cy="444.655" rx="46.768" ry="14.975"/>
		<g>
			<g>
				<path style="fill:#1B348C;" d="M269.063,446.638c-0.047,0.159-0.536,0.291-1.736,0.313c-1.643,0.014-4.639-0.177-9.654-0.772
					c-8.636-1.024-15.231-4.414-15.231-4.414s-1.019-1.21-0.377-2.646c0.643-1.445,2.757-7.891,2.757-7.891l9.083,1.929
					c0,0,7.158,6.436,8.398,7.162c1.23,0.735,6.368,1.527,7.394,2.838C270.712,444.467,269.179,446.26,269.063,446.638z"/>
				<path style="fill:#001552;" d="M267.327,446.951c-1.643,0.014-4.639-0.177-9.654-0.772c-8.636-1.024-15.231-4.414-15.231-4.414
					s-1.019-1.21-0.377-2.646c0.643-1.445,2.757-7.891,2.757-7.891l9.083,1.929c0,0-5.755,0.745-8.139,0.387
					c0,0-0.126,4.611,1.23,6.49c1.356,1.869,11.368,3.512,14.273,3.952c2.915,0.44,6.032,0.364,6.248,1.512
					C267.607,446.005,267.575,446.528,267.327,446.951z"/>
			</g>
			<g>
				<path style="fill:#1B348C;" d="M234.215,451.249c-0.37,1.501-1.659,3.304-3.939,3.212c-2.987-0.121-9.689-1.348-12.085-4.247
					c0,0,0.553-6.54,0.346-8.573c-0.207-2.043,0.089-7.137,0.089-7.137l7.534-0.853c0.02-0.009,0.03-0.009,0.03-0.009
					s2.875,7.845,3.583,9.32c0.718,1.475,4.312,5.579,4.543,7.035C234.371,450.338,234.344,450.776,234.215,451.249z"/>
				<path style="fill:#001552;" d="M234.215,451.249c-0.37,1.501-1.659,3.304-3.939,3.212c-2.987-0.121-9.689-1.348-12.085-4.247
					c0,0,0.553-6.54,0.346-8.573c-0.207-2.043,0.089-7.137,0.089-7.137l7.534-0.853c-0.293,0.098-2.689,0.909-3.572,1.781
					c-0.945,0.929-1.295,1.683-1.132,4.073c0.163,2.39,0.624,8.512,0.624,8.512c0.282,0.919,1.689,2.392,4.055,3.066
					c2.357,0.674,5.587,1.432,6.852,0.725C233.363,451.594,233.811,451.382,234.215,451.249z"/>
			</g>
			<g>
				<g>
					<path style="fill:#1B348C;" d="M258.839,406.567c-2.442,13.601-4.934,26.59-4.934,26.59s-7.942-0.084-11.225-2.383
						c0,0,3.199-13.845,3.125-23.736c-0.086-9.892,3.862-29.971,3.862-29.971l-21.39-37.504l4.748-21.989l3.243,0.816l15.128,3.787
						c0,0,11.19,51.066,12.044,53.989C263.866,377.664,261.389,392.447,258.839,406.567z"/>
					<path style="fill:#001552;" d="M259.896,380.368l-1.057,26.198c-2.442,13.601-4.934,26.59-4.934,26.59
						s-7.942-0.084-11.225-2.383c0,0,3.199-13.845,3.125-23.736c-0.086-9.892,3.862-29.971,3.862-29.971l-21.39-37.504l4.748-21.989
						l3.243,0.816c1.281,4.672,2.44,9.589,2.44,9.589s5.951,31.525,7.091,32.294c1.14,0.768,7.758,15.756,8.911,17.123
						C255.864,378.761,259.896,380.368,259.896,380.368z"/>
				</g>
				<g>
					<path style="fill:#1B348C;" d="M239.163,323.5c-0.656,11.319-8.616,46.219-10.315,55.615
						c-1.86,10.287-2.689,54.603-2.689,54.603c-2.738,0.886-5.537,1.109-7.368,1.122c-1.271,0.023-2.078-0.046-2.078-0.046
						s-2.687-16.747-3.96-27.161c-1.261-10.413-0.247-29.664,0.125-33.024c0.385-3.36-2.819-19.642-4.837-31.044
						c-2.018-11.415,1.214-23.901,1.214-23.901s6.478-1.283,13.403-1.9c7.599-0.665,15.714-0.524,16.455,3.005
						c0.022,0.063,0.032,0.126,0.042,0.189C239.229,321.572,239.231,322.431,239.163,323.5z"/>
					<path style="fill:#001552;" d="M215.489,324.101c0,0-4.618,6.726-4.501,11.861c0.116,5.148,6.957,38.69,7.541,39.971
						c0.596,1.282,6.181,2.367,6.181,2.367c-2.626,1.177-6.468,1.022-6.468,1.022s-3.033,7.275-3.357,15.295
						c-0.287,7.1,3.12,34.101,3.906,40.223c-1.271,0.023-2.078-0.046-2.078-0.046s-2.687-16.747-3.96-27.161
						c-1.261-10.413-0.247-29.664,0.125-33.024c0.385-3.36-2.819-19.642-4.837-31.044c-2.018-11.415,1.214-23.901,1.214-23.901
						s6.478-1.283,13.403-1.9l16.455,3.005l5.551,1.009c-1.451,0.763-3.354,1.322-5.5,1.721
						C229.662,325.321,215.489,324.101,215.489,324.101z"/>
				</g>
			</g>
		</g>
		<g>
			<path style="fill:#360700;" d="M231.974,210.05c0,0-12.568,0.902-14.695,9.82c-2.128,8.918-1.806,13.993-6.459,19.229
				c-4.653,5.236-8.498,8.937-6.545,20.265c1.953,11.328,2.727,20.037,1.967,26.916c-0.76,6.88-1.847,13.906,1.271,16.282
				c0,0,7.537-6.445,17.891-4.742c10.354,1.703,8.242-55.008,8.242-55.008L231.974,210.05z"/>
			<path style="fill:#FFB3A0;" d="M237.133,251.607c0,0-2.112,0.488-5.161,0.439c-0.411-0.004-0.845-0.059-1.276-0.164
				c-2.754-0.572-5.686-2.608-5.686-2.608c1.246-1.855,1.95-3.869,2.338-5.473c0.418-1.714,0.492-2.932,0.492-2.932
				s9.724,0.069,9.168,3.67c-0.375,2.513-0.164,4.988-0.002,6.227C237.071,251.293,237.133,251.607,237.133,251.607z"/>
			<path style="fill:#C1897C;" d="M237.133,251.607c0,0-2.112,0.488-5.161,0.439c-0.411-0.004-0.845-0.059-1.276-0.164
				c-0.163-0.579-0.411-1.237-0.681-1.958c-0.8-2.087-1.921-4.549-2.667-6.123c0.418-1.714,0.492-2.932,0.492-2.932
				s9.724,0.069,9.168,3.67c-0.375,2.513-0.164,4.988-0.002,6.227C237.071,251.293,237.133,251.607,237.133,251.607z"/>
			<path style="fill:#360700;" d="M244.306,216.788c0,0,3.422-0.826,4.085,3.66c0.663,4.486-3.113,9.857-5.52,10.553
				C240.464,231.698,244.306,216.788,244.306,216.788z"/>
			<path style="fill:#360700;" d="M244.04,229.191c0,0-1.514,7.552,1.33,11.303c0,0-3.438-1.866-2.96-10.706L244.04,229.191z"/>
			<path style="fill:#FFB3A0;" d="M244.424,223.18c0,0-1.157,4.774-1.504,7.412c-0.348,2.638-0.048,4.176-0.245,6.057
				c-0.196,1.88-2.004,7.833-7.896,10.488c0,0-7.443-3.715-9.462-7.453c-2.019-3.737-2.093-10.851-0.435-16.088
				c1.658-5.236,4.407-7.656,10.423-7.413C241.322,216.426,244.56,219.811,244.424,223.18z"/>
			<path style="fill:#982C44;" d="M233.332,241.63c0.073,0.129,0.211,0.211,0.33,0.295c0.113,0.081,0.229,0.158,0.35,0.228
				c0.244,0.141,0.51,0.26,0.787,0.317c0.255,0.053,0.517,0.059,0.773,0.007c0.123-0.025,0.242-0.066,0.356-0.12
				c0.124-0.059,0.194-0.132,0.262-0.25c0.031-0.053-0.02-0.121-0.08-0.104c-0.108,0.03-0.205,0.062-0.31,0.101
				c-0.099,0.037-0.203,0.062-0.308,0.073c-0.228,0.023-0.457-0.008-0.673-0.08c-0.226-0.076-0.435-0.197-0.629-0.334
				c-0.093-0.065-0.182-0.136-0.269-0.209c-0.11-0.093-0.205-0.194-0.343-0.243C233.392,241.245,233.244,241.475,233.332,241.63z"/>
			<polygon style="fill:#C1897C;" points="236.459,236.674 236.223,238.497 237.133,238.497 			"/>
			<path style="fill:#221F4F;" d="M239.83,233.219c0.051,0.648-0.131,1.191-0.407,1.212c-0.276,0.022-0.54-0.486-0.591-1.134
				c-0.051-0.648,0.131-1.191,0.407-1.212S239.779,232.572,239.83,233.219z"/>
			<path style="fill:#221F4F;" d="M233.754,233.697c0.051,0.648-0.131,1.191-0.407,1.212c-0.276,0.022-0.54-0.486-0.592-1.134
				c-0.051-0.648,0.131-1.191,0.407-1.212C233.438,232.542,233.703,233.05,233.754,233.697z"/>
			<path style="fill:#221F4F;" d="M240.918,229.503c-0.203-0.203-0.593-0.201-0.865-0.202c-0.294-0.001-0.586,0.04-0.87,0.11
				c-0.268,0.066-0.53,0.186-0.772,0.315c-0.12,0.064-0.236,0.135-0.347,0.213c-0.106,0.075-0.241,0.156-0.295,0.279
				c-0.023,0.051,0.014,0.127,0.079,0.116c0.114-0.02,0.201-0.09,0.3-0.146c0.116-0.065,0.236-0.121,0.359-0.17
				c0.25-0.099,0.501-0.15,0.766-0.183c0.248-0.031,0.5-0.036,0.749-0.006c0.127,0.016,0.254,0.037,0.379,0.063
				c0.063,0.013,0.125,0.033,0.187,0.046c0.089,0.018,0.167-0.002,0.254-0.022C241.034,229.871,241.032,229.617,240.918,229.503z"/>
			<path style="fill:#221F4F;" d="M233.996,230.725c-0.633-0.328-1.348-0.409-2.052-0.402c-0.324,0.003-0.651,0.022-0.967,0.1
				c-0.287,0.07-0.627,0.215-0.708,0.521c-0.014,0.054,0.038,0.107,0.091,0.102c0.261-0.023,0.498-0.174,0.752-0.246
				c0.29-0.082,0.59-0.112,0.889-0.13c0.643-0.04,1.298-0.001,1.893,0.264C234.031,230.995,234.129,230.794,233.996,230.725z"/>
			<path style="fill:#360700;" d="M225.638,230.578c0,0,13.401,1.585,18.745-6.395c0,0,2.83-3.421-0.563-8.942
				c-3.393-5.52-13.068-7.036-18.155-2.259c-5.087,4.776-4.538,14.601-2.704,17.166L225.638,230.578z"/>
			<path style="fill:#C1897C;" d="M225.638,230.578c0,0-1.915-2.327-3.183-0.771c-1.268,1.556-1.016,5.262,2.937,6.868
				L225.638,230.578z"/>
			<path style="fill:#360700;" d="M226.976,229.949c-0.007,0.18-2.173,6.059-0.748,12.564c0,0-2.652-5.29-0.562-12.618
				L226.976,229.949z"/>
		</g>
		<g>
			<path style="fill:#F04965;" d="M249.989,293.187c0.259,1.617,1.408,28.988,1.408,28.988c-28.102,3.524-42.143-2.51-42.143-2.51
				c0.291-0.723,0.569-1.434,0.834-2.146c5.233-13.949,6.616-25.675,6.616-25.675s-0.656-9.666-2.584-17.453
				c-1.136-4.567-2.374-10.62-2.564-15.472c-0.134-3.468,0.243-6.317,1.566-7.634c2.18-2.166,6.968-2.309,9.765-2.184
				c1.268,0.063,2.123,0.173,2.123,0.173l8.871,1.155l8.184,0.878l3.981,0.422c0,0,9.908,17.113,9.966,19.681
				C256.069,273.992,249.743,291.571,249.989,293.187z"/>
			<path style="fill:#982C44;" d="M236.223,258.158l-5.738-0.73l-1.115,3.819c-2.577-3.353-5.371-6.958-5.371-6.958l8.962,20.013
				c0,0,1.273-3.509,0.947-6.126L236.223,258.158z"/>
			<path style="fill:#FFB3A0;" d="M237.31,258.949c-0.476,0.068-0.976,0.122-1.514,0.163c-1.824,0.15-3.639-0.558-5.312-1.684
				c-3.48-2.332-6.378-6.435-7.597-8.327c1.268,0.063,2.123,0.173,2.123,0.173l5.005,0.65l3.865,0.505l3.125,0.338l2.567,0.278
				l1.228,0.124l1.265,0.138C244.289,256.367,242.481,258.262,237.31,258.949z"/>
			<path style="fill:#C1897C;" d="M241.247,252.42l-2.295,1.003c-0.451,1.613-1.055,3.607-1.643,5.526
				c-0.476,0.068-0.976,0.122-1.514,0.163c-1.824,0.15-3.639-0.558-5.312-1.684c0.37-1.766,0.626-3.474,0.478-4.439
				c-0.038-0.301-0.135-0.678-0.267-1.107l-0.681-1.958l3.865,0.505l3.125,0.338l2.567,0.278l1.228,0.124L241.247,252.42z"/>
			<path style="fill:#982C44;" d="M249.989,293.187c0,0-7.486,1.267-10.443,1.384c-2.945,0.13-11.187,0.993-11.187,0.993
				l2.158,12.267c0,0-8.209-12.624-9.468-10.744c-1.258,1.867-1.74,23.668-1.74,23.668l-9.223-3.237
				c5.233-13.949,6.616-25.675,6.616-25.675s-0.656-9.666-2.584-17.453c-1.136-4.567-2.374-10.62-2.564-15.472l6.412-1.497
				l7.296,10.544l6.72,3.522c0,0,4.579,5.976,5.905,6.142c1.313,0.177,5.423-0.142,5.423-0.142l-1.695,5.897
				c0,0,10.234-3.298,14.394-11.973C256.069,273.992,249.743,291.571,249.989,293.187z"/>
		</g>
		<g>
			<path style="fill:#F04965;" d="M214.63,250.251c0,0,3.349-1.94,7.072,1.382s11.467,17.495,11.467,17.495l-7.132,13.017
				c0,0-14.102-18.454-15.439-21.159C209.26,258.28,210.326,251.956,214.63,250.251z"/>
			<path style="fill:#FFB3A0;" d="M243.187,253.744c-0.469,0.504-1.502,0.799-2.343,0.977c-0.716,0.145-1.315,0.196-1.315,0.196
				s-3.896,23.718-5.449,25.461c-0.809,0.902-1.768,1.834-3.13,2.265c-1.236,0.386-2.804,0.36-4.912-0.497
				c0,0,0.671-5.204,2.312-10.082c1.641-4.866,4.706-10.77,5.309-15.204c0.615-4.434-0.521-6.522-0.521-6.522
				s-1.745-2.736-3.288-3.396c0,0,1.481-0.912,4.936,0.199c0,0,3.483-2.998,5.752-2.421c2.268,0.577,4.051,3.626,4.37,5.27
				C245.227,251.647,244.071,252.821,243.187,253.744z"/>
			<path style="fill:#C1897C;" d="M230.949,282.642c-1.236,0.386-2.804,0.36-4.912-0.497c0,0,2.71-5.121,4.857-4.312
				C232.893,278.586,232.703,281.144,230.949,282.642z"/>
			<path style="fill:#C1897C;" d="M242.596,253.558c-0.519,0.826-1.732,0.017-1.753,1.162c-0.716,0.145-1.315,0.196-1.315,0.196
				s0.774-2.21,2.084-2.88C242.921,251.367,243.103,252.732,242.596,253.558z"/>
		</g>
	</g>
	<g>
		<g>
			
				<rect x="314.961" y="135.254" style="fill:none;stroke:#4B44B0;stroke-width:1.2082;stroke-miterlimit:10;" width="47.937" height="19.479"/>
			<g>
				<rect x="314.961" y="135.254" style="fill:#FFFFFF;" width="47.937" height="19.479"/>
				
					<text transform="matrix(1 0 0 1 336.2197 147.3996)" style="fill:#4B44B0; font-family:'Montserrat-SemiBold'; font-size:8.2255px;">4.410</text>
				<polygon style="fill:#F04965;" points="323.535,141.582 320.048,147.623 327.023,147.623 				"/>
			</g>
		</g>
		<g>
			
				<rect x="314.961" y="109.79" style="fill:none;stroke:#4B44B0;stroke-width:1.2082;stroke-miterlimit:10;" width="47.937" height="19.48"/>
			<g>
				<rect x="314.961" y="109.79" style="fill:#FFFFFF;" width="47.937" height="19.48"/>
				
					<text transform="matrix(1 0 0 1 331.6543 121.9372)" style="fill:#4B44B0; font-family:'Montserrat-SemiBold'; font-size:8.2255px;">14.380</text>
				<polygon style="fill:#F04965;" points="323.535,116.118 320.048,122.159 327.023,122.159 				"/>
			</g>
		</g>
	</g>
</g>
</svg>
